SplineFontDB: 1.0
FontName: Garuda-Bold
FullName: Garuda Bold
FamilyName: Garuda
Weight: Bold
Copyright: Generated by NECTEC for Public Domain\n\nModified by TLWG
Version: 1.1 : May 12, 2003
ItalicAngle: 0
UnderlinePosition: -205
UnderlineWidth: 102
Ascent: 1786
Descent: 262
NeedsXUIDChange: 1
FSType: 0
PfmFamily: 33
TTFWeight: 700
TTFWidth: 5
Panose: 2 11 7 4 2 2 2 2 2 4
LineGap: 0
VLineGap: 0
LangName: 1033 "" "" "" "Garuda Bold" 
Encoding: compacted
OldEncoding: iso8859_1
DisplaySize: -72
AntiAlias: 1
WinInfo: 368 8 2
BeginPrivate: 3
BlueValues 31 [-20 4 693 709 796 800 934 956]
OtherBlues 11 [-279 -240]
ForceBold 4 true
EndPrivate
BeginChars: 379 345
StartChar: .notdef
Encoding: 0 -1
OldEncoding: 0
Width: 1024
Flags: W
HStem: 0 128<256 768> 1658 128<256 768>
VStem: 128 128<128 1658> 768 128<128 1658>
Fore
128 0 m 1
 128 1786 l 1
 896 1786 l 1
 896 0 l 1
 128 0 l 1
256 128 m 1
 768 128 l 1
 768 1658 l 1
 256 1658 l 1
 256 128 l 1
EndSplineSet
MinimumDistance: x2,-1 
EndChar
StartChar: exclam
Encoding: 33 33
OldEncoding: 33
Width: 412
Flags: W
HStem: 2 195<204 222>
VStem: 131 160<283 931>
Fore
291 283 m 1
 131 283 l 1
 131 932 l 1
 295 932 l 1
 291 283 l 1
303 100 m 0
 303 34.6667 273.667 2 215 2 c 0
 155 2 125 34.6667 125 100 c 0
 125 164.667 155 197 215 197 c 0
 273.667 197 303 164.667 303 100 c 0
EndSplineSet
MinimumDistance: x0,-1 
EndChar
StartChar: quotedbl
Encoding: 34 34
OldEncoding: 34
Width: 612
Flags: W
VStem: 82 135<771 932> 395 135<771 932>
Fore
481 608 m 1
 446 608 l 1
 395 772 l 1
 395 932 l 1
 530 932 l 1
 530 772 l 1
 481 608 l 1
166 608 m 1
 131 608 l 1
 82 772 l 1
 82 932 l 1
 217 932 l 1
 217 772 l 1
 166 608 l 1
EndSplineSet
MinimumDistance: x4,-1 
EndChar
StartChar: numbersign
Encoding: 35 35
OldEncoding: 35
Width: 799
Flags: W
HStem: 0 21G<115 246 387 516> 221 133<41 160 317 434 590 721> 551 137<96 221 377 500 647 758> 916 20G<289 422 569 696>
DStem: 160 221 291 221 115 0 246 0 221 551 352 551 186 354 317 354 289 936 422 936 244 688 377 688 434 221 563 221 387 0 516 0 500 551 627 551 459 354 590 354 569 936 696 936 518 688 647 688
Fore
590 354 m 1
 721 354 l 1
 721 221 l 1
 563 221 l 1
 516 0 l 1
 387 0 l 1
 434 221 l 1
 291 221 l 1
 246 0 l 1
 115 0 l 1
 160 221 l 1
 41 221 l 1
 41 354 l 1
 186 354 l 1
 221 551 l 1
 96 551 l 1
 96 688 l 1
 244 688 l 1
 289 936 l 1
 422 936 l 1
 377 688 l 1
 518 688 l 1
 569 936 l 1
 696 936 l 1
 647 688 l 1
 758 688 l 1
 758 551 l 1
 627 551 l 1
 590 354 l 1
317 354 m 1
 459 354 l 1
 500 551 l 1
 352 551 l 1
 317 354 l 1
EndSplineSet
MinimumDistance: x23,-1 
EndChar
StartChar: dollar
Encoding: 36 36
OldEncoding: 36
Width: 768
Flags: W
HStem: 914 20G<352 479>
VStem: 125 147<231 233 233.025 246 606 621> 352 127<-100 2 141 352 549 711 849 934> 553 152<231 258>
Fore
352 850 m 1
 352 934 l 1
 479 934 l 1
 479 850 l 1
 537 842.667 587 820 629 782 c 0
 675 740.667 696 691.667 692 635 c 2
 690 606 l 2
 689.333 597.333 685.333 590 678 584 c 1
 664 580 l 1
 569 580 l 1
 553 582.667 544.333 591.333 543 606 c 1
 543 662 521.667 697 479 711 c 1
 479 504 l 1
 507.667 497.333 535.667 485.667 563 469 c 1
 657.667 429.667 705 356 705 248 c 0
 705 145.333 659 71.6667 567 27 c 0
 540.333 14.3333 511 6 479 2 c 1
 479 -100 l 1
 352 -100 l 1
 352 2 l 1
 200.667 2 125 79 125 233 c 1
 121 265 130 281 152 281 c 2
 244 281 l 1
 256 279 l 1
 263.333 274.333 268 266.667 270 256 c 2
 272 246 l 1
 272 195.333 298.667 160.333 352 141 c 1
 352 381 l 1
 325.333 385 296 394 264 408 c 0
 170 449.333 123 516.667 123 610 c 0
 123 677.333 142 730 180 768 c 0
 234.667 822.667 292 850 352 850 c 1
354 715 m 1
 298 705 270 672 270 616 c 0
 270 594.667 284.333 574.333 313 555 c 1
 354 549 l 1
 354 715 l 1
479 352 m 1
 479 139 l 1
 528.333 149 553 186.667 553 252 c 0
 553 296.667 528.333 330 479 352 c 1
EndSplineSet
MinimumDistance: x14,-1 
EndChar
StartChar: percent
Encoding: 37 37
OldEncoding: 37
Width: 932
Flags: W
HStem: -10 82<714.926 730> -2 21G<127 287> 416 78<716.7 730> 430 82<230 248> 858 76<230 238>
VStem: 55 113<661 711> 309 115<661 711> 543 114<213 267> 799 114<237 267>
DStem: 678 934 834 934 127 -2 287 -2
Fore
55 682 m 0
 55 751.333 68 808 94 852 c 0
 126 906.667 174 934 238 934 c 0
 325.333 934 383.333 882.667 412 780 c 0
 420 751.333 424 718.667 424 682 c 0
 424 614 410.333 557.333 383 512 c 0
 350.333 457.333 302 430 238 430 c 0
 174 430 126 457.333 94 512 c 0
 68 556.667 55 613.333 55 682 c 0
301 799 m 1
 298.333 817.667 291 832 279 842 c 1
 272.333 852 258.667 857.333 238 858 c 0
 198 858.667 175.333 822 170 748 c 0
 168.667 729.333 168 707.333 168 682 c 0
 168 568.667 191.333 512 238 512 c 0
 285.333 512 309 567.333 309 678 c 2
 309 723 l 1
 307 752 l 1
 301 799 l 1
543 244 m 0
 543 310.667 556.667 366.667 584 412 c 0
 616.667 466.667 664.333 494 727 494 c 0
 789 494 836.667 466.667 870 412 c 0
 898.667 366 913 310 913 244 c 0
 913 174 899.667 116.667 873 72 c 0
 841 17.3333 792.333 -10 727 -10 c 0
 604.333 -10 543 74.6667 543 244 c 0
727 416 m 0
 680.333 416 657 358.667 657 244 c 0
 657 188.667 658.667 153 662 137 c 0
 671.333 93.6667 693 72 727 72 c 0
 757 72 778.333 93 791 135 c 1
 799 236 l 2
 801.667 270 799.667 306 793 344 c 0
 784.333 392 762.333 416 727 416 c 0
678 934 m 1
 834 934 l 1
 287 -2 l 1
 127 -2 l 1
 678 934 l 1
EndSplineSet
MinimumDistance: x21,-1 
EndChar
StartChar: ampersand
Encoding: 38 38
OldEncoding: 38
Width: 958
Flags: W
HStem: -9.99999 127<361 389> 848 96<424 458>
VStem: 41 176<277 313> 182 152<735 759> 569 115<709 739>
DStem: 360 436 496 498 575 199 668 313
Fore
848 2 m 1
 770 2 705 37.6667 653 109 c 1
 555 29.6667 458 -10 362 -10 c 0
 186.667 -10 82.3333 67 49 221 c 0
 43.6667 245.667 41 269.667 41 293 c 0
 41 350.333 62.6667 398 106 436 c 0
 134 460.667 193 490.667 283 526 c 1
 229 600 l 1
 195 666 l 2
 186.333 682.667 182 706.333 182 737 c 0
 182 805 208.667 857.667 262 895 c 0
 308.667 927.667 367.333 944 438 944 c 0
 512 944 570.667 925.667 614 889 c 0
 660.667 849.667 684 793.667 684 721 c 0
 684 625.667 621.333 551.333 496 498 c 1
 668 313 l 1
 689.333 340.333 711 376 733 420 c 1
 766 520 l 1
 907 500 l 1
 883.667 405.333 833.333 307.667 756 207 c 1
 799.333 155 841.667 130.333 883 133 c 2
 913 135 l 1
 913 10 l 1
 848 2 l 1
442 848 m 0
 370 848 334 813 334 743 c 0
 334 719 342 694.667 358 670 c 1
 410 610 l 1
 440 573 l 1
 526 607.667 569 657 569 721 c 0
 569 758.333 557.167 788.833 533.5 812.5 c 0
 509.833 836.167 479.333 848 442 848 c 0
360 436 m 1
 264.667 420 217 372.333 217 293 c 0
 217 243 233.333 201.167 266 167.5 c 0
 298.667 133.833 339.667 117 389 117 c 0
 446.333 117 508.333 144.333 575 199 c 1
 360 436 l 1
EndSplineSet
MinimumDistance: x13,-1 
EndChar
StartChar: quotesingle
Encoding: 39 39
OldEncoding: 39
Width: 399
Flags: W
VStem: 133 133<816 977>
Fore
217 653 m 1
 182 653 l 1
 133 817 l 1
 133 977 l 1
 266 977 l 1
 266 817 l 1
 217 653 l 1
EndSplineSet
MinimumDistance: x4,-1 
EndChar
StartChar: parenleft
Encoding: 40 40
OldEncoding: 40
Width: 506
Flags: W
Fore
209 369 m 0
 209 158.333 254 -39 344 -223 c 1
 254 -223 l 1
 135.333 -36.3333 76 163 76 375 c 0
 76 605.667 136.667 806.333 258 977 c 1
 348 977 l 1
 255.333 793.667 209 591 209 369 c 0
EndSplineSet
EndChar
StartChar: parenright
Encoding: 41 41
OldEncoding: 41
Width: 506
Flags: W
Fore
195 -223 m 1
 104 -223 l 1
 194.667 -40.3333 240 157 240 369 c 0
 240 591 193.333 793.667 100 977 c 1
 190 977 l 1
 312 798.333 373 597.667 373 375 c 0
 373 161.667 313.667 -37.6667 195 -223 c 1
EndSplineSet
EndChar
StartChar: asterisk
Encoding: 42 42
OldEncoding: 42
Width: 799
Flags: W
Fore
434 700 m 1
 563 516 l 1
 518 479 l 1
 399 674 l 1
 281 479 l 1
 236 516 l 1
 369 700 l 1
 162 764 l 1
 180 823 l 1
 379 745 l 1
 371 977 l 1
 428 977 l 1
 420 745 l 1
 618 825 l 1
 637 764 l 1
 434 700 l 1
EndSplineSet
EndChar
StartChar: plus
Encoding: 43 43
OldEncoding: 43
Width: 756
Flags: W
HStem: 352 121<88 329 440 681>
VStem: 330 110<86 352 473 739>
Fore
440 352 m 1
 440 86 l 1
 330 86 l 1
 330 352 l 1
 88 352 l 1
 88 473 l 1
 330 473 l 1
 330 739 l 1
 440 739 l 1
 440 473 l 1
 682 473 l 1
 682 352 l 1
 440 352 l 1
EndSplineSet
MinimumDistance: x10,-1 y6,8 y6,7 y0,2 y0,1 x3,5 x3,4 x0,10 x0,11 
EndChar
StartChar: comma
Encoding: 44 44
OldEncoding: 44
Width: 338
Flags: W
Fore
176 -27 m 2
 176 0 l 1
 144.667 0 118 9.5 96 28.5 c 0
 74 47.5 63 72.6667 63 104 c 0
 63 134.667 72.5 160.5 91.5 181.5 c 0
 110.5 202.5 135.333 213 166 213 c 0
 238 213 274 162.333 274 61 c 2
 274 39 l 1
 258 -108.333 190 -193 70 -215 c 1
 70 -147 l 1
 96 -143 114.333 -137.667 125 -131 c 1
 159 -119 176 -84.3333 176 -27 c 2
EndSplineSet
EndChar
StartChar: hyphen
Encoding: 45 45
OldEncoding: 45
Width: 608
Flags: W
HStem: 322 108<53 550>
Fore
53 322 m 1
 53 430 l 1
 551 430 l 1
 551 322 l 1
 53 322 l 1
EndSplineSet
EndChar
StartChar: period
Encoding: 46 46
OldEncoding: 46
Width: 291
Flags: W
Fore
248 100 m 0
 248 34.6667 218 2 158 2 c 0
 98 2 68 34.6667 68 100 c 0
 68 164.667 98 197 158 197 c 0
 184 197 205.5 187.5 222.5 168.5 c 0
 239.5 149.5 248 126.667 248 100 c 0
EndSplineSet
EndChar
StartChar: slash
Encoding: 47 47
OldEncoding: 47
Width: 799
Flags: W
HStem: -2 21G<43 215> 914 20G<594 762>
DStem: 594 934 762 934 43 -2 215 -2
Fore
594 934 m 1
 762 934 l 1
 215 -2 l 1
 43 -2 l 1
 594 934 l 1
EndSplineSet
MinimumDistance: x1,-1 
EndChar
StartChar: zero
Encoding: 48 48
OldEncoding: 48
Width: 932
Flags: W
HStem: 0 102<476 510> 827 109<492 510>
VStem: 109 165<431 497> 717 168<431 513>
Fore
885 471 m 0
 885 331.667 861 224.667 813 150 c 0
 748.333 50 642 0 494 0 c 0
 362 0 262.667 47 196 141 c 0
 138 222.333 109 331.667 109 469 c 0
 109 602.333 139 710.667 199 794 c 0
 267 888.667 365.333 936 494 936 c 0
 628 936 728.667 890.333 796 799 c 0
 855.333 719 885 609.667 885 471 c 0
500 827 m 0
 388.667 827 317.667 752 287 602 c 0
 278.333 559.333 274 515 274 469 c 0
 274 374.333 288.333 295 317 231 c 0
 355.667 145 416 102 498 102 c 0
 644 102 717 223.667 717 467 c 0
 717 707 644.667 827 500 827 c 0
EndSplineSet
MinimumDistance: x0,-1 
EndChar
StartChar: one
Encoding: 49 49
OldEncoding: 49
Width: 932
Flags: W
HStem: -6 21G<502 674> 918 20G<465 674>
VStem: 502 172<-6 834>
Fore
502 -6 m 1
 502 834 l 1
 432 762 l 1
 391 723 l 1
 346 684 l 1
 293 643 l 1
 217 721 l 1
 248 743 l 2
 276 763 321 800.667 383 856 c 1
 389.667 863.333 403.333 877.667 424 899 c 0
 448 923.667 461.667 936.667 465 938 c 1
 674 938 l 1
 674 -6 l 1
 502 -6 l 1
EndSplineSet
MinimumDistance: x11,-1 
EndChar
StartChar: two
Encoding: 50 50
OldEncoding: 50
Width: 932
Flags: W
HStem: -4 135<356 891> 836 118<492 528>
VStem: 737 160<679 698>
Fore
891 -4 m 1
 156 -4 l 1
 156 66.6667 160.667 120 170 156 c 0
 182.667 206 208.667 252.333 248 295 c 0
 294 345 339.667 382.667 385 408 c 2
 547 498 l 2
 673.667 568.667 737 633.333 737 692 c 0
 737 736.667 709 773 653 801 c 0
 606.333 824.333 558.667 836 510 836 c 0
 432.667 836 374.667 810 336 758 c 0
 319.333 736 311 710.667 311 682 c 0
 311 658.667 319.333 629.333 336 594 c 1
 180 535 l 1
 165.333 557.667 154.333 582 147 608 c 1
 141 696 l 2
 139 724.667 154 761.667 186 807 c 0
 255.333 905 368.667 954 526 954 c 0
 654.667 954 751.667 920 817 852 c 0
 870.333 796 897 738.667 897 680 c 0
 897 596.667 854 527.667 768 473 c 2
 604 369 l 2
 546 332.333 506 306 484 290 c 0
 445.333 262 410.333 229.667 379 193 c 0
 363.667 175 356 154.333 356 131 c 1
 893 133 l 1
 891 -4 l 1
EndSplineSet
MinimumDistance: x18,-1 
EndChar
StartChar: three
Encoding: 51 51
OldEncoding: 51
Width: 932
Flags: W
HStem: -10 112<502 547> 825 119<504 557>
VStem: 719 158<682.125 700> 731 176<258 279>
Fore
332 670 m 1
 168 676 l 1
 172 720 178 752 186 772 c 0
 196 798 215.333 824.667 244 852 c 0
 308 913.333 408.333 944 545 944 c 0
 633.667 944 708.667 924 770 884 c 0
 841.333 837.333 877 772 877 688 c 0
 877 590 818 528.667 700 504 c 1
 700 492 l 1
 782 474.667 839.667 438.333 873 383 c 0
 895.667 343.667 907 302.667 907 260 c 0
 907 152 849.667 75 735 29 c 0
 670.333 3 599.333 -10 522 -10 c 0
 362.667 -10 251.333 31 188 113 c 0
 152.667 159 135 215.667 135 283 c 1
 303 283 l 1
 313 215 l 1
 326.333 174.333 359.333 143.667 412 123 c 0
 448 109 484.667 102 522 102 c 0
 580 102 628 114.667 666 140 c 0
 709.333 170 731 212.667 731 268 c 0
 731 343.333 697 392.667 629 416 c 0
 589.667 429.333 523.333 436 430 436 c 1
 430 551 l 1
 506 545 l 1
 557 551 l 2
 646.333 561.667 699 593 715 645 c 1
 719 682 l 1
 719 777.333 654.667 825 526 825 c 0
 425.333 825 361.333 782.667 334 698 c 1
 330 678 l 1
 332 670 l 1
EndSplineSet
MinimumDistance: x10,-1 
EndChar
StartChar: four
Encoding: 52 52
OldEncoding: 52
Width: 932
Flags: W
HStem: -6 21G<612 784> 238 110<252 610 784 936> 922 20G<559 782>
VStem: 612 172<-6 238 348 817>
Fore
784 238 m 1
 784 -6 l 1
 612 -6 l 1
 612 238 l 1
 92 238 l 1
 92 362 l 1
 559 942 l 1
 782 942 l 1
 782 348 l 1
 936 348 l 1
 936 238 l 1
 784 238 l 1
610 817 m 1
 252 348 l 1
 610 348 l 1
 610 817 l 1
EndSplineSet
MinimumDistance: x6,8 y8,6 y8,7 y0,2 y0,1 y5,3 x3,5 x3,4 x0,9 x0,10 
EndChar
StartChar: five
Encoding: 53 53
OldEncoding: 53
Width: 932
Flags: W
HStem: -20 118<509 559> 526 136<539 614> 803 129<378 852>
Fore
539 -20 m 0
 333.667 -20 211.333 47.3333 172 182 c 0
 169.333 190.667 164.667 212 158 246 c 1
 330 246 l 1
 344.667 147.333 413.667 98 537 98 c 0
 671.667 98 743.333 163 752 293 c 2
 754 324 l 2
 758 383.333 737.333 432.333 692 471 c 0
 650 507.667 599 526 539 526 c 0
 450.333 526 377 490.667 319 420 c 1
 162 420 l 1
 236 932 l 1
 852 932 l 1
 870 803 l 1
 379 803 l 1
 371 772 l 1
 332 573 l 1
 408 618 l 1
 446 639 l 2
 474 654.333 530 662 614 662 c 0
 711.333 662 787.667 627.333 843 558 c 0
 894.333 494.667 920 413 920 313 c 0
 920 91 793 -20 539 -20 c 0
EndSplineSet
EndChar
StartChar: six
Encoding: 54 54
OldEncoding: 54
Width: 932
Flags: W
HStem: -20 114<512 557> 508 104<524 551> 840 108<532 578>
VStem: 743 160<283 317>
Fore
526 -20 m 0
 370.667 -20 263.667 38 205 154 c 0
 165 233.333 145 350 145 504 c 0
 145 634.667 179.333 740 248 820 c 0
 320 905.333 420.333 948 549 948 c 0
 729 948 841.667 877 887 735 c 1
 735 735 l 1
 702.333 805 642.333 840 555 840 c 0
 487.667 840 433 815.333 391 766 c 0
 356.333 725.333 334 668.667 324 596 c 2
 319 559 l 1
 319 510 l 1
 340 524 l 1
 350 535 l 2
 396.667 586.333 463 612 549 612 c 0
 654.333 612 738.333 586.667 801 536 c 0
 869 481.333 903 402.333 903 299 c 0
 903 192.333 865.667 111 791 55 c 0
 724.333 5 636 -20 526 -20 c 0
528 508 m 0
 466 508 416.667 486.333 380 443 c 0
 345.333 402.333 328 350.333 328 287 c 0
 328 158.333 396 94 532 94 c 0
 596 94 647.167 111.667 685.5 147 c 0
 723.833 182.333 743 231.667 743 295 c 0
 743 359.667 723.333 411.333 684 450 c 0
 644.667 488.667 592.667 508 528 508 c 0
EndSplineSet
MinimumDistance: x16,-1 
EndChar
StartChar: seven
Encoding: 55 55
OldEncoding: 55
Width: 932
Flags: W
HStem: -2 21G<309 502> 813 115<176 737>
Fore
516 172 m 0
 506.667 122.667 502 64.6667 502 -2 c 1
 309 -2 l 1
 328.333 197.333 394.667 380.333 508 547 c 0
 547.333 605 623.667 693.667 737 813 c 1
 176 813 l 1
 176 928 l 1
 883 928 l 1
 883 803 l 1
 813 740.333 751.333 669.333 698 590 c 0
 602.667 447.333 542 308 516 172 c 0
EndSplineSet
EndChar
StartChar: eight
Encoding: 56 56
OldEncoding: 56
Width: 932
Flags: W
HStem: -8 98<498 532> 465 117<498 532> 854 88<498 532>
VStem: 147 158<279 297> 190 160<729 745> 692 158<725 743> 731 158<279 297>
Fore
889 291 m 0
 889 190.333 851.333 113.667 776 61 c 0
 710.667 15 625.333 -8 520 -8 c 0
 414 -8 328 15 262 61 c 0
 185.333 113.667 147 191 147 293 c 0
 147 417 221.667 490.667 371 514 c 1
 371 545 l 1
 315 550.333 270.833 570.667 238.5 606 c 0
 206.167 641.333 190 687 190 743 c 0
 190 813 229.667 865.667 309 901 c 0
 370.333 928.333 440.667 942 520 942 c 0
 604 942 675 929 733 903 c 0
 811 868.333 850 814.333 850 741 c 0
 850 632.333 794 567 682 545 c 1
 684 514 l 1
 820.667 490.667 889 416.333 889 291 c 0
731 291 m 0
 731 349 709.333 393.333 666 424 c 0
 628 451.333 578.667 465 518 465 c 0
 459.333 465 410.667 451 372 423 c 0
 327.333 391 305 347 305 291 c 0
 305 230.333 325.667 181.333 367 144 c 0
 406.333 108 456.667 90 518 90 c 0
 580.667 90 631.833 108 671.5 144 c 0
 711.167 180 731 229 731 291 c 0
520 854 m 0
 406.667 854 350 812.333 350 729 c 1
 345.333 680.333 360.667 643 396 617 c 0
 427.333 593.667 468 582 518 582 c 0
 634 582 692 630.333 692 727 c 0
 692 769.667 673 802.333 635 825 c 0
 603.667 844.333 565.333 854 520 854 c 0
EndSplineSet
MinimumDistance: x0,-1 
EndChar
StartChar: nine
Encoding: 57 57
OldEncoding: 57
Width: 932
Flags: W
HStem: -10 98<471 510> 332 106<487 524> 840 108<492 537>
VStem: 152 155<629 663> 745 152<405 451>
Fore
897 444 m 0
 897 314.667 863.667 208.667 797 126 c 0
 725 35.3333 626 -10 500 -10 c 0
 320 -10 210.667 53.3333 172 180 c 2
 168 193 l 1
 311 193 l 1
 343.667 123 404.667 88 494 88 c 0
 579.333 88 645.333 133 692 223 c 0
 722 281 739 331.667 743 375 c 0
 744.333 390.333 745 415.667 745 451 c 1
 719 430 l 1
 696 406 l 2
 648.667 356.667 584.667 332 504 332 c 0
 398.667 332 315.333 355.667 254 403 c 0
 186 455 152 532.333 152 635 c 0
 152 741 188.333 821 261 875 c 0
 325.667 923.667 412.667 948 522 948 c 0
 727.333 948 847.667 847.667 883 647 c 0
 892.333 593.667 897 526 897 444 c 0
518 840 m 0
 454.667 840 404 822.667 366 788 c 0
 326.667 751.333 307 701.667 307 639 c 0
 307 578.333 325.333 529.667 362 493 c 0
 398.667 456.333 447.333 438 508 438 c 0
 568.667 438 619.333 457.667 660 497 c 0
 700.667 536.333 721 586.333 721 647 c 0
 721 707.667 702.5 755 665.5 789 c 0
 628.5 823 579.333 840 518 840 c 0
EndSplineSet
MinimumDistance: x0,-1 
EndChar
StartChar: colon
Encoding: 58 58
OldEncoding: 58
Width: 393
Flags: W
HStem: 2 195<179 197> 512 195<179 197>
Fore
279 608 m 0
 279 544 249.333 512 190 512 c 0
 130 512 100 544 100 608 c 0
 100 674 130 707 190 707 c 0
 249.333 707 279 674 279 608 c 0
279 100 m 0
 279 34.6667 249.333 2 190 2 c 0
 130 2 100 34.6667 100 100 c 0
 100 164.667 130 197 190 197 c 0
 249.333 197 279 164.667 279 100 c 0
EndSplineSet
EndChar
StartChar: semicolon
Encoding: 59 59
OldEncoding: 59
Width: 428
Flags: W
HStem: 6 205<195 207> 506 194<179 213>
Fore
287 602 m 0
 287 538 257 506 197 506 c 0
 136.333 506 106 538 106 602 c 0
 106 667.333 136.333 700 197 700 c 0
 257 700 287 667.333 287 602 c 0
207 -33 m 2
 207 6 l 1
 177 6 151.667 15.1667 131 33.5 c 0
 110.333 51.8333 100 76 100 106 c 0
 100 176 134.333 211 203 211 c 0
 238.333 211 265.667 195 285 163 c 0
 301.667 135 309 102.667 307 66 c 1
 305 33 l 2
 296.333 -110.333 231.667 -193 111 -215 c 1
 111 -147 l 1
 133.667 -143 150.667 -138.333 162 -133 c 1
 192 -113.667 207 -80.3333 207 -33 c 2
EndSplineSet
EndChar
StartChar: less
Encoding: 60 60
OldEncoding: 60
Width: 799
Flags: W
DStem: 98 330 231 399 700 84 700 215 700 713 700 582 98 467 231 399
Fore
98 330 m 1
 98 467 l 1
 700 713 l 1
 700 582 l 1
 231 399 l 1
 700 215 l 1
 700 84 l 1
 98 330 l 1
EndSplineSet
MinimumDistance: x2,-1 
EndChar
StartChar: equal
Encoding: 61 61
OldEncoding: 61
Width: 727
Flags: W
HStem: 184 123<88 664> 537 120<88 664>
Fore
88 537 m 1
 88 657 l 1
 664 657 l 1
 664 537 l 1
 88 537 l 1
88 184 m 1
 88 307 l 1
 664 307 l 1
 664 184 l 1
 88 184 l 1
EndSplineSet
EndChar
StartChar: greater
Encoding: 62 62
OldEncoding: 62
Width: 799
Flags: W
DStem: 98 582 98 713 565 399 700 467 565 399 700 330 98 215 98 84
Fore
98 84 m 1
 98 215 l 1
 565 399 l 1
 98 582 l 1
 98 713 l 1
 700 467 l 1
 700 330 l 1
 98 84 l 1
EndSplineSet
MinimumDistance: x5,-1 
EndChar
StartChar: question
Encoding: 63 63
OldEncoding: 63
Width: 719
Flags: W
HStem: -2 154<346 373> 494 196<236 268> 836 108<333 362>
VStem: 84 109<678 703> 492 151<666 696>
Fore
562 873 m 0
 599.333 840.333 623 809.667 633 781 c 0
 639.667 761.667 643 728.667 643 682 c 0
 643 586 608.333 503.333 539 434 c 2
 451 346 l 2
 425 320 410.667 281.667 408 231 c 1
 406 188 l 1
 297 186 l 1
 299 252 l 1
 309 309 l 1
 313 330.333 326 363.333 348 408 c 0
 352.667 420 382 461.333 436 532 c 0
 473.333 580.667 492 628 492 674 c 0
 492 722 477.667 761 449 791 c 0
 420.333 821 382 836 334 836 c 0
 278 836 239 816 217 776 c 2
 205 754 l 1
 197 733.333 193 714 193 696 c 0
 193 682.667 194.333 673.333 197 668 c 1
 223 682.667 246.667 690 268 690 c 0
 321.333 690 348 658.667 348 596 c 0
 348 565.333 337.167 540.667 315.5 522 c 0
 293.833 503.333 267.333 494 236 494 c 0
 188 494 150 513.667 122 553 c 0
 96.6667 587.667 84 630 84 680 c 0
 84 777.333 121 849.667 195 897 c 0
 243.667 928.333 299.333 944 362 944 c 0
 440.667 944 507.333 920.333 562 873 c 0
358 152 m 0
 408 152 434 126 436 74 c 0
 438 23.3333 412 -2 358 -2 c 0
 308 -2 283 23.3333 283 74 c 0
 283 126 308 152 358 152 c 0
EndSplineSet
MinimumDistance: x2,-1 
EndChar
StartChar: at
Encoding: 64 64
OldEncoding: 64
Width: 1049
Flags: W
HStem: -35 107<533 573> 588 129<517 537> 689 20G<682 788> 860 107<516 573>
VStem: 76 123<434 494> 272 140<412 438> 872 101<518 561>
Fore
684 180 m 0
 629.333 180 602 206.667 602 260 c 1
 562.667 215.333 520.333 190 475 184 c 1
 415 184 365.333 207.667 326 255 c 0
 290 299.667 272 352.667 272 414 c 0
 272 494 292.667 562.667 334 620 c 0
 380 684.667 441.333 717 518 717 c 0
 576.667 717 627.333 688.333 670 631 c 1
 682 709 l 1
 788 709 l 1
 729 301 l 2
 725.667 278.333 733.333 266.667 752 266 c 0
 790.667 265.333 822 299.667 846 369 c 0
 863.333 419.667 872 469.333 872 518 c 0
 872 622 843 705 785 767 c 0
 727 829 646.333 860 543 860 c 0
 434.333 860 348.667 820.667 286 742 c 0
 228 670 199 578.333 199 467 c 0
 199 351 230.333 257.333 293 186 c 0
 359 110 449 72 563 72 c 0
 646.333 72 723.667 102 795 162 c 1
 907 162 l 1
 853.667 96 802.667 48 754 18 c 0
 696 -17.3333 629 -35 553 -35 c 0
 407 -35 290.333 12 203 106 c 0
 118.333 197.333 76 316.333 76 463 c 0
 76 605 118.333 723.667 203 819 c 0
 290.333 917.667 404.333 967 545 967 c 0
 663 967 763.833 928.667 847.5 852 c 0
 931.167 775.333 973 678.333 973 561 c 0
 973 444.333 950.333 356.333 905 297 c 0
 869 249.667 838.333 219 813 205 c 0
 783 188.333 740 180 684 180 c 0
412 436 m 0
 412 352.667 444 311 508 311 c 0
 546.667 311 578 328.333 602 363 c 0
 624 393.667 635 429 635 469 c 0
 635 548.333 601.667 588 535 588 c 0
 499 588 469 571.333 445 538 c 0
 423 508 412 474 412 436 c 0
EndSplineSet
MinimumDistance: x29,-1 
EndChar
StartChar: A
Encoding: 65 65
OldEncoding: 65
Width: 840
Flags: W
HStem: 4 21G<33 188 614 788> 207 129<281 524> 920 20G<307 522>
DStem: 307 940 406 797 33 4 281 336 307 940 246 207 33 4 188 4
Fore
614 4 m 1
 559 207 l 1
 246 207 l 1
 188 4 l 1
 33 4 l 1
 307 940 l 1
 522 940 l 1
 788 4 l 1
 614 4 l 1
406 797 m 1
 281 336 l 1
 524 336 l 1
 406 797 l 1
EndSplineSet
MinimumDistance: x8,-1 
EndChar
StartChar: B
Encoding: 66 66
OldEncoding: 66
Width: 864
Flags: W
HStem: 4 129<270 440> 426 121<270 438> 817 123<270 473>
VStem: 111 159<133 425 547 817> 612 166<686 709> 631 172<244 285>
Fore
612 12 m 1
 487 4 l 1
 111 4 l 1
 111 940 l 1
 487 940 l 1
 598 934 l 2
 624 932.667 652 921.667 682 901 c 0
 746 857.667 778 793 778 707 c 0
 778 599 722 528 610 494 c 1
 608 481 l 1
 666 469 713 441.333 749 398 c 0
 785 354.667 803 303.333 803 244 c 0
 803 206 794 171 776 139 c 0
 737.333 69.6667 682.667 27.3333 612 12 c 1
514 813 m 2
 473 817 l 1
 270 817 l 1
 270 547 l 1
 438 547 l 1
 512 549 l 1
 528.667 551.667 545.667 560.333 563 575 c 0
 595.667 602.333 612 640 612 688 c 0
 612 764.667 579.333 806.333 514 813 c 2
567 403 m 0
 553.667 411.667 536 418 514 422 c 1
 451 426 l 1
 270 426 l 1
 270 133 l 1
 440 133 l 1
 518 135 l 1
 535.333 137.667 553.667 146 573 160 c 0
 611.667 188 631 229.667 631 285 c 0
 631 335 609.667 374.333 567 403 c 0
EndSplineSet
MinimumDistance: x11,-1 
EndChar
StartChar: C
Encoding: 67 67
OldEncoding: 67
Width: 864
Flags: W
HStem: -4 133<451 469> 821 135<435 469>
VStem: 68 184<443 493>
Fore
453 -4 m 0
 325.667 -4 227.333 46.3333 158 147 c 0
 98 234.333 68 344.333 68 477 c 0
 68 609.667 99.3333 719.667 162 807 c 0
 233.333 906.333 332.333 956 459 956 c 0
 649.667 956 761.667 847 795 629 c 1
 627 616 l 1
 627 752.667 569 821 453 821 c 0
 385.667 821 333 778 295 692 c 0
 266.333 627.333 252 552.333 252 467 c 0
 252 385.667 267 313.333 297 250 c 0
 335 169.333 390.333 129 463 129 c 0
 526.333 129 573.333 157 604 213 c 0
 617.333 237.667 629 271 639 313 c 1
 795 303 l 1
 763.667 98.3333 649.667 -4 453 -4 c 0
EndSplineSet
MinimumDistance: x9,-1 
EndChar
StartChar: D
Encoding: 68 68
OldEncoding: 68
Width: 864
Flags: W
HStem: 4 21G<74 346> 777 20G<236 360> 920 20G<74 311>
VStem: 74 162<145 797> 627 166<467 501>
Fore
682 133 m 0
 613.333 47 501.333 4 346 4 c 2
 74 4 l 1
 74 940 l 1
 311 940 l 2
 480.333 940 598 905.333 664 836 c 0
 750 746 793 625.667 793 475 c 0
 793 340.333 756 226.333 682 133 c 0
555 721 m 0
 519.667 771.667 454.667 797 360 797 c 2
 236 797 l 1
 236 145 l 1
 330 145 l 2
 390.667 145 435.667 150.667 465 162 c 0
 511.667 180 547 210.667 571 254 c 0
 581.667 273.333 595.333 309.333 612 362 c 1
 622 412.667 627 452.333 627 481 c 0
 627 572.333 603 652.333 555 721 c 0
EndSplineSet
MinimumDistance: x6,-1 
EndChar
StartChar: E
Encoding: 69 69
OldEncoding: 69
Width: 760
Flags: W
HStem: 2 125<266 698> 391 131<266 606> 797 135<266 698>
VStem: 106 160<126 391 521 797>
Fore
106 2 m 1
 106 932 l 1
 698 932 l 1
 698 797 l 1
 266 797 l 1
 266 522 l 1
 606 522 l 1
 606 391 l 1
 266 391 l 1
 266 127 l 1
 698 127 l 1
 698 2 l 1
 106 2 l 1
EndSplineSet
MinimumDistance: x2,-1 x9,11 x9,10 x5,7 x5,6 x4,2 x4,3 
EndChar
StartChar: F
Encoding: 70 70
OldEncoding: 70
Width: 709
Flags: W
HStem: 2 21G<104 264> 385 139<264 606> 795 141<264 694>
VStem: 104 160<2 385 523 795>
Fore
264 795 m 1
 264 524 l 1
 606 524 l 1
 606 385 l 1
 264 385 l 1
 264 2 l 1
 104 2 l 1
 104 936 l 1
 694 936 l 1
 694 795 l 1
 264 795 l 1
EndSplineSet
MinimumDistance: x8,-1 y4,6 y4,5 x1,3 x1,2 x0,8 x0,9 
EndChar
StartChar: G
Encoding: 71 71
OldEncoding: 71
Width: 864
Flags: W
HStem: -8 131<445 477> 0 21G<662 795> 348 129<475 643> 821 129<440 477>
VStem: 41 166<439 489> 643 152<327 348>
Fore
662 0 m 1
 662 100 l 1
 632.667 28 560.667 -8 446 -8 c 0
 321.333 -8 221 40.6667 145 138 c 0
 75.6667 226.667 41 335 41 463 c 0
 41 603 76.3333 717.333 147 806 c 0
 223.667 902 330.333 950 467 950 c 0
 648.333 950 759.667 854.667 801 664 c 1
 651 641 l 1
 632.333 761 569 821 461 821 c 0
 383 821 318.667 777.333 268 690 c 0
 227.333 619.333 207 541.667 207 457 c 0
 207 381 228.667 310 272 244 c 0
 325.333 163.333 391.667 123 471 123 c 0
 585.667 123 643 198 643 348 c 1
 475 348 l 1
 475 477 l 1
 795 477 l 1
 795 0 l 1
 662 0 l 1
EndSplineSet
MinimumDistance: x17,-1 
EndChar
StartChar: H
Encoding: 72 72
OldEncoding: 72
Width: 879
Flags: W
HStem: 4 21G<80 242 641 809> 412 143<242 641> 920 20G<80 242 641 809>
VStem: 80 162<4 412 555 940> 641 168<4 412 555 940>
Fore
641 4 m 1
 641 412 l 1
 242 412 l 1
 242 4 l 1
 80 4 l 1
 80 940 l 1
 242 940 l 1
 242 555 l 1
 641 555 l 1
 641 940 l 1
 809 940 l 1
 809 4 l 1
 641 4 l 1
EndSplineSet
MinimumDistance: x10,-1 y8,10 y8,9 y7,5 y7,6 y2,4 y2,3 y1,11 y1,0 
EndChar
StartChar: I
Encoding: 73 73
OldEncoding: 73
Width: 393
Flags: W
HStem: 4 21G<111 270> 920 20G<111 270>
VStem: 111 159<4 940>
Fore
111 4 m 1
 111 940 l 1
 270 940 l 1
 270 4 l 1
 111 4 l 1
EndSplineSet
MinimumDistance: x2,-1 
EndChar
StartChar: J
Encoding: 74 74
OldEncoding: 74
Width: 645
Flags: W
HStem: -4 145<305 319> 916 20G<436 594>
VStem: 39 156<242 367> 436 158<353 936>
Fore
469 39 m 0
 426.333 10.3333 375.667 -4 317 -4 c 0
 301 -4 288.333 -2.66667 279 0 c 1
 194.333 0 130 32.6667 86 98 c 0
 54.6667 144.667 39 195.333 39 250 c 2
 39 367 l 1
 195 367 l 1
 195 254 l 2
 195 221.333 205.5 194.333 226.5 173 c 0
 247.5 151.667 274.333 141 307 141 c 0
 379.667 141 421.333 181.333 432 262 c 1
 436 354 l 1
 436 936 l 1
 594 936 l 1
 594 244 l 1
 576 151.333 534.333 83 469 39 c 0
EndSplineSet
MinimumDistance: x13,-1 
EndChar
StartChar: K
Encoding: 75 75
OldEncoding: 75
Width: 840
Flags: W
HStem: 0 21G<111 264 612 793> 914 20G<111 264>
VStem: 111 153<0 174 424 934>
DStem: 428 436 543 586 612 0 793 0 580 932 750 932 264 424 543 586
Fore
612 0 m 1
 428 436 l 1
 264 174 l 1
 264 0 l 1
 111 0 l 1
 111 934 l 1
 264 934 l 1
 264 424 l 1
 580 932 l 1
 750 932 l 1
 543 586 l 1
 793 0 l 1
 612 0 l 1
EndSplineSet
MinimumDistance: x11,-1 
EndChar
StartChar: L
Encoding: 76 76
OldEncoding: 76
Width: 655
Flags: W
HStem: 4 143<261 623> 920 20G<100 262>
VStem: 100 162<146 940>
Fore
100 4 m 1
 100 940 l 1
 262 940 l 1
 262 147 l 1
 623 147 l 1
 623 4 l 1
 100 4 l 1
EndSplineSet
MinimumDistance: x4,-1 y3,1 y3,2 x3,5 x3,4 
EndChar
StartChar: M
Encoding: 77 77
OldEncoding: 77
Width: 1153
Flags: W
HStem: 4 21G<106 236 500 606 879 1038> 920 20G<106 393 752 1038>
VStem: 106 130<4 811> 879 159<4 811>
DStem: 281 811 393 940 500 4 569 279 752 940 829 811 569 279 606 4
Fore
879 4 m 1
 879 811 l 1
 829 811 l 1
 606 4 l 1
 500 4 l 1
 281 811 l 1
 236 811 l 1
 236 4 l 1
 106 4 l 1
 106 940 l 1
 393 940 l 1
 569 279 l 1
 752 940 l 1
 1038 940 l 1
 1038 4 l 1
 879 4 l 1
EndSplineSet
MinimumDistance: x13,-1 
EndChar
StartChar: N
Encoding: 78 78
OldEncoding: 78
Width: 864
Flags: W
HStem: 4 21G<106 219 608 750> 687 20G<219 264> 920 20G<106 293 635 750>
VStem: 106 113<4 707> 635 115<315 940>
DStem: 264 707 293 940 608 4 594 315
Fore
608 4 m 1
 264 707 l 1
 219 707 l 1
 219 4 l 1
 106 4 l 1
 106 940 l 1
 293 940 l 1
 594 315 l 1
 635 315 l 1
 635 940 l 1
 750 940 l 1
 750 4 l 1
 608 4 l 1
EndSplineSet
MinimumDistance: x10,-1 
EndChar
StartChar: O
Encoding: 79 79
OldEncoding: 79
Width: 864
Flags: W
HStem: -4 139<426 444> 823 133<426 444>
VStem: 43 172<443 509> 641 160<459 509>
Fore
428 -4 m 0
 298 -4 203.667 42.3333 145 135 c 0
 77 241.667 43 355.667 43 477 c 0
 43 606.333 74.3333 715.667 137 805 c 0
 207.667 905.667 304.667 956 428 956 c 0
 528.667 956 606.333 932.667 661 886 c 0
 713 841.333 751.333 769.333 776 670 c 0
 792.667 603.333 801 539.667 801 479 c 0
 801 427 793.333 369.667 778 307 c 0
 727.333 99.6667 610.667 -4 428 -4 c 0
434 823 m 0
 356.667 823 297.333 776.667 256 684 c 0
 228.667 622.667 215 553.667 215 477 c 0
 215 395 231.333 321.333 264 256 c 0
 304.667 175.333 362 135 436 135 c 0
 506.667 135 562.667 178 604 264 c 0
 628.667 315.333 641 386.333 641 477 c 0
 641 707.667 572 823 434 823 c 0
EndSplineSet
MinimumDistance: x7,-1 
EndChar
StartChar: P
Encoding: 80 80
OldEncoding: 80
Width: 836
Flags: W
HStem: 0 21G<84 244> 369 125<244 455> 809 127<244 437>
VStem: 84 160<0 369 494 809> 598 164<651 673>
Fore
565 375 m 2
 518 369 l 1
 244 369 l 1
 244 0 l 1
 84 0 l 1
 84 936 l 1
 489 936 l 2
 555 936 610.333 919 655 885 c 0
 726.333 830.333 762 756 762 662 c 0
 762 617.333 754.333 573.333 739 530 c 0
 706.333 437.333 648.333 385.667 565 375 c 2
492 803 m 0
 471.333 807 446 809 416 809 c 2
 244 809 l 1
 244 494 l 1
 455 494 l 1
 492 500 l 2
 536.667 507.333 568 537.333 586 590 c 0
 591.333 605.333 595.333 625.667 598 651 c 1
 598 739 562.667 789.667 492 803 c 0
EndSplineSet
MinimumDistance: x8,-1 y2,4 y2,3 
EndChar
StartChar: Q
Encoding: 81 81
OldEncoding: 81
Width: 864
Flags: W
HStem: 817 133<428 446>
Fore
608 37 m 1
 608 -46.3333 643.667 -85.3333 715 -80 c 2
 766 -76 l 1
 766 -201 l 1
 717 -205 l 2
 651 -210.333 602 -193.333 570 -154 c 0
 544.667 -123.333 526.667 -72.6667 516 -2 c 1
 406 -12 l 2
 358 -16.6667 309.333 -2.33333 260 31 c 0
 216.667 59.6667 180.667 96.3333 152 141 c 0
 91.3333 236.333 61 346.333 61 471 c 0
 61 600.333 90.6667 709.667 150 799 c 0
 216.667 899.667 312 950 436 950 c 0
 560.667 950 652.333 905 711 815 c 0
 775 717 807 602.333 807 471 c 0
 807 270.333 740.667 125.667 608 37 c 1
590 705 m 0
 562 779.667 510.667 817 436 817 c 0
 352.667 817 294.667 774 262 688 c 1
 240 586 l 1
 233 471 l 2
 228.333 395 242.667 320.667 276 248 c 0
 312.667 167.333 368.667 127 444 127 c 0
 524.667 127 578.667 168.667 606 252 c 1
 629 358 l 1
 637 471 l 1
 641 531.667 625.333 609.667 590 705 c 0
EndSplineSet
EndChar
StartChar: R
Encoding: 82 82
OldEncoding: 82
Width: 881
Flags: W
HStem: -2 21G<72 227 676 842> 375 153<227 528> 778 154<227 528>
VStem: 72 155<-2 375 528 778> 639 154<168 211>
Fore
676 -2 m 1
 651.333 59.3333 639 127 639 201 c 0
 639 265.667 634.333 307.333 625 326 c 0
 609 358.667 570 375 508 375 c 2
 227 375 l 1
 227 -2 l 1
 72 -2 l 1
 72 932 l 1
 500 932 l 2
 704.667 932 807 846.667 807 676 c 0
 807 620.667 799 578.667 783 550 c 0
 769.667 526.667 739.333 496.333 692 459 c 1
 764.667 408.333 799 340 795 254 c 2
 793 211 l 1
 793 170 l 2
 793 118 809.333 77.6667 842 49 c 1
 842 -2 l 1
 676 -2 l 1
502 778 m 2
 227 778 l 1
 227 528 l 1
 526 528 l 2
 568 528 597 534.333 613 547 c 0
 629 559.667 640.333 586.333 647 627 c 1
 649 662 l 2
 651.667 710 636 743.333 602 762 c 0
 582.667 772.667 549.333 778 502 778 c 2
EndSplineSet
MinimumDistance: x13,-1 y4,6 y4,5 
EndChar
StartChar: S
Encoding: 83 83
OldEncoding: 83
Width: 786
Flags: W
HStem: -8 147<365 387> 811 141<365 404>
VStem: 72 176<669 702> 543 172<252 293>
Fore
502 8 m 0
 460.667 -2.66667 415.667 -8 367 -8 c 0
 193 -8 82.3333 67 35 217 c 1
 111 240 l 1
 197 264 l 1
 224.333 180.667 287 139 385 139 c 0
 425 139 459.667 147.667 489 165 c 0
 525 185.667 543 214.667 543 252 c 0
 543 300 522.333 335.333 481 358 c 1
 424 379 l 1
 373 391 l 2
 273.667 414.333 203.333 441 162 471 c 0
 102 514.333 72 580.667 72 670 c 0
 72 808 132 896 252 934 c 0
 289.333 946 329.667 952 373 952 c 0
 531 952 634 889.333 682 764 c 1
 539 715 l 1
 527 748.333 511.333 771.333 492 784 c 0
 465.333 802 429.667 811 385 811 c 0
 293.667 811 248 774.667 248 702 c 0
 248 657.333 262.333 626.667 291 610 c 1
 334 594 l 1
 383 582 l 2
 405.667 576.667 448.667 565.667 512 549 c 0
 540 541 571.333 524 606 498 c 0
 678.667 443.333 715 375 715 293 c 0
 715 250.333 706.667 209.333 690 170 c 0
 654 84.6667 591.333 30.6667 502 8 c 0
EndSplineSet
MinimumDistance: x25,-1 
EndChar
StartChar: T
Encoding: 84 84
OldEncoding: 84
Width: 709
Flags: W
HStem: 2 21G<270 430> 795 143<41 270 430 655>
VStem: 270 160<2 795>
Fore
430 795 m 1
 430 2 l 1
 270 2 l 1
 270 795 l 1
 41 795 l 1
 41 938 l 1
 655 938 l 1
 655 795 l 1
 430 795 l 1
EndSplineSet
MinimumDistance: x6,-1 y0,2 y0,1 x3,5 x3,4 x0,6 x0,7 
EndChar
StartChar: U
Encoding: 85 85
OldEncoding: 85
Width: 864
Flags: W
HStem: -8 139<427 461> 914 20G<92 272 614 782>
VStem: 92 182<269 934> 614 168<285 934>
Fore
782 287 m 2
 782 225.667 753.333 158.667 696 86 c 1
 636 23.3333 549.333 -8 436 -8 c 0
 246 -8 136 56.6667 106 186 c 0
 96.6667 226 92 286.333 92 367 c 2
 92 934 l 1
 272 934 l 1
 274 270 l 1
 274 206 302 164.333 358 145 c 0
 385.333 135.667 416.333 131 451 131 c 0
 517 131 562.667 149.333 588 186 c 0
 605.333 211.333 614 256.667 614 322 c 2
 614 934 l 1
 782 934 l 1
 782 287 l 2
EndSplineSet
MinimumDistance: x0,-1 
EndChar
StartChar: V
Encoding: 86 86
OldEncoding: 86
Width: 786
Flags: W
HStem: 0 21G<297 500> 916 20G<41 215>
Fore
500 0 m 1
 297 0 l 1
 41 936 l 1
 215 936 l 1
 406 168 l 1
 594 934 l 1
 745 936 l 1
 500 0 l 1
EndSplineSet
EndChar
StartChar: W
Encoding: 87 87
OldEncoding: 87
Width: 1180
Flags: W
HStem: -2 21G<254 422 750 924> 914 20G<512 567> 916 20G<637 664>
DStem: 512 934 584 670 358 268 422 -2 600 670 672 934 750 -2 827 279 637 936 664 936 567 934 672 934 995 932 1139 934 844 270 924 -2
Fore
924 -2 m 1
 750 -2 l 1
 600 670 l 1
 584 670 l 1
 422 -2 l 1
 254 -2 l 1
 35 932 l 1
 199 932 l 1
 338 270 l 1
 358 268 l 1
 512 934 l 1
 567 934 l 1
 637 936 l 1
 664 936 l 1
 672 934 l 1
 827 279 l 1
 844 270 l 1
 995 932 l 1
 1139 934 l 1
 924 -2 l 1
EndSplineSet
MinimumDistance: x18,-1 
EndChar
StartChar: X
Encoding: 88 88
OldEncoding: 88
Width: 840
Flags: W
HStem: 0 21G<55 227 588 774> 914 20G<582 748> 916 20G<88 274>
DStem: 582 934 748 934 426 629 518 498
Fore
588 0 m 1
 412 358 l 1
 227 0 l 1
 55 0 l 1
 328 485 l 1
 88 936 l 1
 274 936 l 1
 426 629 l 1
 582 934 l 1
 748 934 l 1
 518 498 l 1
 774 0 l 1
 588 0 l 1
EndSplineSet
MinimumDistance: x9,-1 
EndChar
StartChar: Y
Encoding: 89 89
OldEncoding: 89
Width: 786
Flags: W
HStem: 0 21G<313 475> 916 20G<47 236 584 743>
VStem: 313 160<0 377>
DStem: 584 936 743 936 408 559 473 377
Fore
473 377 m 1
 475 0 l 1
 313 0 l 1
 313 397 l 1
 47 936 l 1
 236 936 l 1
 408 559 l 1
 584 936 l 1
 743 936 l 1
 473 377 l 1
EndSplineSet
MinimumDistance: x8,-1 
EndChar
StartChar: Z
Encoding: 90 90
OldEncoding: 90
Width: 864
Flags: W
HStem: -2 135<297 793> 801 133<147 596>
DStem: 596 801 778 801 115 131 297 133
Fore
115 -2 m 1
 115 131 l 1
 596 801 l 1
 147 801 l 1
 147 934 l 1
 778 934 l 1
 778 801 l 1
 297 133 l 1
 793 133 l 1
 793 -2 l 1
 115 -2 l 1
EndSplineSet
MinimumDistance: x5,-1 
EndChar
StartChar: bracketleft
Encoding: 91 91
OldEncoding: 91
Width: 498
Flags: W
HStem: -254 80<236 367> 852 82<236 367>
VStem: 131 105<-175 853>
Fore
131 -254 m 1
 131 934 l 1
 367 934 l 1
 367 852 l 1
 236 852 l 1
 236 -174 l 1
 367 -174 l 1
 367 -254 l 1
 131 -254 l 1
EndSplineSet
MinimumDistance: x2,-1 x5,7 x5,6 x4,2 x4,3 
EndChar
StartChar: backslash
Encoding: 92 92
OldEncoding: 92
Width: 555
Flags: W
Fore
332 4 m 1
 53 940 l 1
 186 938 l 1
 481 2 l 1
 332 4 l 1
EndSplineSet
EndChar
StartChar: bracketright
Encoding: 93 93
OldEncoding: 93
Width: 498
Flags: W
HStem: -268 90<131 262> 844 90<131 262>
VStem: 262 105<-178 844>
Fore
131 -268 m 1
 131 -178 l 1
 262 -178 l 1
 262 844 l 1
 131 844 l 1
 131 934 l 1
 367 934 l 1
 367 -268 l 1
 131 -268 l 1
EndSplineSet
MinimumDistance: x6,-1 x3,5 x3,4 x2,0 x2,1 
EndChar
StartChar: asciicircum
Encoding: 94 94
OldEncoding: 94
Width: 786
Flags: W
HStem: 920 20G<326 455>
DStem: 326 940 391 858 127 381 221 381 391 858 455 940 563 381 657 381
Fore
563 381 m 1
 391 858 l 1
 221 381 l 1
 127 381 l 1
 326 940 l 1
 455 940 l 1
 657 381 l 1
 563 381 l 1
EndSplineSet
MinimumDistance: x6,-1 
EndChar
StartChar: underscore
Encoding: 95 95
OldEncoding: 95
Width: 0
Flags: W
HStem: -145 75<-1151 6>
Fore
-1151 -70 m 1
 6 -70 l 1
 6 -145 l 1
 -1151 -145 l 1
 -1151 -70 l 1
EndSplineSet
EndChar
StartChar: grave
Encoding: 96 96
OldEncoding: 96
Width: 498
Flags: W
Fore
367 827 m 1
 117 924 l 1
 139 1026 l 1
 383 897 l 1
 367 827 l 1
EndSplineSet
EndChar
StartChar: a
Encoding: 97 97
OldEncoding: 97
Width: 717
Flags: W
HStem: -6 21G<250 299> -5.99999 98<298 328> 0 21G<674 698>
VStem: 63 156<173 199> 477 144<281 334 425 496>
Fore
250 -6 m 2
 125.333 -6 63 54 63 174 c 0
 63 248 89.6667 304.667 143 344 c 0
 179.667 371.333 239.333 394 322 412 c 1
 477 426 l 1
 477 483 l 2
 477 495.667 475.667 507.333 473 518 c 1
 473 550 453.333 574.667 414 592 c 0
 396 600 376.667 604 356 604 c 0
 280 604 234.333 572 219 508 c 1
 88 508 l 1
 103.333 637.333 199.667 702 377 702 c 0
 461.667 702 526.333 681 571 639 c 1
 595 620.333 610.667 588.333 618 543 c 0
 620 530.333 621 514 621 494 c 2
 621 166 l 2
 621 134.667 633.667 110.667 659 94 c 1
 698 82 l 1
 698 0 l 1
 674 0 l 1
 596 6 l 1
 572.667 10 556.333 19.6667 547 35 c 2
 520 78 l 1
 514 92 l 1
 481.333 26.6667 409.667 -6 299 -6 c 2
 250 -6 l 2
477 334 m 1
 439 331.333 382.333 321.667 307 305 c 1
 248.333 283 219 247 219 197 c 0
 219 127 254.667 92 326 92 c 0
 378 92 417.333 115 444 161 c 0
 466 198.333 477 245 477 301 c 2
 477 334 l 1
EndSplineSet
MinimumDistance: x14,-1 
EndChar
StartChar: b
Encoding: 98 98
OldEncoding: 98
Width: 723
Flags: W
HStem: -4 92<358 414> 0 21G<84 217> 582 118<362 438> 918 20G<84 227>
VStem: 84 145<251 413 624 938> 532 152<315 365>
Fore
414 -4 m 0
 303.333 -4 237.667 19.3333 217 66 c 1
 217 0 l 1
 84 0 l 1
 84 938 l 1
 227 938 l 1
 227 625 l 1
 236 623 l 1
 258.667 674.333 326 700 438 700 c 0
 521.333 700 585 659.333 629 578 c 0
 665.667 510.667 684 432 684 342 c 0
 684 248 663 169.333 621 106 c 0
 573 32.6667 504 -4 414 -4 c 0
362 582 m 0
 273.333 582 229 517 229 387 c 2
 229 283 l 2
 229 153 272 88 358 88 c 0
 412.667 88 457.333 118.667 492 180 c 0
 518.667 226.667 532 280.667 532 342 c 0
 532 400.667 518.667 453.333 492 500 c 0
 460.667 554.667 417.333 582 362 582 c 0
EndSplineSet
MinimumDistance: x10,-1 
EndChar
StartChar: c
Encoding: 99 99
OldEncoding: 99
Width: 709
Flags: W
HStem: 0 121<364 398> 590 119<371 398>
VStem: 61 170<335 369>
Fore
373 0 m 0
 277 0 200.333 34 143 102 c 0
 88.3333 166 61 246.667 61 344 c 0
 61 447.333 88.3333 532.667 143 600 c 0
 201.667 672.667 281.667 709 383 709 c 0
 533 709 621 629.667 647 471 c 1
 510 471 l 1
 502 550.333 461.667 590 389 590 c 0
 283.667 590 231 515 231 365 c 0
 231 202.333 281.667 121 383 121 c 0
 449.667 121 492.667 162.667 512 246 c 1
 651 244 l 1
 625 81.3333 532.333 -6.93889e-18 373 0 c 0
EndSplineSet
MinimumDistance: x8,-1 
EndChar
StartChar: d
Encoding: 100 100
OldEncoding: 100
Width: 709
Flags: W
HStem: -28 20G<307 336> 0 21G<512 647> 563 135<341 389> 920 20G<504 647>
VStem: 63 154<309 359> 504 143<261 391 612 940>
Fore
512 0 m 1
 514 63 l 1
 500 61 l 1
 478 9.66667 434.333 -14 369 -10 c 2
 336 -8 l 1
 307 -8 l 2
 223.667 -8 160.333 30.3333 117 107 c 0
 81 170.333 63 246.667 63 336 c 0
 63 426 81.6667 505 119 573 c 0
 165 656.333 229 698 311 698 c 2
 342 698 l 2
 383.333 698 415.333 692.167 438 680.5 c 0
 460.667 668.833 483.333 646 506 612 c 1
 504 940 l 1
 647 940 l 1
 647 0 l 1
 512 0 l 1
504 379 m 2
 504 422.333 495.667 461.333 479 496 c 0
 457.667 540.667 427.667 563 389 563 c 0
 331.667 563 287.333 537.333 256 486 c 0
 230 442.667 217 390.667 217 330 c 0
 217 274.667 230 224 256 178 c 0
 286.667 123.333 327.667 96 379 96 c 0
 417 96 449.667 118 477 162 c 1
 495 202.667 504 243.667 504 285 c 2
 504 379 l 2
EndSplineSet
MinimumDistance: x14,-1 
EndChar
StartChar: e
Encoding: 101 101
OldEncoding: 101
Width: 709
Flags: W
HStem: 0 117<360 378> 348 105<221 502> 588 114<341 375>
Fore
213 348 m 1
 215 289 l 1
 219 174.333 271.667 117 373 117 c 0
 442.333 117 484.667 150.333 500 217 c 1
 637 217 l 1
 590.333 72.3333 498.667 -6.93889e-18 362 0 c 0
 264.667 0 188 36.6667 132 110 c 0
 82 176 57 259.333 57 360 c 0
 57 588 152 702 342 702 c 0
 474 702 559.333 661.333 598 580 c 0
 611.333 552 622.333 515 631 469 c 1
 639 348 l 1
 213 348 l 1
369 588 m 0
 280.333 588 231 543 221 453 c 1
 502 453 l 1
 502 543 457.667 588 369 588 c 0
EndSplineSet
EndChar
StartChar: f
Encoding: 102 102
OldEncoding: 102
Width: 393
Flags: W
HStem: 4 21G<115 258> 555 111<37 115 258 377> 932 20G<305 328>
VStem: 115 143<4 555 666 741>
Fore
354 840 m 2
 313.333 842 286 829.333 272 802 c 0
 262.667 783.333 258 751.667 258 707 c 2
 258 666 l 1
 377 666 l 1
 377 555 l 1
 258 555 l 1
 258 4 l 1
 115 4 l 1
 115 555 l 1
 37 555 l 1
 37 666 l 1
 115 666 l 1
 117 788 l 1
 125 836 l 1
 141 870 l 1
 173.667 924.667 228.333 952 305 952 c 2
 328 952 l 1
 393 948 l 1
 393 838 l 1
 354 840 l 2
EndSplineSet
MinimumDistance: x4,-1 y6,8 y6,7 x9,11 x9,10 x3,5 x3,4 
EndChar
StartChar: g
Encoding: 103 103
OldEncoding: 103
Width: 702
Flags: W
HStem: -307 106<323 362> -2 111<296 336> 575 123<314 330> 680 20G<504 627>
VStem: 27 129<316 350> 500 127<300 350 654 686>
Fore
504 614 m 1
 502 655 l 1
 502 686 l 1
 504 700 l 1
 627 700 l 1
 627 137 l 2
 627 -1.66667 614.667 -101.333 590 -162 c 0
 550.667 -258.667 473.333 -307 358 -307 c 0
 166.667 -307 63 -235.333 47 -92 c 2
 45 -74 l 1
 176 -74 l 1
 190 -135 l 1
 198.667 -152.333 216.667 -166.667 244 -178 c 2
 281 -193 l 1
 324 -201 l 1
 348 -201 l 2
 357.333 -201 366.333 -199.667 375 -197 c 1
 411.667 -197 443 -177.667 469 -139 c 1
 478.333 -121.667 486.667 -98 494 -68 c 1
 496 -41 l 1
 494 -8 l 1
 494 39 l 1
 498 53 l 1
 498 58.3333 499.333 62.6667 502 66 c 1
 462 32.6667 414.667 11.3333 360 2 c 0
 344.667 -0.666667 323.667 -2 297 -2 c 0
 281 -2 253 2.66667 213 12 c 0
 196.333 16 176 28.3333 152 49 c 1
 68.6667 102.333 27 196.667 27 332 c 0
 27 434 51.3333 520 100 590 c 0
 112.667 608 136 628.333 170 651 c 0
 217.333 682.333 266.333 698 317 698 c 0
 393.667 698 456 670 504 614 c 1
440 518 m 2
 432 526 l 1
 414.667 552 380.667 568.333 330 575 c 1
 274 575 229.667 548 197 494 c 0
 169.667 448.667 156 396 156 336 c 0
 156 272 169.667 220 197 180 c 0
 229 132.667 275.333 109 336 109 c 0
 445.333 109 500 184 500 334 c 0
 500 416.667 480 478 440 518 c 2
EndSplineSet
MinimumDistance: x4,-1 
EndChar
StartChar: h
Encoding: 104 104
OldEncoding: 104
Width: 709
Flags: W
HStem: -4 21G<86 229 487 631> 557 143<412 463> 914 20G<86 229>
VStem: 86 143<-4 324 589 934> 487 144<-4 469>
Fore
487 -4 m 1
 489 451 l 1
 489 521.667 463.333 557 412 557 c 0
 381.333 557 351 548.667 321 532 c 0
 289 514.667 266.667 493 254 467 c 1
 233 397 l 1
 229 324 l 1
 229 -4 l 1
 86 -4 l 1
 86 934 l 1
 229 934 l 1
 229 590 l 1
 233 584 l 1
 259 661.333 335.667 700 463 700 c 0
 519.667 700 565.333 675.667 600 627 c 0
 613.333 608.333 622.333 587 627 563 c 1
 631 506 l 1
 631 -4 l 1
 487 -4 l 1
EndSplineSet
MinimumDistance: x16,-1 
EndChar
StartChar: i
Encoding: 105 105
OldEncoding: 105
Width: 340
Flags: W
HStem: -2 21G<96 240> 678 20G<96 240> 793 139<96 240>
VStem: 96 144<-2 698 793 932>
Fore
96 793 m 1
 96 932 l 1
 240 932 l 1
 240 793 l 1
 96 793 l 1
96 -2 m 1
 96 698 l 1
 240 698 l 1
 240 -2 l 1
 96 -2 l 1
EndSplineSet
MinimumDistance: x2,-1 
EndChar
StartChar: j
Encoding: 106 106
OldEncoding: 106
Width: 340
Flags: W
HStem: 678 20G<96 240> 791 141<88 240>
VStem: 96 137<-105 698>
DStem: 96 698 240 698 96 -33 233 -104
Fore
88 791 m 1
 88 932 l 1
 240 932 l 1
 240 791 l 1
 88 791 l 1
233 -104 m 2
 232.333 -180.667 206.667 -231.333 156 -256 c 0
 138.667 -264.667 105.667 -270.667 57 -274 c 2
 -10 -279 l 1
 -31 -276 l 1
 -31 -160 l 1
 -10 -162 l 2
 60.6667 -168.667 96 -125.667 96 -33 c 2
 96 698 l 1
 240 698 l 1
 233 -104 l 2
EndSplineSet
MinimumDistance: x2,-1 
EndChar
StartChar: k
Encoding: 107 107
OldEncoding: 107
Width: 733
Flags: W
HStem: 0 21G<98 242 530 690> 678 20G<518 672> 920 20G<98 242>
VStem: 98 144<0 163 352 940>
DStem: 379 346 489 473 530 0 690 0 518 698 672 698 348 479 489 473
Fore
530 0 m 1
 379 346 l 1
 242 162 l 1
 242 0 l 1
 98 0 l 1
 98 940 l 1
 242 940 l 1
 242 352 l 1
 348 479 l 1
 518 698 l 1
 672 698 l 1
 489 473 l 1
 690 0 l 1
 530 0 l 1
EndSplineSet
MinimumDistance: x12,-1 
EndChar
StartChar: l
Encoding: 108 108
OldEncoding: 108
Width: 340
Flags: W
HStem: 4 21G<96 240> 920 20G<96 240>
VStem: 96 144<4 940>
Fore
96 4 m 1
 96 940 l 1
 240 940 l 1
 240 4 l 1
 96 4 l 1
EndSplineSet
MinimumDistance: x2,-1 
EndChar
StartChar: m
Encoding: 109 109
OldEncoding: 109
Width: 1075
Flags: W
HStem: 0 21G<88 231 465 608 842 985> 580 118<365 418 733 797>
VStem: 88 143<0 334> 465 143<0 334 366 433> 842 143<0 499>
Fore
842 0 m 1
 842 483 l 2
 842 546.333 805.667 578 733 578 c 0
 687 578 646.667 540.333 612 465 c 0
 608 456.333 606 437.333 606 408 c 2
 606 367 l 1
 608 334 l 1
 608 0 l 1
 465 0 l 1
 465 461 l 2
 465 540.333 431.667 580 365 580 c 0
 313 580 272.667 542.333 244 467 c 1
 233 408 l 1
 231 334 l 1
 231 0 l 1
 88 0 l 1
 88 698 l 1
 223 698 l 1
 223 610 l 1
 225 600 l 1
 248.333 640.667 275 668 305 682 c 0
 328.333 692.667 366 698 418 698 c 0
 447.333 698 476.833 686 506.5 662 c 0
 536.167 638 555 611.333 563 582 c 1
 589.667 629.333 621.667 661.333 659 678 c 0
 689 691.333 735 698 797 698 c 0
 857 698 909.333 673 954 623 c 0
 962.667 613 969 596.333 973 573 c 1
 985 498 l 1
 985 0 l 1
 842 0 l 1
EndSplineSet
MinimumDistance: x28,-1 
EndChar
StartChar: n
Encoding: 110 110
OldEncoding: 110
Width: 709
Flags: W
HStem: 0 21G<90 233 475 618> 571 127<376 410>
VStem: 90 143<0 356 592 698> 475 143<0 430>
Fore
475 0 m 1
 475 426 l 2
 475 490 463.333 531.667 440 551 c 1
 426.667 564.333 405.667 571 377 571 c 0
 325.667 571 286.667 544 260 490 c 0
 249.333 469.333 242 447.333 238 424 c 1
 233 356 l 1
 233 0 l 1
 90 0 l 1
 90 698 l 1
 231 698 l 1
 231 592 l 1
 280.333 662.667 340 698 410 698 c 2
 444 698 l 2
 506 698 553.333 675 586 629 c 0
 601.333 607 610 579.667 612 547 c 1
 618 430 l 1
 618 0 l 1
 475 0 l 1
EndSplineSet
MinimumDistance: x16,-1 
EndChar
StartChar: o
Encoding: 111 111
OldEncoding: 111
Width: 717
Flags: W
HStem: -4 104<340 374> 592 110<340 360>
VStem: 53 158<331 381> 504 158<315 365>
Fore
352 -4 m 0
 257.333 -4 182.667 32 128 104 c 0
 78 169.333 53 250.667 53 348 c 0
 53 447.333 77.3333 529.333 126 594 c 0
 180.667 666 256 702 352 702 c 0
 451.333 702 529 666 585 594 c 0
 636.333 528 662 444 662 342 c 0
 662 245.333 635 164.667 581 100 c 0
 523 30.6667 446.667 -4 352 -4 c 0
471 514 m 1
 465.667 537.333 450.333 556.667 425 572 c 0
 402.333 585.333 378 592 352 592 c 0
 258 592 211 518.333 211 371 c 0
 211 190.333 260 100 358 100 c 0
 455.333 100 504 180 504 340 c 0
 504 394.667 493 452.667 471 514 c 1
EndSplineSet
MinimumDistance: x6,-1 
EndChar
StartChar: p
Encoding: 112 112
OldEncoding: 112
Width: 717
Flags: W
HStem: -240 21G<72 215> -6 106<343 362> 578 127<352 418> 678 20G<72 203>
VStem: 72 143<-240 51 228 389> 508 154<315 369>
Fore
397 -6 m 2
 360 -6 l 2
 294.667 -6 252.333 13.6667 233 53 c 1
 215 51 l 1
 215 -240 l 1
 72 -240 l 1
 72 698 l 1
 203 698 l 1
 203 623 l 1
 201 586 l 1
 243 665.333 315.333 705 418 705 c 0
 500 705 563.333 663.333 608 580 c 0
 644 513.333 662 434.667 662 344 c 0
 662 255.333 640.667 177.667 598 111 c 0
 548 33 481 -6 397 -6 c 2
352 578 m 0
 303.333 578 266.667 554 242 506 c 1
 221 446 l 1
 215 389 l 1
 215 317 l 1
 217 229 l 1
 219.667 213.667 228 193.333 242 168 c 0
 267.333 122.667 302.667 100 348 100 c 0
 400 100 441 128.667 471 186 c 0
 495.667 233.333 508 285.333 508 342 c 0
 508 399.333 496.333 450 473 494 c 0
 443.667 550 403.333 578 352 578 c 0
EndSplineSet
MinimumDistance: x12,-1 
EndChar
StartChar: q
Encoding: 113 113
OldEncoding: 113
Width: 709
Flags: W
HStem: -240 21G<500 643> 582 116<318 369>
VStem: 45 154<319 369> 500 143<-240 61> 504 139<287 433>
Fore
643 -240 m 1
 500 -240 l 1
 500 61 l 1
 480.667 33.6667 452.667 14 416 2 c 1
 324 -6 l 2
 239.333 -13.3333 169 24 113 106 c 0
 67.6667 172.667 45 252.667 45 346 c 0
 45 442.667 66 522.667 108 586 c 0
 156.667 660.667 227 698 319 698 c 0
 371.667 698 409.333 693.333 432 684 c 0
 463.333 671.333 489.333 645.333 510 606 c 1
 510 698 l 1
 535 700 l 1
 643 696 l 1
 643 -240 l 1
504 410 m 2
 504 455.333 493 494 471 526 c 0
 446.333 563.333 412.333 582 369 582 c 0
 313 582 269.333 554.667 238 500 c 0
 212 454.667 199 403.333 199 346 c 2
 199 303 l 2
 199 219.667 224 161 274 127 c 1
 301.333 113 327.333 106 352 106 c 0
 397.333 106 434.667 127.667 464 171 c 0
 490.667 209 504 251.667 504 299 c 2
 504 410 l 2
EndSplineSet
MinimumDistance: x0,-1 
EndChar
StartChar: r
Encoding: 114 114
OldEncoding: 114
Width: 463
Flags: W
HStem: 0 21G<66 207> 557 143<401 426>
VStem: 66 141<0 369 608 700>
Fore
207 608 m 1
 250.333 669.333 298.667 700 352 700 c 2
 426 700 l 1
 426 557 l 1
 396 557 374 555.667 360 553 c 1
 258 546.333 207 475.333 207 340 c 2
 207 0 l 1
 66 0 l 1
 66 700 l 1
 207 700 l 1
 207 608 l 1
EndSplineSet
MinimumDistance: x0,-1 
EndChar
StartChar: s
Encoding: 115 115
OldEncoding: 115
Width: 645
Flags: W
HStem: -14 114<330 358> 586 121<298 332>
VStem: 43 127<225 246> 61 142<504 514> 449 131<467.125 486.142>
Fore
479 16 m 0
 437 -4 395.333 -14 354 -14 c 0
 248.667 -14 173 2.33333 127 35 c 0
 71 74.3333 43 144.667 43 246 c 1
 170 246 l 1
 170 148.667 232.667 100 358 100 c 1
 436 108.667 475 141 475 197 c 0
 475 232.333 456.667 255.333 420 266 c 0
 342.667 288.667 264.667 318 186 354 c 0
 163.333 364 135.333 379 102 399 c 1
 74.6667 422.333 61 458 61 506 c 0
 61 574.667 87.6667 626.667 141 662 c 0
 186.333 692 245 707 317 707 c 0
 492.333 707 580 627 580 467 c 1
 449 467 l 1
 449 546.333 401.667 586 307 586 c 0
 243 586 208.333 562 203 514 c 1
 203 493.333 216 476.333 242 463 c 1
 422 401 l 2
 510 371 565.333 335 588 293 c 0
 601.333 268.333 608 241.667 608 213 c 0
 608 122.333 565 56.6667 479 16 c 0
EndSplineSet
MinimumDistance: x13,-1 
EndChar
StartChar: t
Encoding: 116 116
OldEncoding: 116
Width: 498
Flags: W
HStem: 582 114<31 139 283 426> 698 21G<283 430> 914 20G<147 283>
VStem: 139 144<232 582> 145 138<697 934>
Fore
442 14 m 1
 381 6 l 1
 340 4 l 2
 232 -1.33333 167.667 37 147 119 c 1
 139 233 l 1
 139 582 l 1
 31 582 l 1
 31 696 l 1
 145 696 l 1
 147 934 l 1
 283 934 l 1
 283 698 l 1
 430 698 l 1
 426 582 l 1
 283 582 l 1
 283 264 l 2
 283 211.333 287 176.667 295 160 c 0
 308.333 132.667 337 119 381 119 c 1
 403 121 l 1
 436 123 l 1
 436 -8 l 1
 453 18 l 1
 442 14 l 1
EndSplineSet
MinimumDistance: x10,-1 x9,11 y11,9 y11,10 x5,7 x5,6 
EndChar
StartChar: u
Encoding: 117 117
OldEncoding: 117
Width: 709
Flags: W
HStem: -2 21G<483 612> 9.53674e-06 133<266 338> 676 20G<96 240 469 612>
VStem: 96 144<237 696> 469 143<329 696>
Fore
483 -2 m 1
 483 92 l 1
 455 92 l 1
 415.667 30.6667 352.667 1.73472e-18 266 0 c 0
 199.333 0 153.667 23.3333 129 70 c 0
 117 92.6667 107.333 116.333 100 141 c 1
 96 225 l 1
 96 696 l 1
 240 696 l 1
 240 262 l 2
 240 176 272.667 133 338 133 c 0
 364.667 133 388.667 141.333 410 158 c 0
 426.667 170.667 442.333 193 457 225 c 1
 467 272 l 1
 469 330 l 1
 469 696 l 1
 612 696 l 1
 612 -2 l 1
 483 -2 l 1
EndSplineSet
MinimumDistance: x16,-1 
EndChar
StartChar: v
Encoding: 118 118
OldEncoding: 118
Width: 627
Flags: W
HStem: 0 21G<248 395> 678 20G<37 190 459 606>
DStem: 37 698 190 698 248 0 332 227
Fore
395 0 m 1
 248 0 l 1
 37 698 l 1
 190 698 l 1
 332 227 l 1
 459 698 l 1
 606 698 l 1
 395 0 l 1
EndSplineSet
MinimumDistance: x4,-1 
EndChar
StartChar: w
Encoding: 119 119
OldEncoding: 119
Width: 971
Flags: W
HStem: 2 21G<612 748> 678 20G<803 934> 680 20G<35 188> 698 21G<504 565>
DStem: 418 700 485 500 309 219 369 2 496 500 565 698 612 2 682 219
Fore
748 2 m 1
 612 2 l 1
 496 500 l 1
 485 500 l 1
 369 2 l 1
 223 4 l 1
 35 700 l 1
 188 700 l 1
 301 217 l 1
 309 219 l 1
 418 700 l 1
 504 698 l 1
 565 698 l 1
 682 219 l 1
 688 217 l 1
 803 698 l 1
 934 698 l 1
 748 2 l 1
EndSplineSet
MinimumDistance: x13,-1 
EndChar
StartChar: x
Encoding: 120 120
OldEncoding: 120
Width: 709
Flags: W
HStem: 0 21G<66 217 471 637> 678 20G<86 252 463 606>
Fore
471 0 m 1
 346 246 l 1
 217 0 l 1
 66 0 l 1
 272 360 l 1
 182 530 l 1
 86 698 l 1
 252 698 l 1
 356 481 l 1
 463 698 l 1
 606 698 l 1
 428 375 l 1
 637 0 l 1
 471 0 l 1
EndSplineSet
EndChar
StartChar: y
Encoding: 121 121
OldEncoding: 121
Width: 629
Flags: W
HStem: 678 20G<51 205 473 600>
Fore
373 -70 m 2
 355.667 -129.333 328.333 -175.667 291 -209 c 0
 261 -235.667 212.333 -251.333 145 -256 c 2
 57 -262 l 1
 59 -125 l 1
 86 -127 l 1
 109 -127 l 2
 157.667 -127 194 -114.333 218 -89 c 0
 236.667 -69 252.667 -33.3333 266 18 c 1
 51 698 l 1
 205 698 l 1
 338 201 l 1
 473 698 l 1
 600 698 l 1
 373 -70 l 2
EndSplineSet
EndChar
StartChar: z
Encoding: 122 122
OldEncoding: 122
Width: 551
Flags: W
HStem: 0 117<172 506> 586 112<55 348>
Fore
31 0 m 1
 31 137 l 1
 348 586 l 1
 55 586 l 1
 55 698 l 1
 492 698 l 1
 492 594 l 1
 172 117 l 1
 506 117 l 1
 506 0 l 1
 31 0 l 1
EndSplineSet
EndChar
StartChar: braceleft
Encoding: 123 123
OldEncoding: 123
Width: 498
Flags: W
HStem: -244 76<377 408> 319 70<90.0626 109.943> 862 76<377 408>
VStem: 197 102<-92 221 475 786>
Fore
322 -244 m 2
 286.667 -244 256.667 -226.667 232 -192 c 0
 208.667 -160.667 197 -126.667 197 -90 c 2
 197 215 l 2
 197 284.333 161.333 319 90 319 c 1
 90 389 l 1
 161.333 389 197 419 197 479 c 2
 197 784 l 2
 197 822 206.333 853.667 225 879 c 0
 254.333 918.333 286.667 938 322 938 c 2
 408 938 l 1
 408 862 l 1
 385 862 l 2
 327.667 862 299 830 299 766 c 2
 299 483 l 2
 299 419 257.333 379.667 174 365 c 1
 174 340 l 1
 257.333 340 299 297.667 299 213 c 2
 299 -72 l 2
 299 -100.667 302.333 -121 309 -133 c 0
 322.333 -156.333 347.667 -168 385 -168 c 2
 408 -168 l 1
 408 -244 l 1
 322 -244 l 2
EndSplineSet
MinimumDistance: x10,-1 x13,10 x13,11 x3,5 x3,4 
EndChar
StartChar: bar
Encoding: 124 124
OldEncoding: 124
Width: 393
Flags: W
HStem: 4 21G<143 250> 920 20G<143 250>
VStem: 143 107<4 940>
Fore
143 4 m 1
 143 940 l 1
 250 940 l 1
 250 4 l 1
 143 4 l 1
EndSplineSet
MinimumDistance: x2,-1 
EndChar
StartChar: braceright
Encoding: 125 125
OldEncoding: 125
Width: 498
Flags: W
HStem: -248 21G<90 176> 315 70<393 408> 914 20G<90 176>
VStem: 199 102<-96 217 471 782>
Fore
301 211 m 2
 301 -94 l 2
 301 -130.667 291.333 -162 272 -188 c 0
 242 -228 210 -248 176 -248 c 2
 90 -248 l 1
 90 -172 l 1
 115 -172 l 2
 171 -172 199 -140 199 -76 c 2
 199 209 l 2
 199 292.333 239 334 319 334 c 1
 319 362 l 1
 283.667 362 254.833 372.667 232.5 394 c 0
 210.167 415.333 199 443.667 199 479 c 2
 199 762 l 2
 199 790.667 195.333 811 188 823 c 0
 174 846.333 149.667 858 115 858 c 2
 90 858 l 1
 90 934 l 1
 176 934 l 2
 211.333 934 241.333 916.667 266 882 c 0
 289.333 850.667 301 816.667 301 780 c 2
 301 475 l 2
 301 446.333 313.333 422.333 338 403 c 1
 357.333 391 380.667 385 408 385 c 1
 408 315 l 1
 336.667 315 301 280.333 301 211 c 2
EndSplineSet
MinimumDistance: x23,-1 y4,6 x7,4 x7,5 x0,23 x0,24 
EndChar
StartChar: asciitilde
Encoding: 126 126
OldEncoding: 126
Width: 786
Flags: W
VStem: 608 115<496 522>
Fore
461 324 m 2
 340 397 l 2
 292.667 425.667 256.333 440 231 440 c 0
 199.667 440 183.333 421.667 182 385 c 1
 180 338 l 1
 61 338 l 1
 61 408 81 469.333 121 522 c 0
 143.667 552 174.333 567 213 567 c 0
 261.667 567 320.333 544 389 498 c 2
 473 442 l 2
 505.667 420 534.333 408.667 559 408 c 0
 591.667 406.667 608 444.667 608 522 c 1
 723 522 l 1
 723 470.667 714 425 696 385 c 0
 668.667 323.667 624.333 293 563 293 c 0
 529 293 495 303.333 461 324 c 2
EndSplineSet
MinimumDistance: x12,-1 
EndChar
StartChar: uniF700
Encoding: 128 63232
OldEncoding: 63232
Width: 819
Flags: W
HStem: 408 92<231 251> 664 100<643 665>
VStem: 102 93<347 368>
DStem: 565 385 715 365 551 139 702 178
Fore
788 711 m 1
 743.333 679.667 695.667 664 645 664 c 0
 613.667 664 555 674.667 469 696 c 0
 423 707.333 386 713 358 713 c 0
 320 713 290.667 702 270 680 c 1
 260 662 l 1
 311 662 l 1
 329 657.333 342 654.333 350 653 c 1
 384.667 653 432.333 642.333 493 621 c 0
 550.333 601 595 580.333 627 559 c 0
 685.667 519.667 715 467.667 715 403 c 2
 715 365 l 1
 702 178 l 2
 696.667 102 663.333 48.6667 602 18 c 1
 547 2 l 1
 481 -4 l 1
 396.333 -4 337 20.6667 303 70 c 0
 291 88 283 113.667 279 147 c 1
 270 227 l 1
 240 223 l 1
 200 223 167 236.167 141 262.5 c 0
 115 288.833 102 322 102 362 c 0
 102 403.333 116.167 436.667 144.5 462 c 0
 172.833 487.333 208 500 250 500 c 1
 270 498 l 2
 360 488.667 408 432.667 414 330 c 1
 424 154 l 1
 426 115.333 446.333 96 485 96 c 0
 527.667 96 549.667 110.333 551 139 c 1
 565 385 l 2
 570.333 478.333 479 538.333 291 565 c 2
 88 594 l 1
 92 649.333 123.333 701.333 182 750 c 0
 210.667 774 257.333 791.667 322 803 c 0
 343.333 807 361 808.333 375 807 c 2
 446 801 l 1
 549 780 l 2
 601 769.333 637.667 764 659 764 c 0
 685 764 706.333 769.333 723 780 c 1
 741 799 l 1
 788 711 l 1
242 408 m 0
 210.667 408 195 391.333 195 358 c 0
 195 328 210.667 312.333 242 311 c 0
 274.667 309.667 291 325.333 291 358 c 0
 291 391.333 274.667 408 242 408 c 0
EndSplineSet
MinimumDistance: x10,-1 
EndChar
StartChar: uniF701
Encoding: 129 63233
OldEncoding: 63233
Width: 0
Flags: W
HStem: 969 80<-704 -654> 1143 88<-688 -654>
Fore
-664 1231 m 0
 -552.667 1231 -463.667 1179 -397 1075 c 0
 -349.667 1001 -326 930 -326 862 c 1
 -356 885.333 -384.667 903 -412 915 c 0
 -492.667 951 -582.667 969 -682 969 c 0
 -807.333 969 -910.333 953.333 -991 922 c 1
 -991 1013.33 -959 1088 -895 1146 c 0
 -833 1202.67 -756 1231 -664 1231 c 0
-664 1143 m 0
 -726 1143 -774.333 1125.33 -809 1090 c 0
 -817.667 1080.67 -828.667 1062 -842 1034 c 1
 -815 1038 l 2
 -765.667 1045.33 -718 1049 -672 1049 c 0
 -612.667 1049 -556.667 1040 -504 1022 c 2
 -469 1010 l 1
 -508.333 1098.67 -573.333 1143 -664 1143 c 0
EndSplineSet
EndChar
StartChar: uniF702
Encoding: 130 63234
OldEncoding: 63234
Width: 0
Flags: W
HStem: 942 80<-696 -646> 1116 88<-661.938 -646>
Fore
-983 895 m 1
 -983 967 -960.833 1030.33 -916.5 1085 c 0
 -872.167 1139.67 -815 1176 -745 1194 c 1
 -662 1204 l 1
 -598.667 1204 -542 1189 -492 1159 c 1
 -492 1260 l 1
 -338 1260 l 1
 -338 948 l 1
 -328 897 l 1
 -317 836 l 1
 -350.333 860.667 -379 878.333 -403 889 c 0
 -481.667 924.333 -571.333 942 -672 942 c 0
 -798.667 942 -902.333 926.333 -983 895 c 1
-655 1116 m 0
 -717 1116 -765.667 1098.33 -801 1063 c 0
 -810.333 1053.67 -821.333 1035.33 -834 1008 c 1
 -807 1012 l 2
 -761.667 1018.67 -714 1022 -664 1022 c 0
 -604.667 1022 -548.667 1013 -496 995 c 2
 -461 983 l 1
 -500.333 1071.67 -565 1116 -655 1116 c 0
EndSplineSet
EndChar
StartChar: uniF703
Encoding: 131 63235
OldEncoding: 63235
Width: 0
Flags: W
HStem: 920 79<-741 -675> 1094 88<-713 -675> 1206 64<-475 -469>
Fore
-1012 893 m 1
 -1012 997.667 -965.333 1079 -872 1137 c 0
 -824 1167 -766 1182 -698 1182 c 0
 -657.333 1182 -624.667 1177 -600 1167 c 1
 -594 1194 l 1
 -586 1213.33 -569.667 1232.33 -545 1251 c 1
 -531 1259.67 -518.667 1264.67 -508 1266 c 2
 -475 1270 l 1
 -437 1270 -404.333 1259 -377 1237 c 0
 -347 1213.67 -332 1183.67 -332 1147 c 1
 -338 1104 l 2
 -344 1062.67 -370 1030.67 -416 1008 c 1
 -395 967 l 1
 -377 926 l 1
 -365 901 l 1
 -360 850 l 1
 -406 870 l 2
 -482.667 903.333 -584.333 920 -711 920 c 0
 -813.667 920 -888.667 915.667 -936 907 c 2
 -1012 893 l 1
-692 1094 m 0
 -756 1094 -805.333 1076 -840 1040 c 0
 -849.333 1030.67 -860 1012.33 -872 985 c 1
 -846 989 l 2
 -802.667 995.667 -754 999 -700 999 c 0
 -642.667 999 -595.667 993 -559 981 c 2
 -498 961 l 1
 -537.333 1049.67 -602 1094 -692 1094 c 0
-467 1073 m 1
 -446.333 1073 -430 1079.33 -418 1092 c 1
 -410 1102.67 -404.333 1118.33 -401 1139 c 1
 -401 1153.67 -407.333 1169.33 -420 1186 c 1
 -430.667 1196.67 -447 1203.33 -469 1206 c 1
 -513 1206 -535 1184.33 -535 1141 c 0
 -535 1101 -512.333 1078.33 -467 1073 c 1
EndSplineSet
EndChar
StartChar: uniF704
Encoding: 132 63236
OldEncoding: 63236
Width: 0
Flags: W
HStem: 950 80<-710 -660> 1124 146<-676 -660>
Fore
-997 903 m 1
 -985 975 l 1
 -951.667 1099 -876.667 1175.33 -760 1204 c 1
 -676 1212 l 1
 -676 1270 l 1
 -553 1270 l 1
 -553 1190 l 1
 -516 1169 l 1
 -475 1141 l 1
 -475 1270 l 1
 -342 1270 l 1
 -342 913 l 1
 -332 844 l 1
 -365.333 868.667 -394 886.333 -418 897 c 0
 -496.667 932.333 -586 950 -686 950 c 0
 -812.667 950 -916.333 934.333 -997 903 c 1
-670 1124 m 0
 -731.333 1124 -779.667 1106.33 -815 1071 c 0
 -824.333 1061.67 -835.333 1043.33 -848 1016 c 1
 -821 1020 l 2
 -775.667 1026.67 -727.333 1030 -676 1030 c 0
 -617.333 1030 -570.333 1024 -535 1012 c 2
 -473 991 l 1
 -512.333 1079.67 -578 1124 -670 1124 c 0
EndSplineSet
EndChar
StartChar: ellipsis
Encoding: 133 8230
OldEncoding: 8230
Width: 854
Flags: W
VStem: 66 180<79 97> 348 178<79 97> 631 178<79 97>
Fore
156 178 m 0
 216 178 246 148 246 88 c 0
 246 63.3333 237.167 42.5 219.5 25.5 c 0
 201.833 8.5 180.667 0 156 0 c 0
 96 0 66 29.3333 66 88 c 0
 66 148 96 178 156 178 c 0
436 178 m 0
 496 178 526 148 526 88 c 0
 526 29.3333 496 -1.73472e-18 436 0 c 0
 377.333 0 348 29.3333 348 88 c 0
 348 148 377.333 178 436 178 c 0
719 178 m 0
 779 178 809 148 809 88 c 0
 809 63.3333 800.167 42.5 782.5 25.5 c 0
 764.833 8.5 743.667 0 719 0 c 0
 660.333 0 631 29.3333 631 88 c 0
 631 148 660.333 178 719 178 c 0
EndSplineSet
MinimumDistance: x10,-1 
EndChar
StartChar: uniF705
Encoding: 134 63237
OldEncoding: 63237
Width: 0
Flags: W
VStem: -537 158<893 1233>
Fore
-537 893 m 1
 -537 1233 l 1
 -379 1233 l 1
 -379 893 l 1
 -537 893 l 1
EndSplineSet
MinimumDistance: x2,-1 
EndChar
StartChar: uniF706
Encoding: 135 63238
OldEncoding: 63238
Width: 0
Flags: W
HStem: 1200 66<-655 -637>
VStem: -766 72<1133 1147>
Fore
-653 1012 m 2
 -649 1024 l 1
 -700.333 1024 -735.333 1044.33 -754 1085 c 0
 -762 1102.33 -766 1120.33 -766 1139 c 0
 -766 1175 -755.333 1205.17 -734 1229.5 c 0
 -712.667 1253.83 -684.333 1266 -649 1266 c 0
 -558.333 1266 -510 1230.33 -504 1159 c 2
 -502 1135 l 2
 -500 1111 -504.333 1084.33 -515 1055 c 0
 -526.333 1023.67 -541 1001.67 -559 989 c 1
 -500 1001 l 1
 -436 1026 l 1
 -408 1040 -389.667 1051 -381 1059 c 2
 -334 1100 l 2
 -304.667 1126 -280 1155.33 -260 1188 c 2
 -233 1233 l 1
 -233 1049 l 1
 -246.333 1035.67 -263.667 1021.33 -285 1006 c 0
 -370.333 944.667 -461.667 911 -559 905 c 2
 -690 897 l 1
 -729 897 l 1
 -748 899 l 1
 -725 913 l 2
 -692.333 933 -668.333 966 -653 1012 c 2
-639 1090 m 0
 -605 1090 -588 1107.67 -588 1143 c 0
 -588 1181 -606.333 1200 -643 1200 c 0
 -671.667 1200 -688.667 1182.33 -694 1147 c 1
 -694 1109 -675.667 1090 -639 1090 c 0
EndSplineSet
MinimumDistance: x26,-1 
EndChar
StartChar: uniF707
Encoding: 136 63239
OldEncoding: 63239
Width: 0
Flags: W
HStem: 895 47<-696 -676> 1149 84<-678.921 -670 -510 -477>
VStem: -643 51<987.063 999.431> -455 93<1066 1096>
Fore
-715 1114 m 0
 -719 1106 -721 1095.67 -721 1083 c 2
 -721 1067 l 1
 -709 1071 l 1
 -678 1075 l 1
 -620.667 1075 -592 1045.67 -592 987 c 0
 -592 961 -600.5 939.167 -617.5 921.5 c 0
 -634.5 903.833 -656 895 -682 895 c 0
 -743.333 895 -783.667 931.333 -803 1004 c 1
 -807 1053 l 1
 -809.667 1089.67 -801.333 1127.67 -782 1167 c 0
 -764.667 1201 -739 1222.33 -705 1231 c 1
 -680 1233 l 2
 -653.333 1235 -628.667 1227.33 -606 1210 c 1
 -582 1186 l 1
 -551 1208 l 2
 -527.667 1224.67 -503 1233 -477 1233 c 0
 -443.667 1233 -416.667 1222.17 -396 1200.5 c 0
 -375.333 1178.83 -365 1151.33 -365 1118 c 1
 -362 1106 l 1
 -362 1096 l 2
 -362 1068 -367.667 1042 -379 1018 c 2
 -387 1001 l 1
 -355.667 1012.33 -328.333 1041 -305 1087 c 0
 -294.333 1108.33 -285.667 1131 -279 1155 c 1
 -272 1225 l 1
 -166 1169 l 1
 -174 1135 -183.667 1109.33 -195 1092 c 1
 -239.667 1001.33 -319.333 942.333 -434 915 c 1
 -541 901 l 1
 -506 930 l 1
 -482.667 956 -467.667 983.333 -461 1012 c 1
 -455 1067 l 1
 -455 1120.33 -473.333 1147 -510 1147 c 0
 -524 1147 -543 1139.33 -567 1124 c 2
 -586 1112 l 1
 -610 1130 l 1
 -630.667 1142.67 -650.667 1149 -670 1149 c 0
 -688 1149 -703 1137.33 -715 1114 c 0
-688 942 m 0
 -672 942 -660.333 947.333 -653 958 c 1
 -643 987 l 1
 -643 1017 -658 1032 -688 1032 c 0
 -711.333 1032 -726.333 1017 -733 987 c 1
 -733 957 -718 942 -688 942 c 0
EndSplineSet
MinimumDistance: x19,-1 
EndChar
StartChar: uniF708
Encoding: 137 63240
OldEncoding: 63240
Width: 0
Flags: W
HStem: 1053 110<-782 -625 -475 -315>
VStem: -625 150<907 1052 1163 1311>
Fore
-625 1311 m 1
 -475 1311 l 1
 -475 1163 l 1
 -315 1163 l 1
 -315 1053 l 1
 -475 1053 l 1
 -475 907 l 1
 -625 907 l 1
 -625 1053 l 1
 -782 1053 l 1
 -782 1163 l 1
 -625 1163 l 1
 -625 1311 l 1
EndSplineSet
MinimumDistance: x3,-1 y5,7 y5,6 y2,0 y2,1 x8,10 x8,9 x2,4 x2,3 
EndChar
StartChar: uniF709
Encoding: 138 63241
OldEncoding: 63241
Width: 0
Flags: W
HStem: 1069 57<-537 -522>
Fore
-457 1167 m 0
 -491.667 1167 -515.333 1157.67 -528 1139 c 2
 -537 1126 l 1
 -513 1126 -491.667 1121.33 -473 1112 c 0
 -429.667 1090.67 -408 1052.33 -408 997 c 0
 -408 965.667 -420.667 940.5 -446 921.5 c 0
 -471.333 902.5 -500 893 -532 893 c 0
 -573.333 893 -606 906.833 -630 934.5 c 0
 -654 962.167 -666 996.667 -666 1038 c 0
 -666 1102.67 -642 1152 -594 1186 c 0
 -576 1198.67 -540 1212.33 -486 1227 c 0
 -436.667 1240.33 -403 1254 -385 1268 c 1
 -374.333 1274.67 -364.667 1293 -356 1323 c 1
 -352 1360 l 1
 -240 1360 l 1
 -240 1347.33 -241.333 1337.67 -244 1331 c 1
 -259.333 1221.67 -330.333 1167 -457 1167 c 0
-524 952 m 1
 -505.333 952 -490.333 957 -479 967 c 1
 -472.333 976.333 -467.667 990.667 -465 1010 c 1
 -465 1049.33 -484.667 1069 -524 1069 c 0
 -561.333 1069 -580.667 1049.33 -582 1010 c 0
 -583.333 976.667 -564 957.333 -524 952 c 1
EndSplineSet
EndChar
StartChar: uniF70A
Encoding: 139 63242
OldEncoding: 63242
Width: 0
Flags: W
VStem: -270 157<913 1253>
Fore
-270 913 m 1
 -270 1253 l 1
 -113 1253 l 1
 -113 913 l 1
 -270 913 l 1
EndSplineSet
MinimumDistance: x2,-1 
EndChar
StartChar: uniF70B
Encoding: 140 63243
OldEncoding: 63243
Width: 0
Flags: W
HStem: 1264 77<-481 -461>
VStem: -610 82<1192 1210>
Fore
-479 1042 m 2
 -475 1057 l 1
 -529.667 1057 -570 1081.33 -596 1130 c 1
 -605.333 1154.67 -610 1176.67 -610 1196 c 0
 -610 1236.67 -597.5 1271 -572.5 1299 c 0
 -547.5 1327 -515 1341 -475 1341 c 0
 -377 1341 -319.667 1299.67 -303 1217 c 1
 -301 1184 l 1
 -296.333 1112 -317.667 1056 -365 1016 c 1
 -309.667 1022.67 -263 1037 -225 1059 c 2
 -158 1098 l 1
 -102 1147 l 2
 -68.6667 1176.33 -40 1211.67 -16 1253 c 2
 14 1305 l 1
 14 1087 l 1
 -45 1036 l 2
 -85 1001.33 -141.667 972.667 -215 950 c 0
 -311.667 920 -411.333 905 -514 905 c 2
 -553 905 l 1
 -588 909 l 1
 -561 926 l 2
 -520.333 952 -493 990.667 -479 1042 c 2
-463 1135 m 0
 -420.333 1133.67 -399 1154 -399 1196 c 0
 -399 1241.33 -421.667 1264 -467 1264 c 0
 -507.667 1264 -528 1243.33 -528 1202 c 0
 -528 1158.67 -506.333 1136.33 -463 1135 c 0
EndSplineSet
MinimumDistance: x24,-1 
EndChar
StartChar: uniF70C
Encoding: 141 63244
OldEncoding: 63244
Width: 0
Flags: W
HStem: 905 53<-512.932 -487> 1200 103<-295 -252> 1204 99<-485 -468>
VStem: -446 59<1000 1018>
Fore
-535 1163 m 1
 -541 1130 l 1
 -541 1108 l 1
 -526 1114 l 1
 -489 1120 l 1
 -471 1120 -454.667 1116 -440 1108 c 0
 -404.667 1088.67 -387 1057.33 -387 1014 c 0
 -387 941.333 -424.667 905 -500 905 c 0
 -554.667 905 -596.333 931.667 -625 985 c 0
 -638.333 1009.67 -645 1044.67 -645 1090 c 0
 -645 1136.67 -636 1179 -618 1217 c 0
 -595.333 1265.67 -563.333 1292.67 -522 1298 c 2
 -485 1303 l 1
 -456.333 1303 -429 1294 -403 1276 c 1
 -395 1272 -386.333 1262.33 -377 1247 c 1
 -367 1257 -355.333 1266 -342 1274 c 0
 -309.333 1293.33 -279.333 1303 -252 1303 c 0
 -213.333 1303 -181.833 1289.5 -157.5 1262.5 c 0
 -133.167 1235.5 -121 1202.33 -121 1163 c 1
 -119 1143 l 1
 -119 1116.33 -123.667 1089.67 -133 1063 c 0
 -137 1051.67 -142.667 1040.67 -150 1030 c 1
 -100 1067 l 1
 -86.6667 1080.33 -71 1101.33 -53 1130 c 1
 -41 1156 -31 1183.33 -23 1212 c 1
 -12 1290 l 1
 113 1229 l 1
 101 1188.33 89.3333 1157 78 1135 c 0
 21.3333 1026.33 -76.3333 956.667 -215 926 c 0
 -261 916 -298.667 911 -328 911 c 1
 -280 933 -247.667 982.333 -231 1059 c 1
 -227 1106 l 2
 -221.667 1168.67 -244.333 1200 -295 1200 c 0
 -317.667 1200 -340 1191.33 -362 1174 c 2
 -381 1159 l 1
 -410 1182 l 1
 -432.667 1196.67 -455.667 1204 -479 1204 c 0
 -503.667 1204 -522.333 1190.33 -535 1163 c 1
-500 958 m 0
 -464 958 -446 976 -446 1012 c 0
 -446 1047.33 -464 1065 -500 1065 c 0
 -528.667 1065 -545.667 1047.33 -551 1012 c 1
 -551 976 -534 958 -500 958 c 0
EndSplineSet
MinimumDistance: x6,-1 
EndChar
StartChar: uniF70D
Encoding: 142 63245
OldEncoding: 63245
Width: 0
Flags: W
HStem: 1079 131<-459 -272 -115 72>
VStem: -272 157<911 1079 1210 1380>
Fore
-272 1380 m 1
 -115 1380 l 1
 -115 1210 l 1
 72 1210 l 1
 72 1079 l 1
 -115 1079 l 1
 -115 911 l 1
 -272 911 l 1
 -272 1079 l 1
 -459 1079 l 1
 -459 1210 l 1
 -272 1210 l 1
 -272 1380 l 1
EndSplineSet
MinimumDistance: y5,7 y5,6 y2,0 y2,1 x8,10 x8,9 x2,4 x2,3 
EndChar
StartChar: uniF70E
Encoding: 143 63246
OldEncoding: 63246
Width: 0
Flags: W
HStem: 893 63<-264 -248>
VStem: -410 95<1021 1057>
Fore
-174 1196 m 0
 -220.667 1196 -250 1181 -262 1151 c 1
 -227.333 1147 -203.333 1141.67 -190 1135 c 0
 -142.667 1112.33 -119 1070.67 -119 1010 c 0
 -119 974 -132.5 945.5 -159.5 924.5 c 0
 -186.5 903.5 -218.667 893 -256 893 c 0
 -301.333 893 -338.333 908.833 -367 940.5 c 0
 -395.667 972.167 -410 1011 -410 1057 c 0
 -410 1126.33 -382.667 1179.67 -328 1217 c 0
 -306.667 1231.67 -268 1246.33 -212 1261 c 0
 -158 1275.67 -119.333 1291.67 -96 1309 c 0
 -82.6667 1319 -71.6667 1339.33 -63 1370 c 1
 -59 1411 l 1
 68 1411 l 1
 59 1360 l 2
 53 1324.67 40 1296 20 1274 c 0
 -26.6667 1222 -91.3333 1196 -174 1196 c 0
-250 956 m 0
 -224.667 956 -206.667 964.333 -196 981 c 0
 -190 991 -186 1004.67 -184 1022 c 1
 -184 1060 -206 1081.67 -250 1087 c 1
 -293.333 1087 -315 1065.33 -315 1022 c 0
 -315 978 -293.333 956 -250 956 c 0
EndSplineSet
MinimumDistance: x20,-1 
EndChar
StartChar: uniF70F
Encoding: 144 63247
OldEncoding: 63247
Width: 1169
Flags: W
HStem: -2 78<296 319> 0 104<537 590 747 844> 692 109<410 444> 775 20G<901 1059>
VStem: 139 135<129 174> 590 158<104 553> 901 158<142 795>
Fore
1059 162 m 2
 1059 102.667 1034.33 54 985 16 c 1
 971.667 8 952.667 2.66667 928 0 c 1
 537 0 l 1
 537 104 l 1
 590 104 l 1
 590 532 l 2
 590 638.667 536.667 692 430 692 c 0
 386.667 692 347.667 684.667 313 670 c 1
 272 645 l 1
 344 598 l 2
 348.667 595.333 367 579 399 549 c 2
 412 537 l 1
 385 524 l 2
 335 500 305.667 448.333 297 369 c 1
 297 270 l 1
 319 270 333.333 268.667 340 266 c 1
 404 251.333 436 213.333 436 152 c 0
 436 49.3333 389.667 -2 297 -2 c 0
 191.667 -2 139 56.6667 139 174 c 2
 139 369 l 1
 145 422 l 1
 155 464 181 498 223 524 c 1
 238 530 l 1
 215 551 l 1
 154 594 l 1
 59 643 l 1
 109 712.333 195.667 760.667 319 788 c 0
 358.333 796.667 394 801 426 801 c 0
 518.667 801 593 782.667 649 746 c 0
 715 702.667 748 637 748 549 c 2
 748 104 l 1
 840 104 l 2
 871.333 104 891.667 117 901 143 c 1
 901 795 l 1
 1059 795 l 1
 1059 162 l 2
317 182 m 0
 288.333 183.333 274 165.667 274 129 c 0
 274 93.6667 288.333 76 317 76 c 0
 349 76 365 93.6667 365 129 c 0
 365 163 349 180.667 317 182 c 0
EndSplineSet
MinimumDistance: x0,-1 x5,3 x5,4 
EndChar
StartChar: quoteleft
Encoding: 145 8216
OldEncoding: 8216
Width: 395
Flags: W
Fore
172 827 m 1
 166 793 l 1
 190 797 l 1
 218 797 240.833 787.833 258.5 769.5 c 0
 276.167 751.167 285 728 285 700 c 0
 285 652.667 267 623.333 231 612 c 2
 205 604 l 1
 178 602 l 2
 144.667 599.333 119 612 101 640 c 0
 85.6667 663.333 78 692.333 78 727 c 0
 78 787 94.1667 838.833 126.5 882.5 c 0
 158.833 926.167 204 954.333 262 967 c 1
 262 913 l 1
 218.667 905 188.667 876.333 172 827 c 1
EndSplineSet
EndChar
StartChar: quoteright
Encoding: 146 8217
OldEncoding: 8217
Width: 375
Flags: W
Fore
184 719 m 0
 193.333 729.667 201 747.333 207 772 c 2
 211 788 l 1
 186 784 l 1
 160 784 137.833 793.333 119.5 812 c 0
 101.167 830.667 92 853 92 879 c 0
 92 925 109 955 143 969 c 0
 153 973 171.667 976.333 199 979 c 1
 267 979 301 939.333 301 860 c 0
 301 728 238.333 646 113 614 c 1
 113 668 l 1
 134.333 672 158 689 184 719 c 0
EndSplineSet
EndChar
StartChar: quotedblleft
Encoding: 147 8220
OldEncoding: 8220
Width: 651
Flags: W
HStem: 918 71<264 279 549 563>
Fore
184 815 m 1
 186 795 l 1
 213 793 l 1
 255 781.667 279.667 754.333 287 711 c 0
 292.333 677.667 285.333 650.5 266 629.5 c 0
 246.667 608.5 220 598 186 598 c 0
 115.333 598 80 641 80 727 c 1
 84 766 l 1
 90.6667 828 112.667 882.667 150 930 c 0
 181.333 969.333 224.333 989 279 989 c 1
 279 918 l 1
 265 918 249.667 915.667 233 911 c 0
 200.333 901.667 184 869.667 184 815 c 1
483 874 m 1
 469 817 l 1
 471 797 l 1
 500 793 l 1
 539.333 783 563 755.667 571 711 c 0
 577 679 570.333 652.167 551 630.5 c 0
 531.667 608.833 505.667 598 473 598 c 0
 397.667 598 362.333 641.667 367 729 c 2
 369 766 l 1
 395 914.667 459.667 989 563 989 c 1
 563 918 l 1
 525 918 498.333 903.333 483 874 c 1
EndSplineSet
EndChar
StartChar: quotedblright
Encoding: 148 8221
OldEncoding: 8221
Width: 659
Flags: W
HStem: 600 72<106.063 124.471 393.063 406.428>
Fore
487 774 m 1
 485 795 l 1
 459 797 l 1
 417 807.667 392.333 835 385 879 c 0
 379.667 911.667 386.667 938.5 406 959.5 c 0
 425.333 980.5 451.667 991 485 991 c 0
 556.333 991 592 948 592 862 c 1
 588 823 l 2
 582 762.333 563.333 711.667 532 671 c 0
 496 623.667 449.667 600 393 600 c 1
 393 672 l 1
 404.333 672 419.333 674.667 438 680 c 0
 470.667 689.333 487 720.667 487 774 c 1
188 715 m 1
 203 772 l 1
 201 793 l 1
 172 797 l 1
 132 806.333 108 833.667 100 879 c 0
 94.6667 911 101.667 937.667 121 959 c 0
 140.333 980.333 166.333 991 199 991 c 0
 269.667 991 305 948.667 305 864 c 2
 305 844 l 1
 301 823 l 2
 286.333 747.667 266.667 694.667 242 664 c 0
 207.333 621.333 162 600 106 600 c 1
 106 672 l 1
 148.667 672 176 686.333 188 715 c 1
EndSplineSet
EndChar
StartChar: bullet
Encoding: 149 8226
OldEncoding: 8226
Width: 711
Flags: W
Fore
375 584 m 0
 442.333 584 496.667 563.167 538 521.5 c 0
 579.333 479.833 600 425.333 600 358 c 0
 600 290.667 579.333 236.333 538 195 c 0
 496.667 153.667 442.333 133 375 133 c 0
 307 133 252.833 153.5 212.5 194.5 c 0
 172.167 235.5 152 290 152 358 c 0
 152 426 172.333 480.667 213 522 c 0
 253.667 563.333 307.667 584 375 584 c 0
EndSplineSet
EndChar
StartChar: endash
Encoding: 150 8211
OldEncoding: 8211
Width: 889
Flags: W
HStem: 332 129<63 813>
Fore
813 332 m 1
 63 332 l 1
 63 461 l 1
 813 461 l 1
 813 332 l 1
EndSplineSet
EndChar
StartChar: emdash
Encoding: 151 8212
OldEncoding: 8212
Width: 1411
Flags: W
HStem: 332 129<66 1343>
Fore
1346 332 m 1
 66 332 l 1
 66 461 l 1
 1346 461 l 1
 1343 432 l 1
 1343 367 l 1
 1346 332 l 1
EndSplineSet
EndChar
StartChar: uniF710
Encoding: 152 63248
OldEncoding: 63248
Width: 0
Flags: W
HStem: 1165 74<-551 -545>
VStem: -692 84<1090 1108>
Fore
12 1053 m 1
 -47 1008 l 2
 -96.3333 970 -155.667 945.333 -225 934 c 2
 -309 920 l 1
 -397 915 l 2
 -465 911 -525.333 919.333 -578 940 c 0
 -654 970 -692 1022 -692 1096 c 0
 -692 1138.67 -678.5 1173.17 -651.5 1199.5 c 0
 -624.5 1225.83 -589.667 1239 -547 1239 c 0
 -465 1239 -417 1202 -403 1128 c 1
 -401 1102 l 1
 -399 1080 -404.667 1058 -418 1036 c 1
 -436 1012 l 1
 -344 1016 l 2
 -315.333 1017.33 -275.667 1027.67 -225 1047 c 0
 -127 1084.33 -58 1129.33 -18 1182 c 2
 12 1221 l 1
 12 1053 l 1
-485 1106 m 0
 -485 1140 -505 1159.67 -545 1165 c 1
 -587 1165 -608 1144 -608 1102 c 0
 -608 1064 -588.333 1044 -549 1042 c 0
 -529.667 1041.33 -512.667 1049.67 -498 1067 c 0
 -489.333 1077.67 -485 1090.67 -485 1106 c 0
EndSplineSet
MinimumDistance: x19,-1 
EndChar
StartChar: uniF711
Encoding: 153 63249
OldEncoding: 63249
Width: 0
Flags: W
HStem: 930 88<-537 -519> 1171 93<-537 -519>
Fore
-528 1264 m 0
 -478.667 1264 -438.333 1248.33 -407 1217 c 0
 -375.667 1185.67 -360 1145.33 -360 1096 c 0
 -360 1046.67 -375.667 1006.67 -407 976 c 0
 -438.333 945.333 -478.667 930 -528 930 c 0
 -576.667 930 -616.833 945.5 -648.5 976.5 c 0
 -680.167 1007.5 -696 1047.33 -696 1096 c 0
 -696 1145.33 -680.333 1185.67 -649 1217 c 0
 -617.667 1248.33 -577.333 1264 -528 1264 c 0
-528 1018 m 0
 -478 1018 -452.333 1043.33 -451 1094 c 0
 -449 1145.33 -474.667 1171 -528 1171 c 0
 -573.333 1171 -598.667 1145.33 -604 1094 c 1
 -604 1043.33 -578.667 1018 -528 1018 c 0
EndSplineSet
EndChar
StartChar: uniF712
Encoding: 154 63250
OldEncoding: 63250
Width: 0
Flags: W
HStem: 922 75<-453 -443> 1077 74<-453 -443>
VStem: -860 106<1111 1135> -414 62<1034.03 1049>
DStem: -649 1321 -649 1321 -688 1319 -578 1319
Fore
-268 1417 m 1
 -268 1385 -272.333 1355.67 -281 1329 c 0
 -302.333 1263 -341 1228.33 -397 1225 c 2
 -463 1221 l 1
 -664 1237 l 2
 -692 1239 -714.667 1226.67 -732 1200 c 0
 -746.667 1177.33 -754 1151.33 -754 1122 c 0
 -754 1102 -747 1084.33 -733 1069 c 1
 -713 1055 l 1
 -707.667 1097 -689.667 1122 -659 1130 c 0
 -628.333 1138 -599 1127.33 -571 1098 c 2
 -549 1075 l 1
 -541 1098 l 1
 -521.667 1133.33 -491.667 1151 -451 1151 c 0
 -420.333 1151 -395.667 1139 -377 1115 c 0
 -360.333 1092.33 -352 1065.33 -352 1034 c 1
 -354 1016 l 1
 -354 989.333 -363.5 967 -382.5 949 c 0
 -401.5 931 -424.333 922 -451 922 c 0
 -481.667 922 -515.333 937 -552 967 c 0
 -594 1001 -619.667 1019.33 -629 1022 c 1
 -653.667 1022 -668.667 998.667 -674 952 c 1
 -674 930 l 1
 -672 920 l 1
 -759.333 920 -816 954.667 -842 1024 c 0
 -854 1056 -860 1088 -860 1120 c 0
 -860 1216 -819.667 1279.67 -739 1311 c 1
 -688 1319 l 1
 -649 1321 l 1
 -578 1319 l 2
 -550.667 1318.33 -526.667 1317 -506 1315 c 1
 -430 1321 l 1
 -410.667 1325 -398.333 1338 -393 1360 c 1
 -387 1417 l 1
 -268 1417 l 1
-449 1077 m 0
 -473 1077 -485 1062.67 -485 1034 c 0
 -485 1009.33 -473 997 -449 997 c 0
 -425.667 997 -414 1010 -414 1036 c 0
 -414 1063.33 -425.667 1077 -449 1077 c 0
EndSplineSet
MinimumDistance: x15,-1 
EndChar
StartChar: uniF713
Encoding: 155 63251
OldEncoding: 63251
Width: 0
Flags: W
VStem: -500 158<1335 1606>
Fore
-500 1335 m 1
 -500 1606 l 1
 -342 1606 l 1
 -342 1335 l 1
 -500 1335 l 1
EndSplineSet
MinimumDistance: x2,-1 
EndChar
StartChar: uniF714
Encoding: 156 63252
OldEncoding: 63252
Width: 0
Flags: W
VStem: -584 68<1522 1542>
Fore
-502 1362 m 1
 -477 1399 l 1
 -471 1411 l 1
 -519 1411 -552.333 1431.67 -571 1473 c 0
 -579.667 1492.33 -584 1509.33 -584 1524 c 0
 -584 1558 -573.5 1587 -552.5 1611 c 0
 -531.5 1635 -504.333 1647 -471 1647 c 0
 -387.667 1647 -340 1612 -328 1542 c 1
 -326 1516 l 2
 -322 1462 -340.333 1420.33 -381 1391 c 1
 -333 1397 -275.667 1418.67 -209 1456 c 1
 -160 1499 l 2
 -131.333 1524.33 -104 1559.33 -78 1604 c 2
 -63 1630 l 1
 -63 1452 l 1
 -90 1427 l 2
 -128 1391.67 -183.333 1362.33 -256 1339 c 1
 -379 1313 l 1
 -510 1305 l 1
 -565 1307 l 1
 -545 1321 l 1
 -535 1326.33 -520.667 1340 -502 1362 c 1
-461 1475 m 1
 -427 1475 -410 1492 -410 1526 c 0
 -410 1561.33 -428.333 1579.67 -465 1581 c 0
 -499 1582.33 -516 1565.33 -516 1530 c 0
 -516 1510.67 -508.667 1495.67 -494 1485 c 0
 -488.667 1481 -477.667 1477.67 -461 1475 c 1
EndSplineSet
MinimumDistance: x24,-1 
EndChar
StartChar: uniF715
Encoding: 157 63253
OldEncoding: 63253
Width: 0
Flags: W
HStem: 1321 47<-536 -514> 1575 82<-516 -502 -350 -315>
VStem: -481 51<1411.03 1418>
Fore
-555 1540 m 1
 -561 1507 l 1
 -561 1493 l 1
 -549 1497 l 1
 -516 1501 l 1
 -500 1501 -485.667 1497.67 -473 1491 c 1
 -444.333 1481.67 -430 1455.67 -430 1413 c 0
 -430 1351.67 -460.667 1321 -522 1321 c 0
 -605.333 1321 -647 1373.67 -647 1479 c 0
 -647 1513 -641 1546.33 -629 1579 c 0
 -612.333 1623.67 -590.333 1647.67 -563 1651 c 2
 -516 1657 l 1
 -486 1657 -458.667 1646.67 -434 1626 c 1
 -422 1612 l 1
 -391 1634 l 2
 -367.667 1650.67 -342.333 1659 -315 1659 c 0
 -240.333 1659 -203 1622.67 -203 1550 c 0
 -203 1514.67 -207 1485.33 -215 1462 c 2
 -227 1427 l 1
 -213.667 1431.67 -199.333 1440.67 -184 1454 c 1
 -147 1503 l 1
 -121 1573 l 1
 -114.333 1604.33 -111 1630.33 -111 1651 c 1
 -4 1595 l 1
 -18 1548 l 2
 -38.6667 1478 -84.6667 1423.33 -156 1384 c 0
 -204.667 1357.33 -257.667 1340.33 -315 1333 c 2
 -379 1325 l 1
 -363.667 1329 -346.667 1343.33 -328 1368 c 1
 -315.333 1388.67 -305.667 1413.33 -299 1442 c 1
 -295 1493 l 1
 -291 1546.33 -309.333 1573 -350 1573 c 0
 -363.333 1573 -379 1567.33 -397 1556 c 2
 -426 1538 l 1
 -449 1556 l 2
 -465 1568.67 -484.667 1575 -508 1575 c 0
 -527.333 1575 -543 1563.33 -555 1540 c 1
-526 1368 m 0
 -510 1368 -498.667 1373.33 -492 1384 c 1
 -481 1411 l 1
 -481 1441 -496 1456 -526 1456 c 0
 -549.333 1456 -564.333 1441 -571 1411 c 1
 -571 1382.33 -556 1368 -526 1368 c 0
EndSplineSet
MinimumDistance: x6,-1 
EndChar
StartChar: uniF716
Encoding: 158 63254
OldEncoding: 63254
Width: 0
Flags: W
HStem: 1434 92<-623 -487 -337 -201>
VStem: -489 151<1331 1434 1526 1634>
Fore
-489 1634 m 1
 -338 1634 l 1
 -336 1526 l 1
 -201 1526 l 1
 -201 1434 l 1
 -336 1434 l 1
 -338 1331 l 1
 -489 1331 l 1
 -487 1434 l 1
 -623 1434 l 1
 -623 1526 l 1
 -487 1526 l 1
 -489 1634 l 1
EndSplineSet
MinimumDistance: x1,-1 
EndChar
StartChar: uniF717
Encoding: 159 63255
OldEncoding: 63255
Width: 0
Flags: W
VStem: -322 56<1275 1292>
Fore
-313 1438 m 1
 -354.333 1438 -379 1425.67 -387 1401 c 1
 -360.333 1397 -340.667 1392 -328 1386 c 0
 -286.667 1365.33 -266 1330 -266 1280 c 0
 -266 1250 -278.667 1225.33 -304 1206 c 0
 -326.667 1188.67 -353.667 1180 -385 1180 c 0
 -423 1180 -453.667 1193.17 -477 1219.5 c 0
 -500.333 1245.83 -512 1278.33 -512 1317 c 0
 -512 1403.67 -463 1461.67 -365 1491 c 0
 -307.667 1508.33 -275.333 1518.67 -268 1522 c 0
 -238.667 1537.33 -222.333 1563 -219 1599 c 2
 -217 1622 l 1
 -106 1622 l 1
 -115 1577 l 2
 -130.333 1500.33 -196.333 1454 -313 1438 c 1
-377 1235 m 0
 -340.333 1233.67 -322 1252 -322 1290 c 0
 -322 1328.67 -340.333 1348 -377 1348 c 0
 -412.333 1348 -430.667 1328.67 -432 1290 c 0
 -433.333 1254.67 -415 1236.33 -377 1235 c 0
EndSplineSet
MinimumDistance: x3,-1 
EndChar
StartChar: uni0E01
Encoding: 161 3585
OldEncoding: 3585
Width: 901
Flags: W
HStem: 0 21G<156 311 633 791> 700 99<426 477>
VStem: 156 155<0 369> 633 158<0 561>
Fore
156 0 m 1
 156 369 l 1
 162 422 l 1
 171.333 464 197.333 498 240 524 c 1
 254 530 l 1
 231 551 l 2
 213 567.667 193.333 581.333 172 592 c 2
 115 621 l 1
 76 639 l 1
 99.3333 671 137.333 701.667 190 731 c 0
 270 776.333 356.333 799 449 799 c 0
 542.333 799 619.333 781 680 745 c 0
 754 701.667 791 636.333 791 549 c 2
 791 0 l 1
 633 0 l 1
 633 547 l 2
 633 649 573 700 453 700 c 0
 407.667 700 367.333 691.333 332 674 c 1
 318 670 303.667 660.333 289 645 c 1
 360 598 l 2
 374 588.667 392.667 572.333 416 549 c 2
 428 537 l 1
 401 524 l 1
 356.333 496.667 328.333 462 317 420 c 1
 311 369 l 1
 311 0 l 1
 156 0 l 1
EndSplineSet
MinimumDistance: x12,-1 
EndChar
StartChar: uni0E02
Encoding: 162 3586
OldEncoding: 3586
Width: 881
Flags: W
HStem: 0 104<160 254 412 551> 457 94<182 192> 709 90<262.031 291> 775 20G<618 774>
VStem: 39 102<590 610> 254 158<104 309> 391 127<575 602> 618 156<162.434 795>
Fore
774 178 m 2
 774 93.3333 742 38.6667 678 14 c 0
 653.333 4.66667 627.333 4.33681e-19 600 0 c 2
 160 0 l 1
 160 104 l 1
 254 104 l 1
 254 299 l 2
 254 329 265 358.333 287 387 c 2
 354 475 l 2
 378.667 507.667 391 542.667 391 580 c 0
 391 650.667 364.333 692.333 311 705 c 0
 299.667 707.667 283.333 709 262 709 c 1
 288 696.333 307 670.333 319 631 c 1
 326 592 l 1
 326 550.667 313.333 517.833 288 493.5 c 0
 262.667 469.167 229.333 457 188 457 c 0
 88.6667 457 39 507.333 39 608 c 0
 39 650 54 690.333 84 729 c 0
 114 767.667 149.333 789 190 793 c 2
 252 799 l 1
 276 799 l 2
 390 799 466 756 504 670 c 0
 513.333 648.667 518 624.667 518 598 c 0
 518 551.333 507.667 510.333 487 475 c 2
 430 377 l 2
 418 356.333 412 333 412 307 c 2
 412 104 l 1
 549 104 l 2
 595 104 618 129.333 618 180 c 2
 618 795 l 1
 774 795 l 1
 774 178 l 2
186 551 m 0
 219.333 551 236 569.333 236 606 c 0
 236 638.667 220 655 188 655 c 0
 156.667 655 141 636.667 141 600 c 0
 141 567.333 156 551 186 551 c 0
EndSplineSet
MinimumDistance: x0,-1 y27,30 y27,29 x5,3 x5,4 
EndChar
StartChar: uni0E03
Encoding: 163 3587
OldEncoding: 3587
Width: 895
Flags: W
HStem: 0 104<176 273 430 553> 385 84<133 152> 694 103<174 192> 775 20G<621 776>
VStem: 8 92<522 551> 188 80<511 529> 272 158<104 305> 414 129<599 635> 621 155<160 795>
Fore
776 160 m 2
 776 82.6667 738 32 662 8 c 1
 578 0 l 1
 176 0 l 1
 176 104 l 1
 272 104 l 1
 272 295 l 2
 272 323.667 284.333 357 309 395 c 2
 387 516 l 2
 405 544 414 572 414 600 c 0
 414 635.333 401.667 658 377 668 c 1
 357 670.667 335.667 659 313 633 c 2
 295 612 l 1
 283 635 l 1
 251.667 674.333 218 694 182 694 c 0
 168.667 694 158 690 150 682 c 1
 133 649 l 1
 131 643 l 1
 162 641 l 2
 173.333 640.333 182.667 639 190 637 c 0
 242 617.667 268 578 268 518 c 0
 268 495.333 262 472.333 250 449 c 0
 228 406.333 192.333 385 143 385 c 0
 92.3333 385 55 407.667 31 453 c 0
 15.6667 482.333 8 515 8 551 c 0
 8 581.667 9.33333 601.333 12 610 c 2
 35 682 l 2
 45 714 63.3333 741.167 90 763.5 c 0
 116.667 785.833 146 797 178 797 c 0
 208 797 237.333 785.333 266 762 c 1
 301 725 l 1
 352 774 l 1
 370 786.667 389.333 794.333 410 797 c 1
 445.333 797 476.667 778.333 504 741 c 0
 530 707 543 671.667 543 635 c 0
 543 562.333 525 498.667 489 444 c 0
 449.667 384 430 331.667 430 287 c 2
 430 104 l 1
 547 104 l 2
 596.333 104 621 128 621 176 c 2
 621 795 l 1
 776 795 l 1
 776 160 l 2
188 520 m 0
 188 555.333 173 573 143 573 c 0
 114.333 573 100 556 100 522 c 0
 100 486.667 115 469 145 469 c 0
 173.667 469 188 486 188 520 c 0
EndSplineSet
MinimumDistance: x0,-1 y38,41 y38,40 x5,3 x5,4 
EndChar
StartChar: uni0E04
Encoding: 164 3588
OldEncoding: 3588
Width: 938
Flags: W
HStem: 0 21G<197 356 672 827> 276 89<459 475> 465 88<459 479> 682 117<429 479>
VStem: 94 144<495 510> 672 155<0 512>
Fore
827 0 m 1
 672 0 l 1
 672 500 l 2
 672 570 652.667 619 614 647 c 0
 581.333 670.333 528.333 682 455 682 c 0
 322.333 682 250 624.667 238 510 c 1
 238 477.333 242.667 428 252 362 c 0
 262.667 286 273.667 240.333 285 225 c 1
 295 322 l 1
 306.333 429.333 336.333 499.333 385 532 c 0
 406.333 546 435.667 553 473 553 c 0
 544.333 553 589.333 516 608 442 c 1
 612 410 l 1
 612 344.667 583.333 303 526 285 c 1
 475 276 l 1
 453 276 432.667 280.333 414 289 c 2
 401 295 l 1
 395 264 l 1
 373 168 l 1
 362 90 l 1
 356 0 l 1
 197 0 l 1
 197 72 l 1
 190.333 109.333 180 149.667 166 193 c 2
 121 330 l 2
 103 384.667 94 444 94 508 c 0
 94 605.333 132 680 208 732 c 0
 273.333 776.667 357 799 459 799 c 0
 704.333 799 827 702 827 508 c 2
 827 0 l 1
473 465 m 0
 439 465 422 448 422 414 c 0
 422 381.333 439 365 473 365 c 0
 505.667 365 522 381.333 522 414 c 0
 522 448 505.667 465 473 465 c 0
EndSplineSet
MinimumDistance: x0,-1 
EndChar
StartChar: uni0E05
Encoding: 165 3589
OldEncoding: 3589
Width: 934
Flags: W
HStem: 0 21G<182 340 659 817> 434 90<451 467>
VStem: 659 158<0 561>
Fore
817 0 m 1
 659 0 l 1
 659 545 l 2
 659 583.667 652.333 612.333 639 631 c 1
 625.667 655.667 608.667 668 588 668 c 0
 582.667 668 577 667.333 571 666 c 1
 453 604 l 1
 328 664 l 2
 314 670.667 297.333 664.333 278 645 c 0
 262 629.667 250.667 613.333 244 596 c 1
 233.333 576.667 227 550 225 516 c 2
 223 483 l 2
 221 448.333 227.333 396 242 326 c 0
 254.667 265.333 264 231.667 270 225 c 1
 283 307 l 2
 297.667 400.333 323.333 462.667 360 494 c 0
 383.333 514 416.333 524 459 524 c 0
 488.333 524 516.333 516 543 500 c 0
 571.667 482 588.667 459.333 594 432 c 1
 598 383 l 2
 602.667 325.667 574 283.333 512 256 c 1
 485 248 l 1
 457 246 l 2
 441.667 244.667 422.333 248 399 256 c 2
 387 260 l 1
 365 170 l 1
 344 63 l 1
 340 0 l 1
 182 0 l 1
 182 33 l 1
 176 109 l 1
 175.333 113.667 174 126.333 172 147 c 1
 168 157.667 162.667 173 156 193 c 2
 109 328 l 2
 91 380 82 439.333 82 506 c 0
 82 612 121 693.333 199 750 c 0
 247.667 785.333 285 803 311 803 c 0
 317.667 803 323.333 801.667 328 799 c 2
 453 723 l 1
 584 799 l 1
 604.667 807 636.667 799.333 680 776 c 0
 716.667 756.667 744 736.333 762 715 c 0
 798.667 672.333 817 617 817 549 c 2
 817 0 l 1
463 434 m 0
 430.333 434 414 417 414 383 c 0
 414 350.333 430.333 334 463 334 c 0
 495.667 334 512 350.333 512 383 c 0
 512 417 495.667 434 463 434 c 0
EndSplineSet
MinimumDistance: x0,-1 
EndChar
StartChar: uni0E06
Encoding: 166 3590
OldEncoding: 3590
Width: 1026
Flags: W
HStem: 385 82<146 168> 694 103<185 203> 775 20G<752 907>
VStem: 23 92<519 549> 201 82<505 522> 752 155<185 795>
Fore
907 119 m 2
 907 55 877.667 15.3333 819 0 c 1
 786 -4 l 1
 747.333 -4 714 11.6667 686 43 c 2
 625 111 l 1
 553 184 l 1
 526 207 l 1
 526 131 l 2
 526 39.6667 471.333 -6 362 -6 c 0
 282 -6 227.667 28 199 96 c 1
 189 130 184 157.333 184 178 c 0
 184 274.667 226.333 337 311 365 c 1
 369 375 l 1
 369 469 l 2
 369 485.667 377.667 509.667 395 541 c 1
 414 584 l 1
 418 616 l 1
 418 642 409 659.333 391 668 c 1
 377.667 670.667 359.333 662.333 336 643 c 1
 307 612 l 1
 295 635 l 1
 266.333 674.333 233.667 694 197 694 c 0
 183 694 172 690 164 682 c 1
 147 649 l 1
 145 643 l 1
 166 645 l 1
 200 645 228 632.5 250 607.5 c 0
 272 582.5 283 552.667 283 518 c 0
 283 496 276.667 473 264 449 c 0
 241.333 406.333 206 385 158 385 c 0
 68 385 23 439.667 23 549 c 0
 23 581 24.3333 601.333 27 610 c 2
 49 682 l 2
 58.3333 713.333 76.6667 740.333 104 763 c 0
 131.333 785.667 161 797 193 797 c 0
 223 797 252.333 785.333 281 762 c 1
 315 725 l 1
 348 760 l 2
 371.333 784.667 396.667 797 424 797 c 0
 460 797 491.667 778 519 740 c 0
 544.333 704.667 557 668.333 557 631 c 1
 537 535 l 1
 526 465 l 1
 526 344 l 1
 569 322 l 1
 623 285 l 1
 727 190 l 1
 748 174 l 1
 752 186 l 1
 752 795 l 1
 907 795 l 1
 907 119 l 2
369 143 m 1
 369 264 l 1
 361.667 265.333 355.333 266 350 266 c 0
 326.667 266 309.667 250.333 299 219 c 1
 295 172 l 2
 291 125.333 308.667 102 348 102 c 0
 354.667 102 360.333 102.667 365 104 c 2
 367 106 l 1
 369 143 l 1
201 518 m 0
 201 553.333 186.667 571 158 571 c 0
 129.333 571 115 554 115 520 c 0
 115 484.667 129.333 467 158 467 c 0
 186.667 467 201 484 201 518 c 0
EndSplineSet
MinimumDistance: x0,-1 
EndChar
StartChar: uni0E07
Encoding: 167 3591
OldEncoding: 3591
Width: 682
Flags: W
HStem: -4 119<334.101 352> 506 94<382 394> 705 94<376 394>
VStem: 401 158<187 506> 434 125<614 651>
Fore
559 203 m 2
 559 123.667 530.333 65 473 27 c 0
 442.333 6.33333 401.333 -4 350 -4 c 0
 256 -4 196 30 170 98 c 2
 100 283 l 1
 90.6667 297.667 78.3333 308.333 63 315 c 1
 25 324 l 1
 25 461 l 1
 51 463 l 2
 102.333 467 144 448.667 176 408 c 0
 191.333 388.667 216.667 328.333 252 227 c 0
 278 152.333 308.667 115 344 115 c 0
 382 115 401 141.667 401 195 c 2
 401 506 l 1
 383 506 l 1
 345.667 510 318.333 517.333 301 528 c 0
 257.667 554 236 595 236 651 c 1
 240 690 l 1
 256 762.667 303.667 799 383 799 c 0
 500.333 799 559 737.333 559 614 c 2
 559 203 l 2
434 651 m 0
 434 687 417 705 383 705 c 0
 347.667 705 330 688.333 330 655 c 0
 330 618.333 347.667 600 383 600 c 0
 417 600 434 617 434 651 c 0
EndSplineSet
MinimumDistance: x0,-1 
EndChar
StartChar: uni0E08
Encoding: 168 3592
OldEncoding: 3592
Width: 811
Flags: W
HStem: -4 119<467 485> 264 86<230.178 256> 451 90<242 256> 682 117<323 373>
VStem: 106 87<384.749 398> 543 155<201 525>
Fore
698 223 m 2
 698 193 695.333 164.5 690 137.5 c 0
 684.667 110.5 673 88 655 70 c 1
 614.333 20.6667 555 -4 477 -4 c 0
 369 -4 304.333 38.3333 283 123 c 0
 273 163 268 192.333 268 211 c 2
 268 264 l 1
 219 264 l 1
 205 265.333 188 271.667 168 283 c 0
 126.667 306.333 106 344.333 106 397 c 0
 106 441 119.667 476 147 502 c 0
 174.333 528 210 541 254 541 c 0
 312 541 353 519.667 377 477 c 0
 392.333 449 402 403.333 406 340 c 1
 414 203 l 1
 416 174.333 418.667 156.667 422 150 c 0
 430 126.667 448.333 115 477 115 c 0
 521 115 543 138.667 543 186 c 2
 543 506 l 2
 543 593.333 507.333 648 436 670 c 0
 410 678 380.667 682 348 682 c 0
 278.667 682 222.667 665.667 180 633 c 2
 111 580 l 1
 20 649 l 1
 24.6667 663 31.6667 675.333 41 686 c 0
 107.667 761.333 213.333 799 358 799 c 0
 410.667 799 448.333 795.333 471 788 c 1
 501.667 785.333 532.333 775.333 563 758 c 0
 617 728.667 653.333 696.333 672 661 c 0
 689.333 629 698 581.333 698 518 c 2
 698 223 l 2
295 399 m 0
 295 433.667 278 451 244 451 c 0
 216.667 451 199.667 433 193 397 c 1
 193 365.667 210 350 244 350 c 0
 278 350 295 366.333 295 399 c 0
EndSplineSet
MinimumDistance: x0,-1 
EndChar
StartChar: uni0E09
Encoding: 169 3593
OldEncoding: 3593
Width: 950
Flags: W
HStem: 240 90<205 213> 426 90<207.063 219.093> 676 131<367 426>
VStem: 78 86<363 391> 213 156<164 240> 248 121<368 389> 594 158<139 217 396 541>
Fore
760 -4 m 0
 717.333 -4 680 6.66667 648 28 c 0
 612 52 594 84.3333 594 125 c 2
 594 217 l 1
 580 199 l 1
 498 84 l 2
 471.333 46 446.667 22 424 12 c 1
 395.333 2.66667 358.333 -2 313 -2 c 0
 285 -2 261.333 7.66667 242 27 c 0
 222.667 46.3333 213 70 213 98 c 2
 213 240 l 1
 153 240 111.333 266.333 88 319 c 0
 81.3333 334.333 78 353.667 78 377 c 0
 78 459 121 505.333 207 516 c 1
 253.667 516 292.333 503 323 477 c 0
 353.667 451 369 415 369 369 c 2
 369 166 l 2
 369 159.333 373 154.667 381 152 c 1
 390.333 152 407.333 167.667 432 199 c 2
 483 264 l 2
 507.667 296 533 322.667 559 344 c 1
 594 367 l 1
 594 520 l 2
 594 624 530.333 676 403 676 c 0
 255.667 676 167.667 640.333 139 569 c 1
 33 635 l 1
 57.6667 675 81.3333 703.667 104 721 c 0
 177.333 778.333 272.333 807 389 807 c 0
 487 807 567.667 790 631 756 c 0
 711.667 713.333 752 647 752 557 c 2
 752 397 l 1
 788 391 l 1
 856.667 369.667 899.333 330.667 916 274 c 0
 922.667 250.667 926 224.333 926 195 c 0
 926 62.3333 870.667 -4 760 -4 c 0
825 207 m 1
 821 243.667 807.333 269 784 283 c 1
 752 293 l 1
 752 150 l 2
 752 127.333 761.333 115.667 780 115 c 0
 805.333 114.333 819 126 821 150 c 0
 822.333 167.333 823.667 186.333 825 207 c 1
207 426 m 0
 178.333 426 164 409.667 164 377 c 0
 164 345.667 178.333 330 207 330 c 0
 217 330 226.333 336.833 235 350.5 c 0
 243.667 364.167 248 376.333 248 387 c 0
 248 413 234.333 426 207 426 c 0
EndSplineSet
MinimumDistance: x29,-1 
EndChar
StartChar: uni0E0A
Encoding: 170 3594
OldEncoding: 3594
Width: 877
Flags: W
HStem: 4 105<139 233 391 540> 461 90<162 172> 705 94<242.063 258>
VStem: 27 90<595 612> 233 158<109 313> 598 158<179 421>
Fore
813 750 m 1
 788 725 l 2
 774 711 747.667 692 709 668 c 0
 685.667 653.333 665 643 647 637 c 2
 612 625 l 1
 657.333 614.333 693.333 585.667 720 539 c 0
 744 497.667 756 451.667 756 401 c 2
 756 145 l 1
 749.333 121.667 744.333 106 741 98 c 0
 726.333 63.3333 695.667 35.3333 649 14 c 0
 634.333 7.33333 611.333 4 580 4 c 2
 139 4 l 1
 139 109 l 1
 233 109 l 1
 233 301 l 2
 233 330.333 244 359.667 266 389 c 2
 334 479 l 1
 357.333 517.667 369 552 369 582 c 1
 362 629 l 1
 347.333 679.667 307.333 705 242 705 c 1
 263.333 692.333 275.667 683.333 279 678 c 0
 289.667 665.333 295.667 651.667 297 637 c 1
 301 600 l 1
 301 558.667 289 525.167 265 499.5 c 0
 241 473.833 208.667 461 168 461 c 0
 124.667 461 90.3333 474.833 65 502.5 c 0
 39.6667 530.167 27 566 27 610 c 0
 27 651.333 41.5 691.167 70.5 729.5 c 0
 99.5 767.833 134 789 174 793 c 2
 233 799 l 1
 256 799 l 2
 366.667 799 441.667 758 481 676 c 1
 489 651 l 1
 553 688 l 1
 637 745 l 2
 682.333 775.667 718.333 810 745 848 c 2
 778 895 l 1
 813 750 l 1
598 184 m 2
 598 434 l 2
 598 472 589 501.333 571 522 c 0
 546.333 550.667 521.333 565 496 565 c 1
 490 531.667 479.667 502.333 465 477 c 2
 410 381 l 2
 397.333 359 391 335.667 391 311 c 2
 391 109 l 1
 528 109 l 2
 574.667 109 598 134 598 184 c 2
162 551 m 1
 190.667 551 207.667 569.333 213 606 c 1
 213 638.667 196.667 655 164 655 c 0
 132.667 655 117 637.333 117 602 c 0
 117 582.667 122.333 568.333 133 559 c 1
 162 551 l 1
EndSplineSet
MinimumDistance: x6,-1 x13,11 x13,12 
EndChar
StartChar: uni0E0B
Encoding: 171 3595
OldEncoding: 3595
Width: 928
Flags: W
HStem: -4 104<197 293 449 590> 387 84<154 176> 694 103<195 213>
VStem: 211 78<507 531> 293 156<100 377> 655 158<156.091 425>
Fore
870 741 m 1
 846 715 l 2
 824 691 797.333 671.667 766 657 c 2
 707 629 l 1
 670 616 l 1
 690 608 l 2
 750 584 787.667 543 803 485 c 0
 809.667 459.667 813 429 813 393 c 2
 813 137 l 1
 807.667 116.333 802.667 100.667 798 90 c 0
 782 54 751.667 26 707 6 c 0
 692.333 -0.666667 669 -4 637 -4 c 2
 197 -4 l 1
 197 100 l 1
 293 100 l 1
 293 365 l 2
 293 392.333 300.333 418.667 315 444 c 0
 317.667 448.667 340 475.667 382 525 c 0
 408.667 556.333 422 586.667 422 616 c 0
 422 628.667 419.333 640.333 414 651 c 1
 399 668 l 1
 380.333 670.667 358 659 332 633 c 1
 315 612 l 1
 303 635 l 1
 274.333 674.333 241.667 694 205 694 c 0
 191 694 178.667 689.333 168 680 c 1
 156 655 l 1
 154 643 l 1
 174 645 l 1
 222 645 256 622.667 276 578 c 0
 284.667 558.667 289 538 289 516 c 0
 289 478.667 277.833 447.833 255.5 423.5 c 0
 233.167 399.167 203.333 387 166 387 c 0
 115.333 387 77 409 51 453 c 1
 35 500 l 1
 29 557 l 1
 35 618 l 1
 51 678 l 2
 59 708.667 78.1667 736.167 108.5 760.5 c 0
 138.833 784.833 169.667 797 201 797 c 0
 231 797 260.333 785.333 289 762 c 1
 324 725 l 1
 356 760 l 2
 378.667 784.667 403.333 797 430 797 c 0
 492.667 797 531 745.667 545 643 c 1
 554.333 645 568.667 652 588 664 c 2
 637 694 l 2
 641.667 696.667 660.667 710.333 694 735 c 0
 744 771.667 779.667 805.333 801 836 c 2
 838 889 l 1
 870 741 l 1
655 176 m 2
 655 428 l 1
 649 479 l 2
 647.667 490.333 641 502 629 514 c 1
 604.333 545.333 573 561 535 561 c 1
 516 528 l 1
 485 483 l 2
 467.667 458.333 457.667 439.333 455 426 c 1
 449 377 l 1
 449 100 l 1
 586 100 l 2
 609.333 100 628.333 107.667 643 123 c 1
 651 133.667 655 151.333 655 176 c 2
211 520 m 0
 211 552.667 196 569 166 569 c 0
 137.333 569 123 552.667 123 520 c 0
 123 487.333 137.333 471 166 471 c 0
 196 471 211 487.333 211 520 c 0
EndSplineSet
MinimumDistance: x7,-1 x14,12 x14,13 
EndChar
StartChar: uni0E0C
Encoding: 172 3596
OldEncoding: 3596
Width: 1180
Flags: W
HStem: -2 78<300 319> 182 88<300 319> 692 109<412 446> 775 20G<903 1061>
VStem: 145 127<129 174> 592 158<325 555> 903 158<213 795>
Fore
332 475 m 1
 172 477 l 1
 187.333 496.333 205 512 225 524 c 1
 240 530 l 1
 217 551 l 1
 158 592 l 1
 100 621 l 1
 61 639 l 1
 139 747 261.333 801 428 801 c 0
 520.667 801 595 782.667 651 746 c 0
 717 702.667 750 637 750 549 c 2
 750 326 l 1
 784 315 l 1
 798 312.333 813 305 829 293 c 2
 860 270 l 1
 878 252.667 892.333 233.667 903 213 c 1
 903 795 l 1
 1061 795 l 1
 1061 100 l 2
 1061 35.3333 1027.67 2 961 0 c 0
 931.667 -0.666667 910.333 10.3333 897 33 c 1
 870 96 l 2
 857.333 125.333 843.667 148 829 164 c 1
 809 191.333 791.333 210.333 776 221 c 1
 750 233 l 1
 758 199 l 1
 764 154 l 1
 760 113 l 1
 743.333 33.6667 697 -6 621 -6 c 0
 578.333 -6 543.333 10.6667 516 44 c 0
 490 75.3333 477 112.667 477 156 c 1
 483 209 l 1
 491.667 248.333 512.333 278.333 545 299 c 1
 592 315 l 1
 592 547 l 2
 592 643.667 538 692 430 692 c 0
 388 692 349.667 684.667 315 670 c 1
 274 645 l 1
 346 598 l 2
 350.667 595.333 369 579 401 549 c 2
 414 537 l 1
 387 524 l 2
 372.333 516.667 354 500.333 332 475 c 1
623 221 m 0
 590.333 221 573 198.667 571 154 c 0
 569.667 112.667 587 92 623 92 c 0
 655.667 92 672 114 672 158 c 1
 666 190 l 1
 657.333 210.667 643 221 623 221 c 0
176 477 m 1
 336 475 l 1
 326.667 463 317 444.667 307 420 c 1
 301 369 l 1
 301 270 l 1
 327.667 270 351 266 371 258 c 0
 418.333 238.667 442 203.333 442 152 c 0
 442 49.3333 395 -2 301 -2 c 0
 197 -2 145 56.6667 145 174 c 2
 145 369 l 1
 152 422 l 1
 154 438.667 162 457 176 477 c 1
317 76 m 0
 349 76 365 93.6667 365 129 c 0
 365 164.333 349 182 317 182 c 0
 287 182 272 164.333 272 129 c 0
 272 93.6667 287 76 317 76 c 0
EndSplineSet
MinimumDistance: x17,-1 
EndChar
StartChar: uni0E0D
Encoding: 173 3597
OldEncoding: 3597
Width: 1180
Flags: W
HStem: -385 86<701 723 733 756> -2.00001 78<300 317> 0 104<543 595 753 851> 692 109<404 451> 775 20G<907 1065>
VStem: 145 127<129 174> 498 82<-226 -209> 596 158<104 560> 907 158<150 795> 911 144<-147 -96>
Fore
1065 197 m 2
 1065 160.333 1063.67 133.667 1061 117 c 0
 1055.67 82.3333 1032.33 48.6667 991 16 c 1
 973.667 5.33333 954.667 -4.33681e-19 934 0 c 2
 543 0 l 1
 543 104 l 1
 596 104 l 1
 596 547 l 2
 596 601 582.333 639 555 661 c 0
 530.333 680.333 490 690.667 434 692 c 0
 394 692.667 355.667 685.333 319 670 c 0
 312.333 667.333 299 659 279 645 c 1
 350 598 l 2
 364 588.667 382.667 572.333 406 549 c 2
 418 537 l 1
 352 509.667 314 465.333 304 404 c 0
 302 392 301 380.333 301 369 c 2
 301 270 l 1
 332.333 268 355.667 264 371 258 c 0
 415 241.333 438.667 206 442 152 c 0
 448 50.6667 401 -0.666667 301 -2 c 0
 197 -3.33333 145 55.3333 145 174 c 2
 145 369 l 2
 145 439 173 490.667 229 524 c 0
 231.667 524.667 236.667 526.667 244 530 c 1
 235.333 538.667 227.667 545.667 221 551 c 0
 198.333 569 178.667 582.667 162 592 c 0
 148.667 598 129.333 607.667 104 621 c 0
 84.6667 631 72 637 66 639 c 1
 102 690.333 156.333 730.667 229 760 c 0
 293.667 786.667 360.667 800.333 430 801 c 0
 521.333 801.667 595.667 783.333 653 746 c 0
 720.333 702 754 636.333 754 549 c 2
 754 104 l 1
 846 104 l 2
 876 104 896.333 117 907 143 c 1
 907 795 l 1
 1065 795 l 1
 1065 197 l 2
1055 -96 m 1
 1055 -175.333 1033.67 -238.333 991 -285 c 0
 932.333 -349.667 849.667 -383 743 -385 c 0
 680.333 -386.333 626.667 -375.333 582 -352 c 0
 526 -323.333 498 -280.333 498 -223 c 0
 498 -136.333 539.667 -92 623 -90 c 0
 701 -88 741.667 -128.333 745 -211 c 0
 746.333 -245 736.333 -270.333 715 -287 c 0
 714.333 -287 706.667 -291 692 -299 c 1
 702 -299 l 2
 714.667 -299 725 -299.667 733 -301 c 0
 751.667 -301 765.333 -300.333 774 -299 c 0
 826.667 -291 867 -263 895 -215 c 1
 905 -194.333 910.333 -171.667 911 -147 c 0
 911 -133.667 911.667 -117.333 913 -98 c 1
 1055 -96 l 1
317 76 m 0
 347.667 74.6667 363.667 92.3333 365 129 c 0
 365.667 142.333 361.333 154.667 352 166 c 1
 346.667 174.667 335 180 317 182 c 1
 287 182 272 164.333 272 129 c 0
 272 94.3333 287 76.6667 317 76 c 0
580 -213 m 0
 580 -243 595.667 -258.667 627 -260 c 0
 658.333 -261.333 674 -245 674 -211 c 0
 674 -181.667 659 -166.667 629 -166 c 0
 596.333 -164.667 580 -180.333 580 -213 c 0
EndSplineSet
MinimumDistance: x38,-1 x6,4 x6,5 
EndChar
StartChar: uni0E0E
Encoding: 174 3598
OldEncoding: 3598
Width: 909
Flags: W
HStem: -197 93<242 258> -4 86<178 201> 694 109<453 508>
VStem: 635 158<-179 571>
Fore
793 -178 m 1
 770 -225 l 2
 742 -282.333 687.333 -338.333 606 -393 c 2
 563 -422 l 1
 547.667 -397.333 522.333 -369.333 487 -338 c 2
 436 -293 l 1
 420 -281 l 1
 406 -313 l 2
 383.333 -365 343 -398 285 -412 c 1
 231 -418 l 1
 185.667 -418 147.5 -402.667 116.5 -372 c 0
 85.5 -341.333 70 -303.333 70 -258 c 1
 78 -213 l 1
 100 -140.333 155.333 -104 244 -104 c 2
 272 -104 l 2
 279.333 -104 293.667 -107 315 -113 c 1
 325 -113 335.333 -115.667 346 -121 c 1
 354 -86 l 1
 360 -47 l 1
 475 -47 l 1
 467 -109 l 1
 464.333 -127.667 461 -142 457 -152 c 2
 451 -166 l 1
 473 -178 l 1
 508 -205 l 1
 563 -254 l 1
 602 -225 l 1
 627 -195 l 1
 635 -178 l 1
 635 547 l 2
 635 602.333 623.167 640.667 599.5 662 c 0
 575.833 683.333 535.667 694 479 694 c 0
 436.333 694 395.333 686 356 670 c 0
 341.333 664 327 655.667 313 645 c 1
 334 633 l 1
 387 596 l 1
 453 537 l 1
 426 524 l 2
 376 500 346.667 448.333 338 369 c 1
 338 150 l 2
 338 47.3333 291.667 -4 199 -4 c 0
 157.667 -4 123.667 7.66667 97 31 c 0
 70.3333 54.3333 57 86.3333 57 127 c 1
 61 166 l 1
 65.6667 214.667 94.3333 246 147 260 c 1
 180 264 l 1
 180 369 l 1
 186 422 l 1
 195.333 463.333 222 497.333 266 524 c 1
 281 530 l 1
 258 551 l 2
 238.667 569 217.667 583.333 195 594 c 2
 100 639 l 1
 135.333 691 191.333 732 268 762 c 0
 336 789.333 405 803 475 803 c 0
 687 803 793 718.333 793 549 c 2
 793 -178 l 1
322 -213 m 1
 295 -203 l 1
 258 -197 l 1
 230.667 -197 208 -205.667 190 -223 c 1
 183.333 -234.333 178.667 -248.667 176 -266 c 1
 176 -294.667 196.667 -311.667 238 -317 c 1
 266.667 -317 289.667 -300 307 -266 c 1
 322 -213 l 1
190 180 m 0
 161.333 180 147 163.667 147 131 c 0
 147 98.3333 161.333 82 190 82 c 0
 218.667 82 233 98.3333 233 131 c 0
 233 163.667 218.667 180 190 180 c 0
EndSplineSet
MinimumDistance: x0,-1 
EndChar
StartChar: uni0E0F
Encoding: 175 3599
OldEncoding: 3599
Width: 922
Flags: W
HStem: -188 90<170 190> -4 82<191 211> 696 105<461 508>
VStem: 43 88<-266 -237> 70 88<125 131> 645 158<-179 561>
Fore
803 -178 m 1
 788 -219 l 2
 764 -285.667 718.333 -341 651 -385 c 2
 604 -416 l 1
 492 -258 l 1
 397 -410 l 1
 309 -293 l 1
 285 -344 l 1
 261 -380.667 233 -401.333 201 -406 c 2
 188 -408 l 1
 178 -408 l 2
 137.333 -408 104.333 -391.667 79 -359 c 0
 55 -329 43 -293.333 43 -252 c 2
 43 -219 l 1
 51 -197 l 1
 66.3333 -131 106 -98 170 -98 c 0
 193.333 -98 213 -101.667 229 -109 c 2
 242 -115 l 1
 242 -47 l 1
 350 -47 l 1
 350 -106 l 1
 344 -166 l 1
 389 -233 l 1
 485 -88 l 1
 600 -238 l 1
 612 -232.667 621 -224.333 627 -213 c 1
 633 -207.667 638.333 -198 643 -184 c 2
 645 -178 l 1
 645 547 l 2
 645 601.667 632.833 640.167 608.5 662.5 c 0
 584.167 684.833 544.333 696 489 696 c 0
 433.667 696 386 685.333 346 664 c 1
 324 645 l 1
 344 633 l 1
 397 596 l 1
 451 549 l 1
 463 537 l 1
 436 524 l 2
 386 500 356.667 448.333 348 369 c 1
 348 150 l 2
 348 47.3333 301.667 -4 209 -4 c 0
 169 -4 135.833 8.5 109.5 33.5 c 0
 83.1667 58.5 70 91 70 131 c 1
 74 166 l 2
 78.6667 206 100.333 234.667 139 252 c 1
 190 264 l 1
 190 369 l 1
 197 422 l 2
 203.667 471.333 230 505.333 276 524 c 2
 291 530 l 1
 268 551 l 2
 248.667 568.333 227.667 582.667 205 594 c 2
 156 618 l 1
 111 639 l 1
 132.333 670.333 171 701.667 227 733 c 0
 307.667 778.333 393.667 801 485 801 c 0
 697 801 803 717.667 803 551 c 2
 803 -178 l 1
223 -217 m 1
 209 -201 l 2
 201.667 -192.333 192.667 -188 182 -188 c 0
 148 -188 131 -210 131 -254 c 0
 131 -290.667 145.333 -309.667 174 -311 c 0
 196 -312.333 211 -296.667 219 -264 c 1
 223 -217 l 1
203 176 m 0
 173 176 158 159.667 158 127 c 0
 158 94.3333 173 78 203 78 c 0
 231.667 78 246 94.3333 246 127 c 0
 246 159.667 231.667 176 203 176 c 0
EndSplineSet
MinimumDistance: x0,-1 
EndChar
StartChar: uni0E10
Encoding: 176 3600
OldEncoding: 3600
Width: 813
Flags: W
HStem: -467 96<85 104> -248 86<83 104> -147 75<554 577> 408 92<205 223> 662 98<619 635>
VStem: -27 84<-326 -311> 78 90<348 368>
DStem: 539 373 690 365 524 150 678 178
Fore
762 711 m 1
 724 678.333 677 662 621 662 c 0
 588.333 662 540.167 670.167 476.5 686.5 c 0
 412.833 702.833 364.667 711 332 711 c 0
 299.333 711 273.333 702 254 684 c 1
 233 655 l 1
 285 655 l 1
 302.333 651 315.333 648.333 324 647 c 1
 354 647 401.333 636 466 614 c 0
 527.333 592.667 572 573 600 555 c 0
 633.333 533 658.667 505 676 471 c 1
 685.333 446.333 690 423.667 690 403 c 2
 690 365 l 1
 678 178 l 1
 673.333 100.667 639 46.6667 575 16 c 1
 520 0 l 1
 453 -6 l 1
 379 0 l 1
 337.667 8 302 31.3333 272 70 c 1
 261.333 92 254.667 117.667 252 147 c 1
 244 227 l 1
 213 223 l 1
 173 223 140.5 236.167 115.5 262.5 c 0
 90.5 288.833 78 322 78 362 c 0
 78 403.333 91.6667 436.667 119 462 c 0
 146.333 487.333 181 500 223 500 c 1
 244 498 l 2
 333.333 489.333 381 433.333 387 330 c 1
 397 154 l 1
 399.667 112.667 421 92 461 92 c 0
 500.333 92 521.333 111.333 524 150 c 2
 539 373 l 1
 545.667 469 458 531.667 276 561 c 2
 121 586 l 1
 103 586 83 588.667 61 594 c 1
 65.6667 650.667 98 702.667 158 750 c 0
 209.333 790 270 808.333 340 805 c 2
 381 803 l 1
 424 797 l 1
 524 776 l 2
 574.667 765.333 611 760 633 760 c 0
 661.667 760 685.667 768.667 705 786 c 1
 715 799 l 1
 762 711 l 1
696 -285 m 2
 696 -338.333 681 -381.333 651 -414 c 0
 619 -448 576.667 -463 524 -459 c 2
 498 -457 l 2
 453.333 -453.667 415.667 -436.667 385 -406 c 1
 365 -379 l 1
 291 -459 l 1
 229 -362 l 1
 197 -414 l 1
 168.333 -449.333 136.667 -467 102 -467 c 0
 62 -467 30 -450.667 6 -418 c 0
 -16 -388 -27 -352.333 -27 -311 c 1
 -25 -291 l 2
 -21.6667 -259 -10.6667 -229.667 8 -203 c 1
 26 -182.333 51.3333 -168.667 84 -162 c 1
 114.667 -162 140.667 -165.333 162 -172 c 0
 174 -176 184.333 -181.333 193 -188 c 1
 195 -182 l 1
 207 -139 l 1
 213 -80 l 1
 317 -80 l 1
 313 -121 l 1
 313 -170.333 303 -212 283 -246 c 2
 276 -258 l 1
 313 -317 l 1
 371 -262 l 1
 387 -285 l 2
 422.333 -335.667 462.667 -360.667 508 -360 c 0
 527.333 -359.333 542.333 -351.333 553 -336 c 1
 559 -315 l 1
 492.333 -311 452.667 -280.333 440 -223 c 1
 438 -199 l 1
 434.667 -162.333 445.5 -132 470.5 -108 c 0
 495.5 -84 526.333 -72 563 -72 c 0
 651.667 -72 696 -126.667 696 -236 c 2
 696 -285 l 2
217 311 m 0
 248.333 311 264 326.667 264 358 c 0
 264 391.333 248.333 408 217 408 c 0
 184.333 408 168 391.333 168 358 c 0
 168 326.667 184.333 311 217 311 c 0
158 -285 m 1
 139 -266 l 1
 124.333 -254 110.667 -248 98 -248 c 0
 84.6667 -248 74 -254.667 66 -268 c 1
 57 -311 l 1
 57 -351 69.3333 -371 94 -371 c 0
 120.667 -371 138.333 -355.333 147 -324 c 2
 158 -285 l 1
565 -147 m 0
 549 -147 537.333 -152.667 530 -164 c 1
 520 -193 l 1
 520 -223 535 -238 565 -238 c 0
 580.333 -238 592 -231.667 600 -219 c 1
 610 -193 l 1
 610 -162.333 595 -147 565 -147 c 0
EndSplineSet
MinimumDistance: x11,-1 
EndChar
StartChar: uni0E11
Encoding: 177 3601
OldEncoding: 3601
Width: 1112
Flags: W
HStem: 0 21G<362 522> 360 80<158 170> 625 174<791 836> 668 129<389 418> 684 113<199 203>
VStem: 31 96<492 543> 213 78<479 505> 362 160<0.0309091 16.9593> 838 159<2 598>
Fore
997 0 m 1
 840 2 l 1
 838 598 l 1
 830 616 814.333 625 791 625 c 0
 758.333 625 721.333 579 680 487 c 2
 600 309 l 2
 586.667 279.667 571 230 553 160 c 0
 532.333 80 522 26.6667 522 0 c 1
 362 0 l 1
 362 424 l 2
 362 460.667 371.667 500.333 391 543 c 0
 410.333 585.667 420 615.667 420 633 c 0
 420 656.333 409.667 668 389 668 c 0
 371.667 668 352.667 657 332 635 c 2
 301 602 l 1
 293 621 l 1
 271 657.667 241 678.667 203 684 c 1
 189 684 176.667 678.667 166 668 c 1
 152 635 l 1
 150 616 l 1
 174 618 l 2
 217.333 621.333 249.667 603 271 563 c 0
 284.333 537.667 291 514.667 291 494 c 0
 291 469.333 285.333 446.667 274 426 c 1
 259.333 388 224.667 366 170 360 c 1
 77.3333 360 31 421 31 543 c 0
 31 635.667 59 708.667 115 762 c 0
 139.667 785.333 168.333 797 201 797 c 0
 229.667 797 256.333 784.667 281 760 c 1
 309 721 l 1
 343 771.667 379.333 797 418 797 c 0
 455.333 797 486.5 782.167 511.5 752.5 c 0
 536.5 722.833 549 689 549 651 c 1
 545 612 l 1
 543.667 600.667 538.333 581.667 529 555 c 0
 520.333 531 516 512 516 498 c 2
 516 383 l 2
 516 397 530.667 437 560 503 c 0
 587.333 563 607.667 604.333 621 627 c 0
 689.667 741.667 761.333 799 836 799 c 1
 870 795 l 2
 910 790.333 941.667 770.333 965 735 c 0
 986.333 703.667 997 667 997 625 c 2
 997 0 l 1
213 492 m 0
 213 526 198.667 543 170 543 c 0
 141.333 543 127 526 127 492 c 0
 127 457.333 141.333 440 170 440 c 0
 198.667 440 213 457.333 213 492 c 0
EndSplineSet
MinimumDistance: x0,-1 
EndChar
StartChar: uni0E12
Encoding: 178 3602
OldEncoding: 3602
Width: 1235
Flags: W
HStem: -14 102<703 709> 0 21G<178 371 971 1038> 457 88<426 436> 775 20G<956 1112>
VStem: 473 84<401 418> 559 98<137 168> 655 158<339 563> 956 156<260 795>
DStem: 373 287 524 299 303 150 371 0
Fore
1112 100 m 2
 1112 33.3333 1087.33 3.46945e-18 1038 0 c 2
 971 0 l 1
 961 55 l 2
 946.333 135 909.333 191.667 850 225 c 1
 821 236 l 1
 836 205 l 1
 842.667 183 847.333 161 850 139 c 1
 844 100 l 1
 823.333 24 777.667 -14 707 -14 c 0
 608.333 -14 559 46 559 166 c 0
 559 214.667 574.667 253 606 281 c 0
 612 286.333 628.333 295 655 307 c 1
 655 547 l 2
 655 620.333 632 662 586 672 c 1
 569 674 l 1
 449 608 l 1
 336 672 l 1
 319.333 667.333 306.333 661.667 297 655 c 0
 268.333 633.667 248 597.667 236 547 c 1
 229 471 l 1
 229 422 l 1
 235.667 382.667 245.333 345 258 309 c 0
 266.667 287 279 247.333 295 190 c 1
 303 150 l 1
 373 287 l 1
 350 295 l 1
 316 318.333 299 358.667 299 416 c 0
 299 453.333 311.167 484.167 335.5 508.5 c 0
 359.833 532.833 390.667 545 428 545 c 0
 514 545 557 502 557 416 c 0
 557 380.667 546 341.667 524 299 c 2
 371 0 l 1
 178 0 l 1
 174 53 l 2
 171.333 87.6667 165.333 122 156 156 c 2
 96 373 l 2
 84 417 78.6667 455.667 80 489 c 1
 82 532 l 1
 82.6667 548 85.3333 563.333 90 578 c 1
 108 661.333 149 723.333 213 764 c 0
 256.333 791.333 287.667 803 307 799 c 1
 446 731 l 1
 567 799 l 1
 623 791 l 1
 662.333 781 697.667 762.333 729 735 c 0
 785 686.333 813 621.667 813 541 c 2
 813 340 l 1
 844 334 l 2
 889.333 325.333 924 305.333 948 274 c 1
 956 260 l 1
 956 795 l 1
 1112 795 l 1
 1112 100 l 2
473 406 m 0
 473 440 458.667 457 430 457 c 0
 415.333 457 403.667 450 395 436 c 1
 385 406 l 1
 385 371.333 401.333 354 434 354 c 0
 460 354 473 371.333 473 406 c 0
752 147 m 0
 752 193.667 736.333 217 705 217 c 0
 673 217 657 194.667 657 150 c 0
 657 108.667 673.667 88 707 88 c 0
 737 88 752 107.667 752 147 c 0
EndSplineSet
MinimumDistance: x0,-1 
EndChar
StartChar: uni0E13
Encoding: 179 3603
OldEncoding: 3603
Width: 1280
Flags: W
HStem: -8 21G<1063 1083> -2 82<298 317> 0 21G<592 760> 694 105<412 446> 775 20G<903 1061>
VStem: 141 129<133 174> 592 158<229 553> 903 158<415 795> 907 154<130 233> 1159 101<186 197>
Fore
1239 301 m 1
 1253 250 l 1
 1260 197 l 1
 1260 145 1247.33 100.333 1222 63 c 0
 1194 21 1155.33 -2 1106 -6 c 2
 1083 -8 l 1
 1063 -8 l 2
 959 -8 907 41.6667 907 141 c 2
 907 233 l 1
 879 213 l 1
 854.333 189 833.667 159 817 123 c 2
 760 0 l 1
 592 0 l 1
 592 539 l 2
 592 642.333 538 694 430 694 c 0
 390.667 694 352.333 686 315 670 c 1
 274 645 l 1
 346 598 l 1
 418 530 l 1
 375.333 527.333 346 511.667 330 483 c 1
 315.333 465 307 446 305 426 c 2
 299 369 l 1
 299 270 l 1
 321 270 335.333 268.667 342 266 c 1
 406 251.333 438 213.333 438 152 c 0
 438 49.3333 391.667 -2 299 -2 c 0
 193.667 -2 141 56.6667 141 174 c 2
 141 369 l 1
 147 422 l 1
 157 464 183 498 225 524 c 1
 240 530 l 1
 217 551 l 1
 158 592 l 1
 100 621 l 1
 61 639 l 1
 73.6667 652.333 96.3333 674.333 129 705 c 1
 215 767.667 314.667 799 428 799 c 0
 642.667 799 750 715.667 750 549 c 2
 750 229 l 1
 759.333 247 770 263.667 782 279 c 1
 821 317 l 1
 874 365 l 1
 903 383 l 1
 903 795 l 1
 1061 795 l 1
 1061 416 l 1
 1143 416 1202.33 377.667 1239 301 c 1
1151 131 m 1
 1159 186 l 1
 1159 231.333 1146 265 1120 287 c 1
 1083 305 l 1
 1061 307 l 1
 1061 145 l 2
 1061 111 1074.67 94 1102 94 c 0
 1124 94 1140.33 106.333 1151 131 c 1
313 186 m 0
 284.333 187.333 270 169.667 270 133 c 0
 270 97.6667 284.333 80 313 80 c 0
 344.333 80 360 97.6667 360 133 c 0
 360 167 344.333 184.667 313 186 c 0
EndSplineSet
MinimumDistance: x2,-1 
EndChar
StartChar: uni0E14
Encoding: 180 3604
OldEncoding: 3604
Width: 938
Flags: W
HStem: 0 21G<193 360 666 825> 483 90<435 461> 684 125<435 485>
VStem: 303 90<428 434> 500 94<428 436> 666 159<0 529>
Fore
825 0 m 1
 666 0 l 1
 666 512 l 2
 666 626.667 597.667 684 461 684 c 0
 319.667 684 244.667 627.333 236 514 c 2
 233 475 l 1
 231 453 237.333 420.333 252 377 c 2
 276 305 l 1
 301 188 l 1
 305 162 l 1
 354 233 l 1
 399 301 l 1
 352 330 l 1
 319.333 358.667 303 393.333 303 434 c 1
 311 483 l 1
 329 543 377.667 573 457 573 c 0
 548.333 573 594 526 594 432 c 0
 594 372 576.333 316.667 541 266 c 2
 461 152 l 1
 360 0 l 1
 193 0 l 1
 184 68 l 2
 176 130 166 178.333 154 213 c 2
 109 346 l 2
 92.3333 395.333 84 439 84 477 c 2
 84 522 l 1
 92 553 l 1
 118.667 723.667 241 809 459 809 c 0
 562.333 809 646.333 787.333 711 744 c 0
 787 693.333 825 618.667 825 520 c 2
 825 0 l 1
393 430 m 0
 393 394.667 410 377 444 377 c 0
 481.333 377 500 395.333 500 432 c 0
 500 466 482 483 446 483 c 0
 410.667 483 393 465.333 393 430 c 0
EndSplineSet
MinimumDistance: x0,-1 
EndChar
StartChar: uni0E15
Encoding: 181 3605
OldEncoding: 3605
Width: 958
Flags: W
HStem: 0 21G<203 403 692 848> 485 84<444 459>
VStem: 90 146<447 487> 506 90<420 438> 692 156<0 561>
Fore
848 0 m 1
 692 0 l 1
 692 541 l 2
 692 561 690.667 576 688 586 c 1
 688 622.667 669.667 650 633 668 c 1
 606 676 l 1
 475 610 l 1
 346 676 l 1
 322 667.333 304.333 656.333 293 643 c 0
 255 598.333 236 539.667 236 467 c 2
 236 422 l 1
 242.667 398.667 255.333 360.333 274 307 c 1
 295.333 261.667 311.333 220 322 182 c 2
 336 131 l 1
 352 174 l 1
 410 293 l 1
 389.333 300.333 372.667 310 360 322 c 0
 326 354 309 392 309 436 c 0
 309 474.667 323.333 506.5 352 531.5 c 0
 380.667 556.5 414.333 569 453 569 c 0
 471.667 569 491.333 565.667 512 559 c 1
 538 555 559 537.667 575 507 c 0
 589 481 596 453.333 596 424 c 0
 596 386.667 586.333 351 567 317 c 2
 524 242 l 1
 475 152 l 1
 446 94 l 1
 403 0 l 1
 203 0 l 1
 199 66 l 1
 197 96 190.667 126 180 156 c 2
 109 354 l 2
 96.3333 389.333 90 428.333 90 471 c 0
 90 584.333 126.333 672.333 199 735 c 0
 250.333 779.667 292.333 802 325 802 c 0
 330.333 802 335.333 801.667 340 801 c 1
 473 739 l 1
 608 801 l 1
 639 799 l 1
 732.333 782.333 795 732.333 827 649 c 0
 841 612.333 848 576.333 848 541 c 2
 848 0 l 1
506 432 m 0
 506 467.333 489 485 455 485 c 0
 422.333 485 403.667 466 399 428 c 1
 399 392.667 417 375 453 375 c 0
 488.333 375 506 394 506 432 c 0
EndSplineSet
MinimumDistance: x0,-1 
EndChar
StartChar: uni0E16
Encoding: 182 3606
OldEncoding: 3606
Width: 887
Flags: W
HStem: -4 88<296 320> 0 21G<623 778> 694 109<414 464>
VStem: 369 84<123 141> 623 155<0 557>
Fore
778 0 m 1
 623 0 l 1
 623 547 l 2
 623 645 562 694 440 694 c 0
 368 694 313.333 675.667 276 639 c 1
 301 627 l 2
 325 615.667 359 589.667 403 549 c 2
 416 537 l 1
 389 524 l 1
 345.667 498 317.667 463.333 305 420 c 1
 299 369 l 1
 299 281 l 1
 346 279 l 1
 417.333 263.667 453 217 453 139 c 0
 453 43.6667 401 -4 297 -4 c 0
 194.333 -4 143 59.3333 143 186 c 2
 143 369 l 1
 150 422 l 1
 159.333 464 185 498 227 524 c 1
 242 530 l 1
 219 551 l 1
 160 592 l 1
 102 621 l 1
 63 639 l 1
 81 663 104.333 685.667 133 707 c 0
 220.333 771 321.333 803 436 803 c 0
 530.667 803 608 784.667 668 748 c 0
 741.333 703.333 778 637 778 549 c 2
 778 0 l 1
315 188 m 0
 287.667 188 270.667 170.333 264 135 c 1
 264 101 281 84 315 84 c 0
 351 84 369 101 369 135 c 0
 369 170.333 351 188 315 188 c 0
EndSplineSet
MinimumDistance: x0,-1 
EndChar
StartChar: uni0E17
Encoding: 183 3607
OldEncoding: 3607
Width: 965
Flags: W
HStem: 0 21G<213 371 692 848> 504 96<194 213> 672 127<639 678> 705 92<190 208>
VStem: 250 119<612 651> 692 156<0 593>
Fore
848 0 m 1
 692 0 l 1
 692 565 l 2
 692 636.333 674.333 672 639 672 c 0
 601.667 672 564 638.333 526 571 c 0
 500.667 525.667 472.667 454 442 356 c 0
 426.667 306 407.667 230.333 385 129 c 1
 371 0 l 1
 213 0 l 1
 213 504 l 1
 195 504 l 1
 157.667 508 130.333 515.333 113 526 c 0
 69 552.667 47 593.667 47 649 c 1
 51 688 l 1
 67.6667 760.667 115.667 797 195 797 c 0
 311 797 369 735.333 369 612 c 2
 369 492 l 1
 371 442 l 1
 382.333 518 398.667 573.333 420 608 c 1
 421.333 612 433.667 632 457 668 c 0
 514.333 755.333 588 799 678 799 c 0
 791.333 799 848 735.333 848 608 c 2
 848 0 l 1
250 651 m 0
 250 687 233 705 199 705 c 0
 163 705 145 688.333 145 655 c 0
 145 618.333 163 600 199 600 c 0
 233 600 250 617 250 651 c 0
EndSplineSet
MinimumDistance: x0,-1 x7,9 y9,7 y9,8 
EndChar
StartChar: uni0E18
Encoding: 184 3608
OldEncoding: 3608
Width: 864
Flags: W
HStem: 0 104<104 256 414 515> 694 105<365 375>
VStem: 256 158<104 504> 586 157<172 391>
Fore
258 532 m 1
 221.333 536.667 184.333 544.333 147 555 c 2
 98 569 l 1
 98 635.667 126.667 691.333 184 736 c 0
 238 778 299 799 367 799 c 0
 392.333 799 437 789.667 501 771 c 0
 561 753.667 602.333 746 625 748 c 2
 672 752 l 1
 692 756 711.667 764.667 731 778 c 1
 752 799 l 1
 799 698 l 1
 769 668 733.333 649.667 692 643 c 1
 656 643 602.833 651.5 532.5 668.5 c 0
 462.167 685.5 409 694 373 694 c 0
 334.333 694 305 681.667 285 657 c 1
 272 637 l 1
 346 625 l 2
 402 615.667 469.667 598.333 549 573 c 0
 678.333 531 743 465.667 743 377 c 2
 743 174 l 2
 743 58 698.667 0 610 0 c 2
 104 0 l 1
 104 104 l 1
 256 104 l 1
 258 532 l 1
414 504 m 1
 414 104 l 1
 500 104 l 2
 557.333 104 586 132.667 586 190 c 2
 586 389 l 2
 586 411.667 580.333 428.667 569 440 c 0
 549.667 459.333 498 480.667 414 504 c 1
EndSplineSet
MinimumDistance: x18,-1 
EndChar
StartChar: uni0E19
Encoding: 185 3609
OldEncoding: 3609
Width: 991
Flags: W
HStem: 0 21G<207 365> 504 96<189 207> 705 92<186 204> 775 20G<618 774>
VStem: 207 158<0 2 254 504> 244 121<612 651> 618 156<144 315 461 795> 862 92<201 235>
Fore
871 20.5 m 0
 844.333 2.83333 813.333 -6 778 -6 c 0
 710 -6 661.667 24.6667 633 86 c 1
 623 114.667 618 143.333 618 172 c 2
 618 315 l 1
 598 307 l 1
 548 279.667 497.333 227.333 446 150 c 0
 392 69.3333 365 19.3333 365 0 c 1
 207 0 l 1
 209 504 l 1
 190 504 l 1
 153.333 508 126.333 515.333 109 526 c 0
 65 552.667 43 593.667 43 649 c 1
 47 688 l 1
 63.6667 760.667 111.333 797 190 797 c 0
 306.667 797 365 735.333 365 612 c 2
 365 254 l 1
 391 283 l 2
 447 345.667 507 394 571 428 c 2
 618 453 l 1
 618 795 l 1
 774 795 l 1
 776 461 l 1
 823 444 l 2
 910.333 412.667 954 339 954 223 c 0
 954 179.667 946.833 139.5 932.5 102.5 c 0
 918.167 65.5 897.667 38.1667 871 20.5 c 0
854 272 m 1
 847.333 323.333 821.333 346 776 340 c 1
 774 145 l 1
 774 121 784.333 107.333 805 104 c 1
 823 104 837.667 119 849 149 c 0
 857.667 171.667 862 193.667 862 215 c 0
 862 245 859.333 264 854 272 c 1
244 651 m 0
 244 687 227 705 193 705 c 0
 157 705 139 688.333 139 655 c 0
 139 618.333 157 600 193 600 c 0
 227 600 244 617 244 651 c 0
EndSplineSet
MinimumDistance: x24,-1 
EndChar
StartChar: uni0E1A
Encoding: 186 3610
OldEncoding: 3610
Width: 961
Flags: W
HStem: 0 109<133 229 384 624> 504 94<206 224> 702 95<206 224> 775 20G<688 844>
VStem: 229 156<109 504> 264 121<612 649> 688 156<194 795>
Fore
844 137 m 2
 844 69 815.333 26 758 8 c 1
 709 0 l 1
 133 0 l 1
 133 109 l 1
 229 109 l 1
 229 504 l 1
 178 504 l 1
 164 506.667 147.667 514 129 526 c 0
 85 554.667 63 595.667 63 649 c 1
 70 698 l 2
 74 727.333 91.3333 751.667 122 771 c 0
 150 788.333 179.667 797 211 797 c 0
 327 797 385 735.333 385 612 c 2
 385 109 l 1
 616 109 l 2
 657.333 109 680.667 126.667 686 162 c 1
 688 195 l 1
 688 795 l 1
 844 795 l 1
 844 137 l 2
264 649 m 0
 264 684.333 246.333 702 211 702 c 0
 175.667 702 158 685.667 158 653 c 0
 158 616.333 175.667 598 211 598 c 0
 246.333 598 264 615 264 649 c 0
EndSplineSet
MinimumDistance: x0,-1 x5,3 x5,4 
EndChar
StartChar: uni0E1B
Encoding: 187 3611
OldEncoding: 3611
Width: 961
Flags: W
HStem: 0 109<133 229 384 624> 504 96<206 224> 705 92<206 224>
VStem: 229 156<109 504> 264 121<612 651> 688 156<194 1182>
Fore
844 137 m 2
 844 69 815.333 26 758 8 c 1
 709 0 l 1
 133 0 l 1
 133 109 l 1
 229 109 l 1
 229 504 l 1
 178 504 l 1
 164 506.667 147.667 514 129 526 c 0
 85 554.667 63 595.667 63 649 c 1
 70 698 l 2
 74 727.333 91.3333 751.667 122 771 c 0
 150 788.333 179.667 797 211 797 c 0
 327 797 385 735.333 385 612 c 2
 385 109 l 1
 616 109 l 2
 657.333 109 680.667 126.667 686 162 c 1
 688 195 l 1
 688 1182 l 1
 844 1182 l 1
 844 137 l 2
264 651 m 0
 264 687 246.333 705 211 705 c 0
 175.667 705 158 688.333 158 655 c 0
 158 618.333 175.667 600 211 600 c 0
 246.333 600 264 617 264 651 c 0
EndSplineSet
MinimumDistance: x0,-1 x5,3 x5,4 
EndChar
StartChar: uni0E1C
Encoding: 188 3612
OldEncoding: 3612
Width: 901
Flags: W
HStem: 0 21G<123 283 629 786> 705 92<286.068 307> 775 20G<629 786>
VStem: 123 125<612 651> 123 158<229 504> 629 157<229 795>
Fore
786 0 m 1
 629 0 l 1
 619 34.6667 606.667 64.6667 592 90 c 2
 549 162 l 1
 485 248 l 1
 455 281 l 1
 410 231 l 1
 360 160 l 1
 315 78 l 1
 283 0 l 1
 123 0 l 1
 123 612 l 2
 123 735.333 181.667 797 299 797 c 0
 377 797 424 760.667 440 688 c 1
 444 647 l 1
 444 592.333 422.333 552 379 526 c 0
 361.667 515.333 343.333 508.667 324 506 c 1
 281 504 l 1
 281 229 l 1
 305 266 l 1
 360 338 l 1
 410 393 l 1
 455 432 l 1
 485 403 l 1
 553 338 l 2
 569.667 322 590 294 614 254 c 2
 629 229 l 1
 629 795 l 1
 786 795 l 1
 786 0 l 1
299 705 m 0
 265 705 248 687 248 651 c 0
 248 617 265 600 299 600 c 0
 326.333 600 343.333 617 350 651 c 1
 350 687 333 705 299 705 c 0
EndSplineSet
MinimumDistance: x0,-1 
EndChar
StartChar: uni0E1D
Encoding: 189 3613
OldEncoding: 3613
Width: 901
Flags: W
HStem: 0 21G<123 283 629 786> 707 90<297 315>
VStem: 123 129<612 653> 123 158<231 504> 629 157<233 1188>
Fore
786 0 m 1
 629 0 l 1
 598 76 l 2
 578 124.667 540.333 181.333 485 246 c 2
 455 281 l 1
 412 231 l 1
 360 164 l 1
 335.333 121.333 319.667 92 313 76 c 2
 283 0 l 1
 123 0 l 1
 123 612 l 2
 123 735.333 181.667 797 299 797 c 0
 377 797 424 760.667 440 688 c 1
 444 647 l 1
 444 592.333 422.333 552 379 526 c 0
 361.667 515.333 343.333 508.667 324 506 c 1
 281 504 l 1
 281 231 l 1
 307 268 l 2
 326.333 296 344 318.667 360 336 c 2
 406 387 l 1
 455 432 l 1
 487 403 l 2
 519 373.667 540.333 352 551 338 c 2
 629 233 l 1
 629 1188 l 1
 786 1188 l 1
 786 0 l 1
303 707 m 0
 269 707 252 689 252 653 c 0
 252 619 269 602 303 602 c 0
 330.333 602 347.333 619 354 653 c 1
 354 689 337 707 303 707 c 0
EndSplineSet
MinimumDistance: x0,-1 
EndChar
StartChar: uni0E1E
Encoding: 190 3614
OldEncoding: 3614
Width: 997
Flags: W
HStem: 0 21G<211 369 731 887> 512 92<188 197> 709 88<188 206> 775 20G<496 592>
VStem: 729 158<358 793>
DStem: 496 795 547 598 367 358 369 0 547 598 592 795 731 0 729 358
Fore
887 0 m 1
 731 0 l 1
 547 598 l 1
 369 0 l 1
 211 0 l 1
 211 512 l 1
 172 512 l 2
 136.667 512 106.333 527 81 557 c 0
 57 585 45 617 45 653 c 1
 49 684 l 2
 59 759.333 107.667 797 195 797 c 0
 309.667 797 367 738.333 367 621 c 2
 367 358 l 1
 496 795 l 1
 592 795 l 1
 729 358 l 1
 729 793 l 1
 887 793 l 1
 887 0 l 1
193 709 m 0
 165.667 709 148.333 691 141 655 c 1
 141 621 158.333 604 193 604 c 0
 219.667 604 236.667 621 244 655 c 1
 244 691 227 709 193 709 c 0
EndSplineSet
MinimumDistance: x0,-1 x3,5 y5,3 y5,4 
EndChar
StartChar: uni0E1F
Encoding: 191 3615
OldEncoding: 3615
Width: 1006
Flags: W
HStem: 0 21G<209 367 729 885> 512 92<174.727 195> 709 88<177.407 195> 775 20G<494 590>
VStem: 727 158<358 1257>
DStem: 494 795 545 598 365 358 367 0 545 598 590 795 729 0 727 358
Fore
885 0 m 1
 729 0 l 1
 545 598 l 1
 367 0 l 1
 209 0 l 1
 209 512 l 1
 170 512 l 2
 134.667 512 104.333 527 79 557 c 0
 55 585 43 617 43 653 c 1
 47 684 l 2
 57 759.333 105.667 797 193 797 c 0
 307.667 797 365 738.333 365 621 c 2
 365 358 l 1
 494 795 l 1
 590 795 l 1
 727 358 l 1
 727 1257 l 1
 885 1257 l 1
 885 0 l 1
188 709 m 0
 160.667 709 143.667 691 137 655 c 1
 137 621 154 604 188 604 c 0
 215.333 604 232.667 621 240 655 c 1
 240 691 222.667 709 188 709 c 0
EndSplineSet
MinimumDistance: x0,-1 x3,5 y5,3 y5,4 
EndChar
StartChar: uni0E20
Encoding: 192 3616
OldEncoding: 3616
Width: 909
Flags: W
HStem: -4 84<188 211> 0 21G<639 797> 696 105<455 499>
VStem: 66 90<123 129> 639 158<0 573>
Fore
797 0 m 1
 639 0 l 1
 639 547 l 2
 639 601.667 626.833 640.167 602.5 662.5 c 0
 578.167 684.833 538.333 696 483 696 c 0
 427 696 379.333 685.333 340 664 c 1
 317 645 l 1
 338 633 l 1
 391 596 l 1
 457 537 l 1
 430 524 l 2
 380 500 350.667 448.333 342 369 c 1
 342 150 l 2
 342 47.3333 295.667 -4 203 -4 c 0
 111.667 -4 66 40.3333 66 129 c 1
 70 166 l 2
 74.6667 207.333 95.6667 236.667 133 254 c 1
 184 264 l 1
 184 369 l 1
 190 422 l 1
 201.333 473.333 228 507.333 270 524 c 2
 285 530 l 1
 262 551 l 2
 242.667 568.333 221.667 582.667 199 594 c 2
 150 618 l 1
 104 639 l 1
 118 659 141.333 681 174 705 c 0
 261.333 769 363 801 479 801 c 0
 691 801 797 717 797 549 c 2
 797 0 l 1
199 178 m 0
 170.333 178 156 161.667 156 129 c 0
 156 96.3333 170.333 80 199 80 c 0
 227.667 80 242 96.3333 242 129 c 0
 242 161.667 227.667 178 199 178 c 0
EndSplineSet
MinimumDistance: x0,-1 
EndChar
StartChar: uni0E21
Encoding: 193 3617
OldEncoding: 3617
Width: 961
Flags: W
HStem: 512 90<242 262> 707 90<250 269> 775 20G<690 846>
VStem: 111 94<649 653> 276 156<141 272 423 512> 690 156<208 795>
Fore
846 143 m 2
 846 81.6667 824.667 38 782 12 c 1
 757.333 1.33333 731.667 -4 705 -4 c 0
 649.667 -4 608.667 17.6667 582 61 c 2
 541 127 l 1
 510.333 187.667 485 226.667 465 244 c 2
 432 272 l 1
 432 158 l 2
 432 97.3333 408.667 52.3333 362 23 c 0
 331.333 3.66667 294.667 -6 252 -6 c 0
 174 -6 120 31.3333 90 106 c 1
 80.6667 142 76 174.333 76 203 c 0
 76 316.333 131.333 388.667 242 420 c 1
 276 424 l 1
 276 512 l 1
 238 512 l 2
 202.667 512 172.667 526.5 148 555.5 c 0
 123.333 584.5 111 617 111 653 c 1
 115 684 l 2
 125 759.333 173.333 797 260 797 c 0
 374.667 797 432 738.333 432 621 c 2
 432 414 l 1
 467 401 l 1
 504.333 379.667 535 351 559 315 c 2
 618 227 l 2
 637.333 198.333 654 177.333 668 164 c 1
 682 176 l 1
 690 209 l 1
 690 795 l 1
 846 795 l 1
 846 143 l 2
276 154 m 2
 276 305 l 1
 238 307 l 2
 221.333 307.667 207 289.333 195 252 c 1
 186 190 l 1
 186 132.667 203.333 104 238 104 c 0
 263.333 104 276 120.667 276 154 c 2
256 707 m 0
 228.667 707 211.667 689 205 653 c 1
 205 619 222 602 256 602 c 0
 283.333 602 300.333 619 307 653 c 1
 307 689 290 707 256 707 c 0
EndSplineSet
MinimumDistance: x0,-1 
EndChar
StartChar: uni0E22
Encoding: 194 3618
OldEncoding: 3618
Width: 879
Flags: W
HStem: 0 109<291 558> 305 101<376 465> 702 95<296 314> 775 20G<612 768>
VStem: 121 133<612 649> 612 156<179.947 795>
Fore
768 168 m 2
 768 56 710.667 0 596 0 c 2
 133 0 l 1
 133 199 l 2
 133 248.333 152 290.667 190 326 c 0
 216 350 246.333 362 281 362 c 0
 211 362 161 399.667 131 475 c 1
 124.333 498.333 121 521.667 121 545 c 2
 121 612 l 2
 121 667.333 137.5 712 170.5 746 c 0
 203.5 780 247.667 797 303 797 c 0
 381 797 428.667 760.667 446 688 c 1
 451 643 l 1
 451 581.667 429 542.667 385 526 c 2
 348 512 l 1
 309 508 l 1
 283 510 l 1
 274 512 l 1
 281 465 l 1
 287.667 448.333 303 434 327 422 c 0
 348.333 411.333 369 406 389 406 c 2
 465 406 l 1
 465 305 l 1
 383 305 l 2
 350.333 305 324.333 291.333 305 264 c 1
 298.333 249.333 293.667 230.333 291 207 c 1
 291 109 l 1
 555 111 l 2
 569 111 582.333 120.667 595 140 c 0
 606.333 157.333 612 175 612 193 c 2
 612 795 l 1
 768 795 l 1
 768 168 l 2
305 702 m 0
 277.667 702 260.667 684.333 254 649 c 1
 254 615 271 598 305 598 c 0
 340.333 598 358 615 358 649 c 0
 358 684.333 340.333 702 305 702 c 0
EndSplineSet
MinimumDistance: x0,-1 
EndChar
StartChar: uni0E23
Encoding: 195 3619
OldEncoding: 3619
Width: 737
Flags: W
HStem: -2 90<430 453> 193 90<431 453> 649 109<578 580 586 596> 705 98<306 340>
VStem: 496 120<139 174>
Fore
707 692 m 1
 655 662 l 1
 635 653.333 614 649 592 649 c 0
 563.333 649 510 661.333 432 686 c 0
 392 698.667 357.333 705 328 705 c 0
 292 705 264.667 697.333 246 682 c 1
 215 651 l 1
 287 643 l 2
 322.333 639 368.333 626.333 425 605 c 0
 481.667 583.667 524.667 562.667 554 542 c 0
 595.333 513.333 616 478 616 436 c 2
 616 174 l 2
 616 56.6667 558 -2 442 -2 c 0
 360 -2 311.667 35.6667 297 111 c 1
 295 139 l 2
 292.333 176.333 304.167 209.667 330.5 239 c 0
 356.833 268.333 388.667 283 426 283 c 2
 459 283 l 1
 459 391 l 2
 459 417 456.333 437.667 451 453 c 0
 445 477 404 502.667 328 530 c 1
 223 557 l 1
 139 571 l 1
 86 573 l 1
 51 571 l 1
 53.6667 595.667 57 613.667 61 625 c 0
 88.3333 707.667 144.333 762 229 788 c 0
 261.667 798 293.333 803 324 803 c 0
 350.667 803 395.667 794 459 776 c 0
 515.667 760 558 754 586 758 c 1
 604.667 758 622.333 764 639 776 c 1
 657 799 l 1
 707 692 l 1
442 193 m 0
 414.667 193 397.667 175 391 139 c 1
 391 105 408 88 442 88 c 0
 478 88 496 105 496 139 c 0
 496 175 478 193 442 193 c 0
EndSplineSet
MinimumDistance: x10,-1 
EndChar
StartChar: uni0E24
Encoding: 196 3620
OldEncoding: 3620
Width: 905
Flags: W
HStem: -4 88<298 324> 698 103<418 469>
VStem: 371 86<124 141> 627 155<-291 558>
Fore
782 -291 m 1
 627 -291 l 1
 627 547 l 2
 627 647.667 566 698 444 698 c 0
 400.667 698 360.667 689.333 324 672 c 1
 310 668 295.667 659 281 645 c 1
 352 598 l 2
 366 588.667 384.667 572.333 408 549 c 2
 420 537 l 1
 393 524 l 1
 348.333 496.667 320.333 462 309 420 c 1
 303 369 l 1
 303 281 l 1
 350 279 l 1
 421.333 263.667 457 217 457 139 c 0
 457 43.6667 404.333 -4 299 -4 c 0
 197.667 -4 147 59.3333 147 186 c 2
 147 369 l 1
 154 422 l 1
 163.333 464 189 498 231 524 c 1
 246 530 l 1
 223 551 l 1
 164 592 l 1
 106 621 l 1
 68 639 l 1
 104 687.667 160 727.333 236 758 c 0
 306 786.667 374 801 440 801 c 0
 532.667 801 609.667 782.667 671 746 c 0
 745 701.333 782 635.667 782 549 c 2
 782 -291 l 1
317 188 m 0
 289.667 188 272.667 170.333 266 135 c 1
 266 101 283 84 317 84 c 0
 353 84 371 101 371 135 c 0
 371 170.333 353 188 317 188 c 0
EndSplineSet
MinimumDistance: x0,-1 
EndChar
StartChar: uni0E25
Encoding: 197 3621
OldEncoding: 3621
Width: 883
Flags: W
HStem: -8 90<293 311> 0 21G<602 760> 442 121<341 360> 694 115<389 453>
VStem: 125 156<279 313> 602 158<0 82 381 521>
Fore
760 0 m 1
 602 0 l 1
 602 63 l 2
 602 103.667 586.333 156.333 555 221 c 0
 554.333 224.333 542.667 248.333 520 293 c 0
 470.667 392.333 412.667 442 346 442 c 0
 302.667 442 281 408.667 281 342 c 2
 281 279 l 1
 309 281 l 2
 373 285.667 418 255.333 444 190 c 1
 453 158 l 1
 455 133 l 2
 458.333 89.6667 444.833 55.3333 414.5 30 c 0
 384.167 4.66667 347 -8 303 -8 c 0
 214.333 -8 159 37.6667 137 129 c 0
 129 162.333 125 216.333 125 291 c 0
 125 367.667 138.667 425.667 166 465 c 0
 211.333 530.333 274 563 354 563 c 0
 407.333 563 455.333 546.667 498 514 c 0
 520 497.333 543 470.667 567 434 c 2
 602 381 l 1
 602 514 l 2
 602 634 544 694 428 694 c 0
 288.667 694 202 660 168 592 c 1
 70 653 l 1
 86 680 l 2
 136.667 766 246.667 809 416 809 c 0
 590 809 698.333 755 741 647 c 0
 753.667 615 760 561.667 760 487 c 2
 760 0 l 1
305 188 m 0
 271 188 254 170.333 254 135 c 0
 254 99.6667 271 82 305 82 c 0
 335 82 352.667 99.6667 358 135 c 1
 358 170.333 340.333 188 305 188 c 0
EndSplineSet
MinimumDistance: x0,-1 
EndChar
StartChar: uni0E26
Encoding: 198 3622
OldEncoding: 3622
Width: 922
Flags: W
HStem: -4 86<197 219> 698 105<465 507>
VStem: 647 158<-305 560>
Fore
805 -305 m 1
 647 -305 l 1
 647 547 l 2
 647 602.333 635.167 641.333 611.5 664 c 0
 587.833 686.667 548 698 492 698 c 0
 445.333 698 404.333 689.333 369 672 c 1
 355 668 340.667 658.333 326 643 c 1
 352 629 l 1
 395 600 l 2
 409 590.667 428.333 573.667 453 549 c 2
 465 537 l 1
 438 524 l 2
 388 500 358.667 448.333 350 369 c 1
 350 150 l 2
 350 47.3333 303.667 -4 211 -4 c 0
 119.667 -4 74 40.3333 74 129 c 1
 78 166 l 2
 82.6667 207.333 103.667 236.667 141 254 c 1
 193 264 l 1
 193 369 l 1
 199 422 l 1
 209.667 472 236.333 506 279 524 c 2
 293 530 l 1
 270 551 l 2
 250.667 568.333 229.667 582.667 207 594 c 2
 158 618 l 1
 113 639 l 1
 135 671 173.667 702.333 229 733 c 0
 313 779.667 399 803 487 803 c 0
 699 803 805 718.333 805 549 c 2
 805 -305 l 1
207 180 m 0
 177 180 162 163.667 162 131 c 0
 162 98.3333 177 82 207 82 c 0
 235.667 82 250 98.3333 250 131 c 0
 250 163.667 235.667 180 207 180 c 0
EndSplineSet
MinimumDistance: x0,-1 
EndChar
StartChar: uni0E27
Encoding: 199 3623
OldEncoding: 3623
Width: 793
Flags: W
HStem: -2 88<498 522> 190 93<501.3 522> 688 113<334 371>
VStem: 530 158<282 510> 565 123<137 174>
Fore
688 174 m 2
 688 56.6667 630 -2 514 -2 c 0
 437.333 -2 389 35.6667 369 111 c 1
 365 141 l 1
 365 208.333 390.667 251.333 442 270 c 0
 465.333 278.667 484 283 498 283 c 2
 530 283 l 1
 530 494 l 2
 530 560.667 517.667 609 493 639 c 0
 465.667 671.667 419.333 688 354 688 c 0
 249.333 688 186 646.333 164 563 c 1
 31 616 l 1
 37 641 l 1
 68.3333 715.667 133.667 764 233 786 c 0
 279 796 320.667 801 358 801 c 0
 417.333 801 471.333 794 520 780 c 0
 531.333 776.667 545 770.667 561 762 c 0
 613 734 648 699 666 657 c 0
 680.667 623 688 573.333 688 508 c 2
 688 174 l 2
512 190 m 0
 484.667 190 467.667 172.333 461 137 c 1
 461 103 478 86 512 86 c 0
 547.333 86 565 103 565 137 c 0
 565 172.333 547.333 190 512 190 c 0
EndSplineSet
MinimumDistance: x0,-1 
EndChar
StartChar: uni0E28
Encoding: 200 3624
OldEncoding: 3624
Width: 936
Flags: W
HStem: 0 21G<190 356 672 827> 692 111<428 495>
VStem: 94 144<479 508> 530 91<415 420> 670 157<0 543>
Fore
498 582 m 1
 561 651 l 1
 592 674 l 1
 563.333 686 516.333 692 451 692 c 0
 321 692 250 630.667 238 508 c 1
 238 476 242.667 427 252 361 c 0
 262.667 285.667 273.667 240.333 285 225 c 1
 285 252.333 286.333 271.667 289 283 c 1
 302.333 468.333 364.333 561 475 561 c 1
 498 582 l 1
924 877 m 1
 918 856 l 2
 908 820.667 887.333 788 856 758 c 2
 805 709 l 1
 780 690 l 1
 788 678 l 2
 806.667 650 817 628 819 612 c 1
 827 543 l 1
 827 0 l 1
 672 0 l 1
 670 555 l 1
 670 569 667.333 581.333 662 592 c 2
 655 606 l 1
 573 532 l 1
 583 524 592.667 512 602 496 c 1
 616 459 l 1
 621 420 l 1
 621 357.333 591.333 315 532 293 c 0
 521.333 289 503.667 285.667 479 283 c 1
 457 283 442 284.333 434 287 c 1
 410 301 l 1
 395 248 l 1
 381 176 l 1
 367 90 l 1
 356 0 l 1
 190 0 l 1
 190 70 l 1
 187.333 94 182 123.333 174 158 c 1
 169.333 170.667 165.333 182.333 162 193 c 2
 119 330 l 2
 102.333 383.333 94 442.667 94 508 c 0
 94 606.667 131.667 682 207 734 c 0
 272.333 780 356.333 803 459 803 c 0
 520.333 803 570 797.333 608 786 c 2
 668 768 l 1
 688 780 l 1
 717 813 l 1
 748 864 l 1
 752 877 l 1
 924 877 l 1
481 469 m 0
 447 469 430 452.667 430 420 c 0
 430 387.333 447 371 481 371 c 0
 513.667 371 530 387.333 530 420 c 0
 530 452.667 513.667 469 481 469 c 0
EndSplineSet
MinimumDistance: x16,-1 
EndChar
StartChar: uni0E29
Encoding: 201 3625
OldEncoding: 3625
Width: 999
Flags: W
HStem: 0 109<135 231 386 627> 504 96<197.68 216> 705 92<197.061 216> 775 20G<690 846>
VStem: 231 156<109 504> 264 123<612 651> 416 84<428 449> 594 74<429 444> 690 156<194 258 410 795>
Fore
1044 469 m 1
 1030 430 l 1
 1013.33 401.333 987.333 372.667 952 344 c 0
 925.333 322 901.667 307 881 299 c 2
 846 285 l 1
 846 137 l 2
 846 69 817.333 26 760 8 c 1
 711 0 l 1
 135 0 l 1
 135 109 l 1
 231 109 l 1
 231 504 l 1
 180 504 l 1
 165.333 506.667 149 514 131 526 c 0
 87.6667 554.667 66 595.667 66 649 c 1
 72 698 l 2
 75.3333 726.667 92.6667 751 124 771 c 0
 152.667 788.333 182.333 797 213 797 c 0
 329 797 387 735.333 387 612 c 2
 387 109 l 1
 618 109 l 2
 659.333 109 682.667 126.667 688 162 c 1
 690 195 l 1
 690 258 l 1
 675.333 255.333 660.667 254 646 254 c 0
 586.667 254 534.667 269.667 490 301 c 0
 440.667 336.333 416 382.667 416 440 c 0
 416 481.333 433 515.667 467 543 c 0
 485.667 557.667 510.333 565 541 565 c 0
 568.333 565 590.667 559.667 608 549 c 1
 640.667 533.667 660.667 498.667 668 444 c 1
 668 422.667 661.667 401.667 649 381 c 1
 639 369 l 1
 664 365 l 1
 690 365 l 1
 690 795 l 1
 846 795 l 1
 846 410 l 1
 866 420 l 2
 893.333 434 915.333 460.667 932 500 c 1
 940 535 l 1
 1044 469 l 1
264 651 m 0
 264 687 246.333 705 211 705 c 0
 175.667 705 158 688.333 158 655 c 0
 158 618.333 175.667 600 211 600 c 0
 246.333 600 264 617 264 651 c 0
547 487 m 0
 515.667 488.333 500 472.667 500 440 c 0
 500 408.667 515.667 393 547 393 c 0
 578.333 393 594 408.667 594 440 c 0
 594 470 578.333 485.667 547 487 c 0
EndSplineSet
MinimumDistance: x4,-1 x10,8 x10,9 
EndChar
StartChar: uni0E2A
Encoding: 202 3626
OldEncoding: 3626
Width: 879
Flags: W
HStem: -2 90<303 315> 0 21G<604 762> 781 20G<410 461>
VStem: 125 158<285 319>
Fore
827 874 m 1
 819 832.667 803.333 799.333 780 774 c 2
 719 709 l 1
 705 696 l 1
 723 674 l 2
 738.333 654.667 747.333 637 750 621 c 1
 758 567 l 1
 762 510 l 1
 762 0 l 1
 604 0 l 1
 602 57 l 1
 600 117.667 576 193.667 530 285 c 0
 470.667 403.667 410 463 348 463 c 0
 324.667 463 307.667 450.667 297 426 c 1
 287.667 397.333 283 369.333 283 342 c 2
 283 285 l 1
 311 287 l 2
 375 291.667 420 261.667 446 197 c 1
 455 164 l 1
 457 139 l 2
 460.333 95.6667 446.833 61.3333 416.5 36 c 0
 386.167 10.6667 349 -2 305 -2 c 0
 258.333 -2 218.667 13 186 43 c 0
 145.333 81 125 165.667 125 297 c 0
 125 385 142 447.667 176 485 c 0
 202 513.667 258.667 543 346 573 c 0
 366 579.667 392.667 591.333 426 608 c 0
 443.333 615.333 474.667 632.333 520 659 c 1
 539 672 l 1
 477 690 l 1
 381 694 l 2
 319.667 696.667 267.667 681.667 225 649 c 1
 172 590 l 1
 70 655 l 1
 88 682 l 1
 119.333 718.667 164.333 748.667 223 772 c 1
 307 793 l 1
 410 801 l 1
 461 801 l 2
 520.333 801 567.333 791.333 602 772 c 2
 627 758 l 1
 639 772 l 1
 664 815 l 2
 672 829 676 845.333 676 864 c 2
 676 874 l 1
 827 874 l 1
604 377 m 1
 604 514 l 1
 602 563 l 2
 601.333 580.333 599.333 591.333 596 596 c 1
 569 580 l 1
 551 565.333 534 554.333 518 547 c 2
 467 524 l 1
 485 516 l 1
 503.667 502.667 518.667 489 530 475 c 2
 580 412 l 1
 604 377 l 1
313 195 m 0
 279 195 262 177 262 141 c 0
 262 105.667 279 88 313 88 c 0
 343 88 361 105.667 367 141 c 1
 367 177 349 195 313 195 c 0
EndSplineSet
MinimumDistance: x14,-1 
EndChar
StartChar: uni0E2B
Encoding: 203 3627
OldEncoding: 3627
Width: 956
Flags: W
HStem: 0 21G<207 365 686 842> 504 90<187 207> 698 99<184 207> 702 99<680 698>
VStem: 41 98<639 649> 207 158<301 504> 244 121<612 645> 524 107<628.446 642> 684 158<0 381>
Fore
842 0 m 1
 686 0 l 1
 684 406 l 1
 682.667 419.333 677.333 428.667 668 434 c 1
 645 440 l 1
 635 440 627 437.333 621 432 c 2
 610 422 l 1
 569 373 l 1
 557.667 355.667 532.667 317.333 494 258 c 2
 432 164 l 2
 401.333 117.333 379 62.6667 365 0 c 1
 207 0 l 1
 207 504 l 1
 188 504 l 1
 150.667 508 123.333 515.333 106 526 c 0
 62.6667 552 41 593 41 649 c 1
 45 688 l 1
 61.6667 760.667 109.333 797 188 797 c 0
 306 797 365 735.333 365 612 c 2
 365 301 l 1
 393 348 l 1
 455 434 l 2
 468.333 452.667 499 482 547 522 c 2
 565 537 l 1
 545 563 l 1
 531 587.667 524 613.667 524 641 c 0
 524 697 545.333 740.667 588 772 c 0
 614.667 791.333 648 801 688 801 c 0
 729.333 801 765 789.5 795 766.5 c 0
 825 743.5 842 710.667 846 668 c 1
 848 645 l 2
 851.333 609 839 575 811 543 c 1
 774 516 l 1
 782 512 l 2
 794.667 504 805.667 492.333 815 477 c 1
 836 432 l 1
 842 381 l 1
 842 0 l 1
244 645 m 0
 244 680.333 227 698 193 698 c 0
 157 698 139 681.667 139 649 c 0
 139 612.333 157 594 193 594 c 0
 227 594 244 611 244 645 c 0
690 702 m 0
 672.667 702 657.667 696 645 684 c 1
 638.333 674.667 633.667 660.333 631 641 c 1
 631 607 650.667 587.333 690 582 c 1
 724 582 744 601.667 750 641 c 1
 750 681.667 730 702 690 702 c 0
EndSplineSet
MinimumDistance: x0,-1 y12,10 y12,11 
EndChar
StartChar: uni0E2C
Encoding: 204 3628
OldEncoding: 3628
Width: 1008
Flags: W
HStem: 0 21G<209 367 729 885> 512 92<186 196> 709 88<186 204> 805 80<618 652>
VStem: 209 156<254 512> 727 158<254 633>
DStem: 545 387 590 559 729 0 727 254
Fore
1012 877 m 1
 995 842 l 2
 969 788.667 937 744.333 899 709 c 2
 885 696 l 1
 885 0 l 1
 729 0 l 1
 545 387 l 1
 367 0 l 1
 209 0 l 1
 209 512 l 1
 170 512 l 2
 134.667 512 104.333 527 79 557 c 0
 55 585 43 617 43 653 c 1
 47 684 l 2
 57 759.333 105.667 797 193 797 c 0
 307.667 797 365 738.333 365 621 c 2
 365 254 l 1
 494 559 l 1
 590 559 l 1
 727 254 l 1
 727 633 l 1
 690 621 l 1
 631 616 l 1
 580 618 l 1
 526 633 l 2
 476 647 451 683.667 451 743 c 0
 451 771 459.667 797.667 477 823 c 0
 505.667 864.333 560.333 885 641 885 c 2
 682 885 l 1
 701.333 881 736 867.333 786 844 c 1
 797.333 837.333 807.667 827.667 817 815 c 1
 829 827 l 1
 858 862 l 1
 872 893 l 1
 879 918 l 1
 1012 877 l 1
727 750 m 1
 727 786.667 697.667 805 639 805 c 0
 579 805 548.333 786.667 547 750 c 0
 545.667 711.333 576.333 692 639 692 c 0
 692.333 692 721.667 711.333 727 750 c 1
190 709 m 0
 163.333 709 146.333 691 139 655 c 1
 139 621 156 604 190 604 c 0
 217.333 604 234.667 621 242 655 c 1
 242 691 224.667 709 190 709 c 0
EndSplineSet
MinimumDistance: x3,-1 x7,9 y9,7 y9,8 
EndChar
StartChar: uni0E2D
Encoding: 205 3629
OldEncoding: 3629
Width: 895
Flags: W
HStem: 0 109<359 553> 457 90<309 328> 688 113<407 463>
VStem: 139 125<369 403> 139 158<162 262> 618 156<200 561>
Fore
774 178 m 2
 774 148.667 770 122 762 98 c 0
 748 56.6667 713 26.6667 657 8 c 1
 588 0 l 1
 313 0 l 2
 263 0 219.333 15 182 45 c 1
 153.333 73.6667 139 109.333 139 152 c 2
 139 369 l 2
 139 487.667 196.333 547 311 547 c 0
 390.333 547 439 508.667 457 432 c 1
 461 401 l 1
 461 335.667 435.667 293.333 385 274 c 0
 358.333 264 338.667 259.333 326 260 c 2
 297 262 l 1
 297 178 l 2
 297 132 321 109 369 109 c 2
 537 109 l 2
 588.333 109 614 127.333 614 164 c 0
 614 180 615.333 192.333 618 201 c 1
 618 539 l 2
 618 638.333 559.333 688 442 688 c 0
 314 688 230 650.333 190 575 c 1
 88 649 l 1
 98 672 l 1
 150 758 258.667 801 424 801 c 0
 573.333 801 677 762 735 684 c 0
 761 649.333 774 601 774 539 c 2
 774 178 l 2
315 457 m 0
 287.667 457 270.667 439 264 403 c 1
 264 369 281 352 315 352 c 0
 351 352 369 369 369 403 c 0
 369 439 351 457 315 457 c 0
EndSplineSet
MinimumDistance: x0,-1 
EndChar
StartChar: uni0E2E
Encoding: 206 3630
OldEncoding: 3630
Width: 877
Flags: W
HStem: 0 109<344 542> 403 93<284 309> 721 84<369 430>
VStem: 121 123<317 352> 121 158<159 211> 600 162<153 181 201 535>
Fore
809 799 m 1
 801 774 l 2
 795.667 756.667 787.333 740.333 776 725 c 2
 743 680 l 1
 725 664 l 1
 735 651 l 2
 745.667 637 752 623.333 754 610 c 2
 760 567 l 1
 762 535 l 1
 762 178 l 2
 762 86.6667 722.333 30 643 8 c 1
 573 0 l 1
 295 0 l 2
 244.333 0 200.667 15 164 45 c 1
 135.333 73.6667 121 109.333 121 152 c 2
 121 317 l 2
 121 436.333 179 496 295 496 c 0
 329.667 496 360.833 485.167 388.5 463.5 c 0
 416.167 441.833 434 414.333 442 381 c 1
 446 350 l 1
 446 287.333 419 245 365 223 c 1
 307 209 l 1
 279 211 l 1
 279 170 l 2
 279 129.333 303.333 109 352 109 c 2
 522 109 l 2
 574 109 600 127.333 600 164 c 0
 600 180 601.333 192.333 604 201 c 1
 602 575 l 1
 600.667 581.667 599.333 586 598 588 c 2
 594 592 l 1
 500 569 l 2
 467.333 561 424.333 557 371 557 c 0
 313.667 557 261 564 213 578 c 0
 143.667 598 109 629.333 109 672 c 0
 109 720 147.667 756 225 780 c 0
 278.333 796.667 336.333 805 399 805 c 0
 470.333 805 530.667 796 580 778 c 1
 597.333 774 615.667 764.667 635 750 c 1
 643 754 l 1
 659 774 l 1
 674 817 l 1
 678 842 l 1
 809 799 l 1
559 684 m 1
 504 709 l 1
 475.333 717 443.333 721 408 721 c 0
 310.667 721 260 706 256 676 c 1
 256 655.333 273.667 644.333 309 643 c 2
 412 639 l 2
 486.667 636.333 535.667 651.333 559 684 c 1
295 403 m 0
 261 403 244 386 244 352 c 0
 244 318 261 301 295 301 c 0
 329 301 346 318 346 352 c 0
 346 386 329 403 295 403 c 0
EndSplineSet
MinimumDistance: x8,-1 
EndChar
StartChar: uni0E2F
Encoding: 207 3631
OldEncoding: 3631
Width: 834
Flags: W
HStem: 438 99<368 391> 725 72<272 290>
VStem: 322 86<670 684> 590 155<199 521>
Fore
745 240 m 2
 745 181.333 741.667 141 735 119 c 0
 712.333 45 653 4 557 -4 c 2
 508 -8 l 1
 438 102 l 1
 489 104 l 1
 527.667 111.333 556.333 125.667 575 147 c 0
 585 158.333 590 181 590 215 c 2
 590 522 l 1
 543.333 466 476.333 438 389 438 c 0
 239 438 153 499 131 621 c 1
 129 647 l 2
 125.667 689.667 138.5 725.333 167.5 754 c 0
 196.5 782.667 232.667 797 276 797 c 0
 364 797 408 758.667 408 682 c 0
 408 665.333 406.333 654.333 403 649 c 1
 392.333 594.333 353 567 285 567 c 1
 305 553 l 1
 323 545 344.333 539.667 369 537 c 1
 387.667 537 401.333 538.333 410 541 c 0
 451.333 549 484 563.333 508 584 c 0
 552.667 622.667 580 682 590 762 c 2
 594 795 l 1
 657.333 795 701.667 780 727 750 c 0
 732.333 744 737 732.333 741 715 c 1
 745 672 l 1
 745 240 l 2
279 725 m 0
 250.333 725 236 710 236 680 c 0
 236 651.333 250.333 637 279 637 c 0
 307.667 637 322 651.333 322 680 c 0
 322 710 307.667 725 279 725 c 0
EndSplineSet
MinimumDistance: x0,-1 
EndChar
StartChar: uni0E30
Encoding: 208 3632
OldEncoding: 3632
Width: 711
Flags: W
HStem: 250 80<217 235> 688 80<217 235>
VStem: 74 90<170 186 609 625> 291 84<623 637>
Fore
365 578 m 1
 403 588 l 2
 474.333 606.667 539.333 655 598 733 c 1
 629 784 l 1
 629 610 l 1
 590 569 l 1
 549.333 534.333 509.667 510.667 471 498 c 2
 375 467 l 2
 350.333 459 321.667 455 289 455 c 0
 211 455 151 477.333 109 522 c 1
 85.6667 552 74 585 74 621 c 0
 74 665 89 700.5 119 727.5 c 0
 149 754.5 186.333 768 231 768 c 0
 293 768 336 744 360 696 c 0
 370 676 375 655.667 375 635 c 0
 375 615 373.667 601.333 371 594 c 2
 365 578 l 1
365 141 m 1
 403 152 l 2
 481 174.667 546 222.333 598 295 c 1
 629 348 l 1
 629 172 l 1
 590 131 l 2
 559.333 98.3333 521.667 75 477 61 c 2
 377 29 l 2
 354.333 21.6667 326.333 18 293 18 c 0
 212.333 18 151.667 40.6667 111 86 c 0
 86.3333 113.333 74 146 74 184 c 0
 74 228.667 88.5 264.167 117.5 290.5 c 0
 146.5 316.833 183.667 330 229 330 c 0
 260.333 330 287.667 322.333 311 307 c 1
 348.333 288.333 369.667 251.667 375 197 c 1
 369 150 l 1
 365 141 l 1
229 121 m 0
 247 121 262 127 274 139 c 1
 282.667 150.333 288.333 165.333 291 184 c 1
 291 228 269.667 250 227 250 c 0
 191 250 170 228.667 164 186 c 1
 164 142.667 185.667 121 229 121 c 0
229 559 m 0
 251.667 559 268.333 567.333 279 584 c 0
 285 593.333 289 606.333 291 623 c 1
 291 666.333 269.667 688 227 688 c 0
 191 688 170 667 164 625 c 1
 164 581 185.667 559 229 559 c 0
EndSplineSet
MinimumDistance: x7,-1 
EndChar
StartChar: uni0E31
Encoding: 209 3633
OldEncoding: 3633
Width: 0
Flags: W
HStem: 1167 76<-481.393 -462>
VStem: -610 82<1096 1118>
Fore
47 1051 m 1
 -1 1002.33 -63.6667 964 -141 936 c 0
 -167.667 926 -194.333 920 -221 918 c 2
 -303 911 l 2
 -340.333 907.667 -376 910.667 -410 920 c 2
 -498 944 l 1
 -572.667 972.667 -610 1024 -610 1098 c 0
 -610 1153.33 -589 1194.33 -547 1221 c 0
 -524.333 1235.67 -497 1243 -465 1243 c 0
 -385.667 1243 -337 1205.33 -319 1130 c 1
 -317 1106 l 2
 -315.667 1088.67 -322 1066.67 -336 1040 c 1
 -354 1016 l 1
 -311 1014 l 1
 -227 1020 l 2
 -208.333 1021.33 -179.667 1031.67 -141 1051 c 0
 -77.6667 1083 -30.6667 1119 0 1159 c 2
 47 1221 l 1
 47 1051 l 1
-406 1106 m 0
 -406 1146.67 -426.333 1167 -467 1167 c 0
 -507.667 1167 -528 1146 -528 1104 c 0
 -528 1062.67 -507.667 1042 -467 1042 c 0
 -426.333 1042 -406 1063.33 -406 1106 c 0
EndSplineSet
MinimumDistance: x20,-1 
EndChar
StartChar: uni0E32
Encoding: 210 3634
OldEncoding: 3634
Width: 659
Flags: W
HStem: 0 21G<420 578> 678 121<273 297>
VStem: 420 158<0 513>
Fore
135 600 m 1
 18 639 l 1
 29.3333 676.333 42.3333 703 57 719 c 0
 105 772.333 184.333 799 295 799 c 0
 483.667 799 578 698 578 496 c 2
 578 0 l 1
 420 0 l 1
 420 481 l 2
 420 612.333 373 678 279 678 c 0
 227 678 187.333 665 160 639 c 0
 152 631 143.667 618 135 600 c 1
EndSplineSet
MinimumDistance: x4,-1 
EndChar
StartChar: uni0E33
Encoding: 211 3635
OldEncoding: 3635
Width: 659
Flags: W
HStem: 0 21G<414 571> 678 121<260 291> 909 88<-236 -218> 1151 92<-236 -218>
VStem: 414 157<0 513>
Fore
-227 1243 m 0
 -177.667 1243 -137.333 1227.33 -106 1196 c 0
 -74.6667 1164.67 -59 1124.33 -59 1075 c 0
 -59 1025.67 -74.6667 985.667 -106 955 c 0
 -137.333 924.333 -177.667 909 -227 909 c 0
 -275 909 -315 924.667 -347 956 c 0
 -379 987.333 -395 1027 -395 1075 c 0
 -395 1124.33 -379.333 1164.67 -348 1196 c 0
 -316.667 1227.33 -276.333 1243 -227 1243 c 0
-227 997 m 0
 -177 997 -151.333 1022.33 -150 1073 c 0
 -148 1125 -173.667 1151 -227 1151 c 0
 -277 1151 -303 1125 -305 1073 c 0
 -307 1022.33 -281 997 -227 997 c 0
129 600 m 1
 12 639 l 1
 22.6667 675 35.6667 701.667 51 719 c 0
 99 772.333 178.333 799 289 799 c 0
 477 799 571 698 571 496 c 2
 571 0 l 1
 414 0 l 1
 414 481 l 2
 414 612.333 366.667 678 272 678 c 0
 220.667 678 181.333 665 154 639 c 0
 146 631 137.667 618 129 600 c 1
EndSplineSet
MinimumDistance: x16,-1 
EndChar
StartChar: uni0E34
Encoding: 212 3636
OldEncoding: 3636
Width: 0
Flags: W
HStem: 958 80<-493 -427> 1133 88<-461 -427>
Fore
-436 1221 m 0
 -325.333 1221 -237.333 1169 -172 1065 c 0
 -124 989 -100 918 -100 852 c 1
 -132 876 -160.667 893.667 -186 905 c 0
 -266 940.333 -355.667 958 -455 958 c 0
 -580.333 958 -683.333 942.333 -764 911 c 1
 -764 1001.67 -731.667 1076.33 -667 1135 c 0
 -605 1192.33 -528 1221 -436 1221 c 0
-436 1133 m 0
 -500 1133 -549.333 1115 -584 1079 c 0
 -593.333 1069.67 -604 1051.33 -616 1024 c 1
 -590 1028 l 2
 -546.667 1034.67 -498 1038 -444 1038 c 0
 -384.667 1038 -337.667 1032 -303 1020 c 2
 -242 999 l 1
 -281.333 1088.33 -346 1133 -436 1133 c 0
EndSplineSet
EndChar
StartChar: uni0E35
Encoding: 213 3637
OldEncoding: 3637
Width: 0
Flags: W
HStem: 936 80<-491 -425> 1110 88<-441.937 -425>
Fore
-762 889 m 1
 -762 961 -740.167 1024.67 -696.5 1080 c 0
 -652.833 1135.33 -596 1171.33 -526 1188 c 1
 -442 1198 l 1
 -379.333 1198 -322.667 1183 -272 1153 c 1
 -272 1253 l 1
 -119 1253 l 1
 -119 942 l 1
 -106 891 l 1
 -98 829 l 1
 -131.333 854.333 -160 872.333 -184 883 c 0
 -262.667 918.333 -352.333 936 -453 936 c 0
 -578.333 936 -681.333 920.333 -762 889 c 1
-434 1110 m 0
 -498.667 1110 -548 1092.33 -582 1057 c 0
 -591.333 1047.67 -602 1029 -614 1001 c 1
 -588 1006 l 2
 -553.333 1012.67 -504.667 1016 -442 1016 c 0
 -386.667 1016 -339.667 1009.67 -301 997 c 2
 -240 977 l 1
 -279.333 1065.67 -344 1110 -434 1110 c 0
EndSplineSet
EndChar
StartChar: uni0E36
Encoding: 214 3638
OldEncoding: 3638
Width: 0
Flags: W
HStem: 934 80<-493 -411> 1108 88<-461 -427> 1212 70<-211 -199>
Fore
-764 887 m 1
 -764 939 -750.333 989.333 -723 1038 c 0
 -695.667 1086.67 -660 1124.33 -616 1151 c 0
 -566.667 1181 -508.667 1196 -442 1196 c 0
 -401.333 1196 -368.667 1191.33 -344 1182 c 1
 -340 1196 l 1
 -325.333 1228.67 -298 1253.33 -258 1270 c 0
 -238.667 1278 -221 1282 -205 1282 c 0
 -167.667 1282 -136.167 1270.67 -110.5 1248 c 0
 -84.8333 1225.33 -72 1195.67 -72 1159 c 1
 -80 1106 l 1
 -82.6667 1086.67 -90.6667 1070.33 -104 1057 c 1
 -160 1022 l 1
 -139 981 l 1
 -121 940 l 1
 -109 907 l 1
 -106 848 l 1
 -136.667 867.333 -164 881.667 -188 891 c 0
 -262 919.667 -351 934 -455 934 c 0
 -580.333 934 -683.333 918.333 -764 887 c 1
-436 1108 m 0
 -500.667 1108 -550 1090.33 -584 1055 c 0
 -593.333 1045.67 -604 1027 -616 999 c 1
 -590 1004 l 2
 -555.333 1010.67 -506.667 1014 -444 1014 c 0
 -388.667 1014 -341.667 1007.67 -303 995 c 2
 -242 975 l 1
 -281.333 1063.67 -346 1108 -436 1108 c 0
-201 1087 m 0
 -165 1087 -144.333 1107 -139 1147 c 1
 -139 1190.33 -162.333 1212 -209 1212 c 0
 -244.333 1212 -262 1191.67 -262 1151 c 1
 -256 1118 l 1
 -245.333 1097.33 -227 1087 -201 1087 c 0
EndSplineSet
EndChar
StartChar: uni0E37
Encoding: 215 3639
OldEncoding: 3639
Width: 0
Flags: W
HStem: 950 80<-480 -430> 1124 146<-446 -430>
Fore
-767 903 m 1
 -755 975 l 1
 -721.667 1099 -646.667 1175.33 -530 1204 c 1
 -446 1212 l 1
 -446 1270 l 1
 -323 1270 l 1
 -323 1190 l 1
 -286 1169 l 1
 -245 1141 l 1
 -245 1270 l 1
 -112 1270 l 1
 -112 913 l 1
 -102 844 l 1
 -135.333 868.667 -164 886.333 -188 897 c 0
 -266.667 932.333 -356 950 -456 950 c 0
 -582.667 950 -686.333 934.333 -767 903 c 1
-440 1124 m 0
 -501.333 1124 -549.667 1106.33 -585 1071 c 0
 -594.333 1061.67 -605.333 1043.33 -618 1016 c 1
 -591 1020 l 2
 -545.667 1026.67 -497.333 1030 -446 1030 c 0
 -387.333 1030 -340.333 1024 -305 1012 c 2
 -243 991 l 1
 -282.333 1079.67 -348 1124 -440 1124 c 0
EndSplineSet
EndChar
StartChar: uni0E38
Encoding: 216 3640
OldEncoding: 3640
Width: 0
Flags: W
HStem: -264 82<-281 -268>
VStem: -377 76<-157 -139> -258 141<-412 -260>
Fore
-117 -412 m 1
 -258 -412 l 1
 -258 -260 l 1
 -266 -262.667 -273.667 -264 -281 -264 c 0
 -288.333 -264 -294.333 -262.667 -299 -260 c 2
 -330 -242 l 1
 -361.333 -218.667 -377 -188 -377 -150 c 0
 -377 -84 -333.333 -46.3333 -246 -37 c 1
 -203 -43 l 1
 -145.667 -62.3333 -117 -111.333 -117 -190 c 2
 -117 -412 l 1
-227 -145 m 0
 -227 -122.333 -240 -111 -266 -111 c 0
 -289.333 -111 -301 -122.333 -301 -145 c 0
 -301 -169.667 -290 -182 -268 -182 c 0
 -240.667 -182 -227 -169.667 -227 -145 c 0
EndSplineSet
MinimumDistance: x0,-1 
EndChar
StartChar: uni0E39
Encoding: 217 3641
OldEncoding: 3641
Width: 0
Flags: W
HStem: -295 88<-505 -487> -113 78<-495 -473>
VStem: -614 79<-172 -158> -262 151<-254 -42>
Fore
-313 -303 m 1
 -297 -301 l 1
 -291 -299 l 1
 -272 -283 l 1
 -262 -254 l 1
 -262 -41 l 1
 -106 -41 l 1
 -111 -313 l 1
 -115 -331 -123 -345.333 -135 -356 c 2
 -168 -385 l 1
 -174.667 -389 -186.333 -392.333 -203 -395 c 1
 -477 -395 l 1
 -477 -293 l 1
 -489.667 -294.333 -498.667 -295 -504 -295 c 0
 -577.333 -295 -614 -252.667 -614 -168 c 0
 -614 -128 -600.667 -95.8333 -574 -71.5 c 0
 -547.333 -47.1667 -513.667 -35 -473 -35 c 0
 -385.667 -35 -342 -89.6667 -342 -199 c 2
 -342 -301 l 1
 -313 -303 l 1
-489 -207 m 0
 -467.667 -207 -454.333 -192.667 -449 -164 c 1
 -449 -130 -464 -113 -494 -113 c 0
 -515.333 -113 -529 -128 -535 -158 c 1
 -535 -190.667 -519.667 -207 -489 -207 c 0
EndSplineSet
MinimumDistance: x7,-1 
EndChar
StartChar: uni0E3A
Encoding: 218 3642
OldEncoding: 3642
Width: 0
Flags: W
Fore
-211 -195 m 0
 -133 -195 -94 -233.667 -94 -311 c 0
 -94 -345.667 -104.833 -373.833 -126.5 -395.5 c 0
 -148.167 -417.167 -176.333 -428 -211 -428 c 0
 -287.667 -428 -326 -389 -326 -311 c 0
 -326 -278.333 -315 -250.833 -293 -228.5 c 0
 -271 -206.167 -243.667 -195 -211 -195 c 0
EndSplineSet
EndChar
StartChar: dottedcircle
Encoding: 221 9676
OldEncoding: 65537
Width: 1269
VWidth: 1000
Flags: W
HStem: 31 0<236.615 660 246.462 660> 31 100<452 470> 45 100<821.959 838> 153 100<324 338> 169 100<932 950> 343 100<980 998> 352 100<276 290> 523 100<932 950> 531 100<327 342> 643 100<805.959 822> 653 100<468 476> 699 100<647.959 663>
VStem: 229 100<391 404> 278 100<192.959 206> 288 100<571 590> 410 100<76 83> 424 100<692 705> 610 100<28 34 741 755> 766 100<684 703> 782 100<92 98> 892 100<208.959 222 562.959 583> 940 100<382.959 404>
Fore
322.68 603.454 m 6
458.68 725.454 m 6
444.68 103.454 m 6
312.68 225.454 m 6
816.68 117.454 m 6
926.68 241.454 m 6
926.68 595.454 m 6
800.68 715.454 m 6
974.68 415.454 m 6
263.68 424.454 m 6
642.68 771.454 m 6
338 631 m 0
 365.63 630.999 388 608.631 388 581 c 0
 388 553.37 365.63 531 338 531 c 0
 310.37 531 288 553.37 288 581 c 0
 288 608.629 310.37 631.001 338 631 c 0
338 581 m 0
 337.959 581 338 580.959 338 581 c 0
 338 581.041 337.959 581 338 581 c 0
 338.041 581 338 581.041 338 581 c 0
 338 580.958 338.042 581 338 581 c 0
474 753 m 0
 501.63 752.999 524 730.632 524 703 c 0
 524 675.369 501.631 653 474 653 c 0
 446.37 653 424 675.37 424 703 c 0
 424 730.63 446.37 753.001 474 753 c 0
474 703 m 0
 473.958 703 474 702.958 474 703 c 0
 474 703.041 473.959 703 474 703 c 0
 474.042 703 474 703.042 474 703 c 0
 474 702.958 474.042 703 474 703 c 0
460 131 m 0
 487.63 131 510 108.63 510 81 c 0
 510 53.3699 487.631 31.0001 460 31 c 0
 432.37 30.9999 410 53.37 410 81 c 0
 410 108.63 432.37 131 460 131 c 0
460 81 m 0
 459.958 81 460 80.9586 460 81 c 0
 460 81.041 459.959 81 460 81 c 0
 460.041 81 460 81.0413 460 81 c 0
 460 80.9588 460.041 81 460 81 c 0
328 253 m 0
 355.63 253 378 230.631 378 203 c 0
 378 175.37 355.63 153 328 153 c 0
 300.37 153 278 175.37 278 203 c 0
 278 230.63 300.37 253 328 253 c 0
328 203 m 0
 327.959 203 328 202.959 328 203 c 0
 328 203.041 327.959 203 328 203 c 0
 328.041 203 328 203.041 328 203 c 0
 328 202.959 328.041 203 328 203 c 0
832 145 m 0
 859.63 145 882 122.63 882 95 c 0
 882 67.3698 859.63 45.0001 832 45 c 0
 804.369 44.9999 782.001 67.37 782 95 c 0
 781.999 122.63 804.37 145 832 145 c 0
832 95 m 0
 831.959 95.0001 831.999 94.9593 832 95 c 0
 832.001 95.0415 831.959 95.0001 832 95 c 0
 832.04 94.9999 832.001 95.0405 832 95 c 0
 831.999 94.9582 832.042 94.9999 832 95 c 0
942 269 m 0
 969.63 269 992 246.631 992 219 c 0
 992 191.37 969.63 169 942 169 c 0
 914.369 169 892.001 191.37 892 219 c 0
 891.999 246.63 914.371 269 942 269 c 0
942 219 m 0
 941.959 219 941.999 218.959 942 219 c 0
 942.001 219.041 941.959 219 942 219 c 0
 942.04 219 942.001 219.041 942 219 c 0
 941.999 218.958 942.042 219 942 219 c 0
942 623 m 0
 969.63 622.999 992 600.631 992 573 c 0
 992 545.37 969.63 523 942 523 c 0
 914.369 523 892.001 545.37 892 573 c 0
 891.999 600.629 914.371 623.001 942 623 c 0
942 573 m 0
 941.959 573 941.999 572.959 942 573 c 0
 942.001 573.042 941.958 573 942 573 c 0
 942.04 573 942.001 573.041 942 573 c 0
 941.999 572.958 942.042 573 942 573 c 0
816 743 m 0
 843.63 742.999 866 720.632 866 693 c 0
 866 665.369 843.63 643 816 643 c 0
 788.369 642.999 766.001 665.37 766 693 c 0
 765.999 720.63 788.37 743.001 816 743 c 0
816 693 m 0
 815.958 693 816 692.958 816 693 c 0
 816 693.042 815.958 693 816 693 c 0
 816.042 693 816.001 693.042 816 693 c 0
 815.999 692.958 816.042 693 816 693 c 0
990 443 m 0
 1017.63 443 1040 420.63 1040 393 c 0
 1040 365.37 1017.63 343 990 343 c 0
 962.369 343 940.001 365.37 940 393 c 0
 939.999 420.63 962.371 443 990 443 c 0
990 393 m 0
 989.959 393 989.999 392.959 990 393 c 0
 990.001 393.041 989.959 393 990 393 c 0
 990.04 393 990.001 393.041 990 393 c 0
 989.999 392.958 990.042 393 990 393 c 0
279 452 m 0
 306.63 452 329 429.63 329 402 c 0
 329 374.37 306.63 352 279 352 c 0
 251.37 352 229 374.37 229 402 c 0
 229 429.63 251.37 452 279 452 c 0
279 402 m 0
 278.959 402 279 401.959 279 402 c 0
 279 402.041 278.959 402 279 402 c 0
 279.041 402 279 402.041 279 402 c 0
 279 401.959 279.041 402 279 402 c 0
660 81 m 0
 687.63 81 710.001 58.6301 710 31 c 0
 709.999 3.36988 687.632 -19 660 -19 c 0
 632.369 -19 610 3.36997 610 31 c 0
 610 58.6301 632.37 81 660 81 c 0
660 31 m 0
 659.958 30.9999 660.039 31.015 660 31 c 0
 660 31 l 0
 660 31 l 0
 659.961 31.0149 660.041 31.0001 660 31 c 0
658 799 m 0
 685.63 798.999 708.001 776.632 708 749 c 0
 707.999 721.369 685.632 699.001 658 699 c 0
 630.369 698.999 608 721.37 608 749 c 0
 608 776.63 630.37 799.001 658 799 c 0
658 749 m 0
 657.958 749 658 748.958 658 749 c 0
 658 749.041 657.959 749 658 749 c 0
 658.042 749 658 749.042 658 749 c 0
 658 748.958 658.042 749 658 749 c 0
EndSplineSet
MinimumDistance: x76,-1 
EndChar
StartChar: uni0E3F
Encoding: 223 3647
OldEncoding: 3647
Width: 864
Flags: W
HStem: -16 20G<111 365> 920 20G<111 365>
VStem: 111 159<133 426 547 817> 365 129<-162 4 135 424 549 817 940 1092> 612 166<685 707> 631 172<244 285>
Fore
365 547 m 1
 365 817 l 1
 270 817 l 1
 270 547 l 1
 365 547 l 1
365 133 m 1
 365 426 l 1
 270 426 l 1
 270 133 l 1
 365 133 l 1
494 424 m 1
 494 135 l 1
 537.333 135 571 149 595 177 c 0
 619 205 631 241 631 285 c 0
 631 324.333 618 357.333 592 384 c 0
 566 410.667 533.333 424 494 424 c 1
494 817 m 1
 494 549 l 1
 529.333 549 558.333 563.667 581 593 c 0
 601.667 619.667 612 651.333 612 688 c 0
 612 736.667 593 774.333 555 801 c 0
 545.667 807.667 525.333 813 494 817 c 1
365 1092 m 1
 494 1092 l 1
 494 940 l 1
 582.667 940 645.333 927 682 901 c 0
 746 855.667 778 791 778 707 c 0
 778 599 722 528 610 494 c 1
 608 481 l 1
 666 469 713 441.333 749 398 c 0
 785 354.667 803 303.333 803 244 c 0
 803 170 770.333 106.333 705 53 c 0
 681 33.6667 650.667 20 614 12 c 1
 494 4 l 1
 494 -162 l 1
 365 -162 l 1
 365 4 l 1
 111 4 l 1
 111 940 l 1
 365 940 l 1
 365 1092 l 1
EndSplineSet
MinimumDistance: x26,-1 y35,19 y35,18 y33,35 y34,32 x32,34 x32,33 
EndChar
StartChar: uni0E40
Encoding: 224 3648
OldEncoding: 3648
Width: 481
Flags: W
HStem: -2 90<283.727 300> 775 20G<123 281>
VStem: 123 123<139 174> 123 158<282 795>
Fore
440 111 m 2
 430 35.6667 382.333 -2 297 -2 c 0
 181 -2 123 56.6667 123 174 c 2
 123 795 l 1
 281 795 l 1
 281 283 l 1
 315 281 l 2
 353 279 384 264.833 408 238.5 c 0
 432 212.167 444 179.667 444 141 c 1
 440 111 l 2
297 193 m 0
 263 193 246 175 246 139 c 0
 246 105 263 88 297 88 c 0
 324.333 88 341.333 105 348 139 c 1
 348 175 331 193 297 193 c 0
EndSplineSet
MinimumDistance: x4,-1 
EndChar
StartChar: uni0E41
Encoding: 225 3649
OldEncoding: 3649
Width: 868
Flags: W
HStem: -2 88<289 311 660 684> 775 20G<117 274 510 668>
VStem: 117 157<282 795> 510 158<282 795>
Fore
827 111 m 2
 818.333 35.6667 770.667 -2 684 -2 c 0
 568 -2 510 56.6667 510 174 c 2
 510 795 l 1
 668 795 l 1
 668 283 l 1
 702 281 l 2
 737.333 279 767.667 264.667 793 238 c 0
 818.333 211.333 831 180.333 831 145 c 1
 827 111 l 2
434 111 m 2
 424 35.6667 376.333 -2 291 -2 c 0
 175 -2 117 56.6667 117 174 c 2
 117 795 l 1
 274 795 l 1
 274 283 l 1
 309 281 l 2
 347 279 378 264.833 402 238.5 c 0
 426 212.167 438 179.667 438 141 c 1
 434 111 l 2
674 190 m 0
 646.667 190 629.667 172.333 623 137 c 1
 623 103 640 86 674 86 c 0
 701.333 86 718.333 103 725 137 c 1
 725 172.333 708 190 674 190 c 0
299 190 m 0
 271.667 190 254.667 172.333 248 137 c 1
 248 103 265 86 299 86 c 0
 334.333 86 352 103 352 137 c 0
 352 172.333 334.333 190 299 190 c 0
EndSplineSet
MinimumDistance: x4,-1 
EndChar
StartChar: uni0E42
Encoding: 226 3650
OldEncoding: 3650
Width: 520
Flags: W
HStem: -2 88<330 346> 190 93<330 348> 1257 107<509 535> 1325 94<215 246>
VStem: 162 155<282 1039>
Fore
653 1303 m 1
 629 1280 l 1
 604.333 1264.67 573 1257 535 1257 c 0
 501.667 1257 453.5 1268.33 390.5 1291 c 0
 327.5 1313.67 279.333 1325 246 1325 c 0
 195.333 1325 156.333 1306 129 1268 c 1
 115 1235 l 1
 166 1223 l 2
 194 1216.33 222.333 1202.67 251 1182 c 0
 281.667 1158.67 301.667 1134.67 311 1110 c 0
 315 1099.33 317 1073.33 317 1032 c 2
 317 283 l 1
 346 283 l 2
 358 283 377 278 403 268 c 0
 459 246 485 203.667 481 141 c 2
 479 111 l 1
 464.333 35.6667 416 -2 334 -2 c 0
 219.333 -2 162 56.6667 162 174 c 2
 162 1032 l 2
 162 1078 147.667 1108.67 119 1124 c 0
 82.3333 1144 46.6667 1155 12 1157 c 2
 -53 1161 l 1
 -53 1195.67 -47.6667 1226.33 -37 1253 c 0
 -11 1319 33.3333 1365.67 96 1393 c 0
 135.333 1410.33 175 1419 215 1419 c 0
 238.333 1419 296.333 1406.67 389 1382 c 0
 434.333 1370 474.667 1364 510 1364 c 0
 540 1364 564 1370.67 582 1384 c 1
 606 1411 l 1
 653 1303 l 1
336 190 m 0
 308.667 190 291.667 172.333 285 137 c 1
 285 103 302 86 336 86 c 0
 363.333 86 380.333 103 387 137 c 1
 387 172.333 370 190 336 190 c 0
EndSplineSet
MinimumDistance: x10,-1 
EndChar
StartChar: uni0E43
Encoding: 227 3651
OldEncoding: 3651
Width: 604
Flags: W
HStem: -2 88<420 438>
VStem: 150 69<1085 1119> 250 127<137 174> 250 158<282 905> 330 131<1181 1215>
DStem: 84 1245 84 1245 53 1241 123 1239
Fore
567 111 m 2
 557 35.6667 509.333 -2 424 -2 c 0
 308 -2 250 56.6667 250 174 c 2
 250 895 l 2
 250 955.667 263.667 1007 291 1049 c 0
 309.667 1077.67 322 1113 328 1155 c 0
 329.333 1164.33 330 1179.33 330 1200 c 0
 330 1285.33 301.333 1331.67 244 1339 c 2
 190 1346 l 1
 141.333 1346 104 1328.67 78 1294 c 0
 70 1283.33 61.6667 1265.67 53 1241 c 1
 84 1245 l 1
 123 1239 l 2
 187 1229 219 1183.33 219 1102 c 0
 219 1047.33 202 1009 168 987 c 0
 147.333 973.667 124.667 967 100 967 c 0
 65.3333 967 32.1667 980.667 0.5 1008 c 0
 -31.1667 1035.33 -49.6667 1066 -55 1100 c 1
 -59 1167 l 2
 -63.6667 1245 -42.3333 1309.33 5 1360 c 0
 52.3333 1410.67 115 1436 193 1436 c 0
 318.333 1436 400.667 1391.67 440 1303 c 0
 454 1271.67 461 1240 461 1208 c 0
 461 1181.33 458.333 1159 453 1141 c 2
 432 1069 l 1
 412 991 l 1
 408 905 l 1
 408 283 l 1
 442 281 l 2
 480 279 511 264.833 535 238.5 c 0
 559 212.167 571 179.667 571 141 c 1
 567 111 l 2
102 1036 m 1
 134 1036 150 1057.33 150 1100 c 0
 150 1152 130.667 1178 92 1178 c 0
 60.6667 1178 45 1156.67 45 1114 c 0
 45 1067.33 64 1041.33 102 1036 c 1
428 190 m 0
 394 190 377 172.333 377 137 c 0
 377 103 394 86 428 86 c 0
 455.333 86 472.333 103 479 137 c 1
 479 172.333 462 190 428 190 c 0
EndSplineSet
MinimumDistance: x22,-1 
EndChar
StartChar: uni0E44
Encoding: 228 3652
OldEncoding: 3652
Width: 612
Flags: W
HStem: -2 90<408 418>
VStem: 240 125<139 174> 242 155<282 959>
Fore
559 111 m 1
 544.333 35.6667 496 -2 414 -2 c 0
 298 -2 240 56.6667 240 174 c 1
 242 948 l 1
 242 984.667 248 1016.67 260 1044 c 0
 263.333 1051.33 269.667 1065.67 279 1087 c 1
 309 1165 l 1
 319 1221 l 1
 319 1247 309.667 1260 291 1260 c 0
 281 1260 270.667 1254.33 260 1243 c 1
 213 1174 l 1
 162 1094 l 2
 146 1069.33 127.333 1057 106 1057 c 0
 84.6667 1057 62.3333 1086.33 39 1145 c 0
 20.3333 1191.67 3.33333 1227 -12 1251 c 0
 -19.3333 1262.33 -30.3333 1268.67 -45 1270 c 2
 -66 1270 l 1
 -33 1438 l 1
 10 1436 l 2
 22.6667 1435.33 37.6667 1423 55 1399 c 0
 63 1387.67 75.3333 1356.33 92 1305 c 0
 104 1267.67 117 1248.33 131 1247 c 1
 225 1362 l 2
 256.333 1400 290.667 1419 328 1419 c 1
 356 1415 l 2
 426 1405 461 1354.67 461 1264 c 0
 461 1236.67 452.667 1193.67 436 1135 c 2
 410 1044 l 2
 401.333 1013.33 397 980.667 397 946 c 2
 397 283 l 1
 432 281 l 2
 445.333 280.333 462.333 276 483 268 c 0
 539 246.667 565 204.333 561 141 c 1
 559 111 l 1
416 193 m 0
 382 193 365 175 365 139 c 0
 365 105 382 88 416 88 c 0
 443.333 88 460.333 105 467 139 c 1
 467 175 450 193 416 193 c 0
EndSplineSet
MinimumDistance: x28,-1 
EndChar
StartChar: uni0E45
Encoding: 229 3653
OldEncoding: 3653
Width: 412
Flags: W
HStem: -256 21G<162 319> 674 121<15 39>
VStem: 162 157<-256 497>
Fore
-123 596 m 1
 -240 635 l 1
 -228.667 671.667 -215 698.333 -199 715 c 0
 -149 768.333 -69.6667 795 39 795 c 0
 225.667 795 319 694 319 492 c 2
 319 -256 l 1
 162 -256 l 1
 162 477 l 2
 162 608.333 114.667 674 20 674 c 0
 -32 674 -71.3333 661 -98 635 c 0
 -106 627 -114.333 614 -123 596 c 1
EndSplineSet
MinimumDistance: x4,-1 
EndChar
StartChar: uni0E46
Encoding: 230 3654
OldEncoding: 3654
Width: 903
Flags: W
HStem: 779 20G<592 629>
VStem: 377 84<468 486> 647 158<-12 602>
Fore
805 35 m 2
 805 -22.3333 801.667 -66.6667 795 -98 c 0
 774.333 -194 714 -261.667 614 -301 c 1
 563 -315 l 1
 463 -207 l 1
 516 -190 l 2
 556 -177.333 584.667 -161 602 -141 c 1
 625.333 -121 639.667 -89.6667 645 -47 c 0
 646.333 -36.3333 647 -20 647 2 c 2
 647 575 l 2
 647 617.667 641 645 629 657 c 2
 600 686 l 1
 586 694 l 1
 469 618 l 1
 358 688 l 1
 340 678 l 2
 326.667 670.667 317 657 311 637 c 1
 305 600 l 1
 307 580 l 1
 322 578 l 1
 350 582 l 1
 366.667 582 381.667 578.333 395 571 c 1
 439 559 461 526.333 461 473 c 0
 461 439.667 451.333 411.667 432 389 c 0
 411.333 364.333 384.667 352 352 352 c 1
 330 350 l 1
 275.333 350 233 371.667 203 415 c 0
 177 453 164 500.333 164 557 c 0
 164 583 166.667 607.667 172 631 c 0
 194 726.333 254.667 782.333 354 799 c 1
 469 727 l 1
 592 799 l 1
 629 799 l 1
 657.667 791.667 675.333 786.667 682 784 c 0
 698 778 713.667 768.667 729 756 c 0
 764.333 728 787.667 695 799 657 c 0
 803 643.667 805 618 805 580 c 2
 805 35 l 2
338 514 m 0
 317.333 514 304.333 501 299 475 c 1
 299 449 312 436 338 436 c 0
 364 436 377 449 377 475 c 0
 377 501 364 514 338 514 c 0
EndSplineSet
MinimumDistance: x0,-1 
EndChar
StartChar: uni0E47
Encoding: 231 3655
OldEncoding: 3655
Width: 0
Flags: W
HStem: 901 84<-240 -234> 1079 80<-248.885 -233>
VStem: -700 122<1111 1141> -197 68<1028.13 1042.7>
DStem: -463 1352 -463 1352 -518 1350 -362 1348
Fore
-33 1460 m 1
 -33 1423.33 -37.6667 1390.67 -47 1362 c 0
 -69 1295.33 -112.667 1255.67 -178 1243 c 1
 -254 1237 l 1
 -336 1243 l 1
 -479 1257 l 1
 -545 1257 -578 1214 -578 1128 c 0
 -578 1097.33 -568.333 1075 -549 1061 c 2
 -535 1051 l 1
 -526 1087 l 1
 -515.333 1113.67 -497.667 1130.33 -473 1137 c 0
 -453 1142.33 -425 1134 -389 1112 c 1
 -348 1075 l 1
 -340 1100 l 1
 -319.333 1139.33 -285.333 1159 -238 1159 c 0
 -165.333 1159 -129 1115.33 -129 1028 c 2
 -129 1008 l 2
 -129 977.333 -139.5 951.833 -160.5 931.5 c 0
 -181.5 911.167 -207.333 901 -238 901 c 0
 -276.667 901 -323 926.333 -377 977 c 0
 -403 1001.67 -424 1014 -440 1014 c 0
 -467.333 1014 -483.667 986.667 -489 932 c 1
 -489 909 l 1
 -487 899 l 1
 -587 899 -651.333 939.333 -680 1020 c 0
 -693.333 1058 -700 1093.33 -700 1126 c 0
 -700 1236.67 -654.333 1307.67 -563 1339 c 1
 -518 1350 l 1
 -463 1352 l 1
 -362 1348 l 1
 -291 1343 l 2
 -224.333 1338.33 -185.333 1355.67 -174 1395 c 1
 -166 1460 l 1
 -33 1460 l 1
-238 1079 m 0
 -265.333 1079 -279 1062.67 -279 1030 c 0
 -279 1000 -264.667 985 -236 985 c 0
 -215.333 985 -202.333 999.333 -197 1028 c 1
 -197 1062 -210.667 1079 -238 1079 c 0
EndSplineSet
MinimumDistance: x15,-1 
EndChar
StartChar: uni0E48
Encoding: 232 3656
OldEncoding: 3656
Width: 0
Flags: W
VStem: -268 147<1325 1595>
Fore
-268 1325 m 1
 -268 1595 l 1
 -121 1595 l 1
 -121 1325 l 1
 -268 1325 l 1
EndSplineSet
MinimumDistance: x2,-1 
EndChar
StartChar: uni0E49
Encoding: 233 3657
OldEncoding: 3657
Width: 0
Flags: W
VStem: -522 67<1524 1544>
Fore
-440 1364 m 1
 -416 1401 l 1
 -410 1413 l 1
 -458.667 1413 -492 1433.67 -510 1475 c 0
 -518 1493 -522 1510 -522 1526 c 0
 -522 1560 -511.667 1589 -491 1613 c 0
 -470.333 1637 -443.333 1649 -410 1649 c 0
 -326.667 1649 -278.667 1614 -266 1544 c 1
 -264 1518 l 2
 -260 1464.67 -278.333 1423 -319 1393 c 1
 -287 1397 -248.333 1409.33 -203 1430 c 0
 -182.333 1439.33 -163.667 1448.67 -147 1458 c 1
 -98 1501 l 2
 -66 1529 -38.6667 1564 -16 1606 c 2
 -2 1632 l 1
 -2 1454 l 1
 -29 1430 l 2
 -70.3333 1393.33 -125.667 1363.67 -195 1341 c 1
 -317 1315 l 1
 -449 1307 l 1
 -504 1309 l 1
 -483 1323 l 2
 -471.667 1330.33 -457.333 1344 -440 1364 c 1
-399 1477 m 1
 -365 1477 -348 1494 -348 1528 c 0
 -348 1563.33 -366.333 1581.67 -403 1583 c 0
 -437.667 1584.33 -455 1567.33 -455 1532 c 0
 -455 1512.67 -447.333 1497.67 -432 1487 c 0
 -426 1483 -415 1479.67 -399 1477 c 1
EndSplineSet
MinimumDistance: x25,-1 
EndChar
StartChar: uni0E4A
Encoding: 234 3658
OldEncoding: 3658
Width: 0
Flags: W
HStem: 1321 47<-432 -412> 1575 82<-414 -404 -246 -213>
VStem: -379 51<1411.03 1418> -190 92<1492 1522>
Fore
-457 1507 m 2
 -457 1493 l 1
 -444 1497 l 1
 -414 1501 l 1
 -356.667 1501 -328 1471.67 -328 1413 c 0
 -328 1351.67 -358.667 1321 -420 1321 c 0
 -468 1321 -503.333 1343.67 -526 1389 c 1
 -539 1427 l 1
 -543 1479 l 2
 -545.667 1514.33 -537.333 1552.33 -518 1593 c 0
 -500.667 1629 -481 1648.33 -459 1651 c 2
 -414 1657 l 1
 -386.667 1657 -359.333 1646.67 -332 1626 c 1
 -317 1612 l 1
 -287 1634 l 2
 -264.333 1650.67 -239.667 1659 -213 1659 c 0
 -179.667 1659 -152.5 1648.17 -131.5 1626.5 c 0
 -110.5 1604.83 -100 1577.33 -100 1544 c 1
 -98 1532 l 1
 -98 1522 l 2
 -98 1494 -103.667 1468 -115 1444 c 2
 -123 1427 l 1
 -110.333 1431.67 -96.6667 1441.33 -82 1456 c 1
 -57 1487 l 2
 -49 1497 -34.6667 1528.33 -14 1581 c 1
 -8 1651 l 1
 100 1595 l 1
 86 1548 l 2
 64.6667 1477.33 19 1422.67 -51 1384 c 0
 -78.3333 1369.33 -118.667 1355 -172 1341 c 0
 -213.333 1330.33 -248 1325 -276 1325 c 1
 -258 1329 -240.667 1345 -224 1373 c 0
 -208.667 1397.67 -199.667 1420.67 -197 1442 c 1
 -190 1493 l 1
 -190 1546.33 -208.667 1573 -246 1573 c 0
 -260 1573 -279 1565.33 -303 1550 c 2
 -322 1538 l 1
 -346 1556 l 1
 -366.667 1568.67 -386.667 1575 -406 1575 c 0
 -440 1575 -457 1552.33 -457 1507 c 2
-424 1368 m 0
 -407.333 1368 -395.667 1373.33 -389 1384 c 1
 -379 1411 l 1
 -379 1441 -394 1456 -424 1456 c 0
 -447.333 1456 -462.333 1441 -469 1411 c 1
 -469 1382.33 -454 1368 -424 1368 c 0
EndSplineSet
MinimumDistance: x18,-1 
EndChar
StartChar: uni0E4B
Encoding: 235 3659
OldEncoding: 3659
Width: 0
Flags: W
HStem: 1421 92<-406 -270 -119 16>
VStem: -270 151<1315 1421 1513 1638>
Fore
-270 1638 m 1
 -119 1638 l 1
 -119 1513 l 1
 16 1513 l 1
 16 1421 l 1
 -119 1421 l 1
 -119 1315 l 1
 -270 1315 l 1
 -270 1421 l 1
 -406 1421 l 1
 -406 1513 l 1
 -270 1513 l 1
 -270 1638 l 1
EndSplineSet
MinimumDistance: y5,7 y5,6 y2,0 y2,1 x8,10 x8,9 x2,4 x2,3 
EndChar
StartChar: uni0E4C
Encoding: 236 3660
OldEncoding: 3660
Width: 0
Flags: W
VStem: -104 57<1278 1292>
Fore
-96 1438 m 1
 -123.333 1438 -144 1431 -158 1417 c 1
 -168 1401 l 1
 -141.333 1397 -121.667 1392 -109 1386 c 0
 -67.6667 1365.33 -47 1330 -47 1280 c 0
 -47 1250 -59.6667 1225.33 -85 1206 c 0
 -107.667 1188.67 -134.667 1180 -166 1180 c 0
 -204.667 1180 -235.5 1193.33 -258.5 1220 c 0
 -281.5 1246.67 -293 1279.67 -293 1319 c 0
 -293 1376.33 -270.333 1422 -225 1456 c 0
 -207 1470 -181 1481.67 -147 1491 c 0
 -91 1507 -61 1516 -57 1518 c 0
 -29.6667 1532 -11.3333 1554.33 -2 1585 c 1
 2 1622 l 1
 111 1622 l 1
 102 1577 l 2
 96 1545.67 84 1519.67 66 1499 c 1
 32.6667 1469 -21.3333 1448.67 -96 1438 c 1
-160 1235 m 1
 -122.667 1235 -104 1253.33 -104 1290 c 0
 -104 1328.67 -122.667 1348 -160 1348 c 0
 -194 1348 -211.667 1328.67 -213 1290 c 0
 -214.333 1258.67 -196.667 1240.33 -160 1235 c 1
EndSplineSet
MinimumDistance: x4,-1 
EndChar
StartChar: uni0E4D
Encoding: 237 3661
OldEncoding: 3661
Width: 0
Flags: W
HStem: 930 88<-273 -255> 1171 93<-273 -255>
VStem: -432 92<1089 1094> -186 90<1094.06 1096 1096.06 1113.35>
Fore
-264 1264 m 0
 -214.667 1264 -174.333 1248.33 -143 1217 c 0
 -111.667 1185.67 -96 1145.33 -96 1096 c 0
 -96 1046.67 -111.667 1006.67 -143 976 c 0
 -174.333 945.333 -214.667 930 -264 930 c 0
 -312 930 -352 945.667 -384 977 c 0
 -416 1008.33 -432 1048 -432 1096 c 0
 -432 1145.33 -416.333 1185.67 -385 1217 c 0
 -353.667 1248.33 -313.333 1264 -264 1264 c 0
-264 1018 m 0
 -213.333 1018 -187.333 1043.33 -186 1094 c 0
 -184.667 1145.33 -210.667 1171 -264 1171 c 0
 -309.333 1171 -334.667 1145.33 -340 1094 c 1
 -340 1043.33 -314.667 1018 -264 1018 c 0
EndSplineSet
MinimumDistance: x2,-1 
EndChar
StartChar: uni0E4E
Encoding: 238 3662
OldEncoding: 3662
Width: 0
Flags: W
HStem: 958 93<-264 -223>
VStem: -424 152<1079 1092>
Fore
-281 1237 m 1
 -305 1256.33 -317 1281.67 -317 1313 c 1
 -309 1358.33 -277.667 1392.33 -223 1415 c 0
 -179 1433 -130.667 1442 -78 1442 c 0
 -36.6667 1442 7.66667 1431.67 55 1411 c 1
 -25 1350 l 1
 -57 1354 l 1
 -86 1360 l 1
 -147.333 1360 -178 1339.33 -178 1298 c 0
 -178 1288 -167 1278.33 -145 1269 c 0
 -126.333 1261 -110.667 1257 -98 1257 c 2
 -70 1257 l 1
 -109 1174 l 1
 -121 1174 l 2
 -221.667 1174 -272 1146 -272 1090 c 0
 -272 1064 -255.667 1051 -223 1051 c 0
 -205.667 1051 -191.333 1053 -180 1057 c 1
 -145 1085 l 1
 -70 1024 l 1
 -121.333 980 -186 958 -264 958 c 0
 -370.667 958 -424 998.333 -424 1079 c 0
 -424 1117.67 -409.333 1151.67 -380 1181 c 0
 -353.333 1208.33 -320.333 1227 -281 1237 c 1
EndSplineSet
MinimumDistance: x14,-1 
EndChar
StartChar: uni0E4F
Encoding: 239 3663
OldEncoding: 3663
Width: 797
Flags: W
HStem: 0 45<378 412> 145 48<393 412> 481 49<393 412> 631 45<378 412>
VStem: 59 45<319 353> 203 53<319 353> 545 45<319 353> 688 45<319 353>
Fore
395 676 m 0
 496.333 676 578 645 640 583 c 0
 702 521 733 439.333 733 338 c 0
 733 236.667 702 155 640 93 c 0
 578 31 496.333 0 395 0 c 0
 294.333 0 213.167 31.1667 151.5 93.5 c 0
 89.8333 155.833 59 237.333 59 338 c 0
 59 437.333 90.1667 518.5 152.5 581.5 c 0
 214.833 644.5 295.667 676 395 676 c 0
395 45 m 0
 483 45 553.833 71.8333 607.5 125.5 c 0
 661.167 179.167 688 250 688 338 c 0
 688 425.333 661 496 607 550 c 0
 553 604 482.333 631 395 631 c 0
 309.667 631 239.833 603.5 185.5 548.5 c 0
 131.167 493.5 104 423.333 104 338 c 0
 104 251.333 130.833 180.833 184.5 126.5 c 0
 238.167 72.1667 308.333 45 395 45 c 0
395 530 m 0
 339 530 293 512 257 476 c 0
 221 440 203 394 203 338 c 0
 203 280.667 220.667 234.167 256 198.5 c 0
 291.333 162.833 337.667 145 395 145 c 0
 453 145 500 162.667 536 198 c 0
 572 233.333 590 280 590 338 c 0
 590 396 572 442.5 536 477.5 c 0
 500 512.5 453 530 395 530 c 0
399 481 m 0
 440.333 481 475 467.167 503 439.5 c 0
 531 411.833 545 377.333 545 336 c 0
 545 293.333 531.333 258.833 504 232.5 c 0
 476.667 206.167 441.667 193 399 193 c 0
 359 193 325.167 206.833 297.5 234.5 c 0
 269.833 262.167 256 296 256 336 c 0
 256 378.667 269.167 413.5 295.5 440.5 c 0
 321.833 467.5 356.333 481 399 481 c 0
EndSplineSet
MinimumDistance: x2,-1 
EndChar
StartChar: uni0E50
Encoding: 240 3664
OldEncoding: 3664
Width: 932
Flags: W
HStem: -12 102<433 467> 471 102<433 467>
VStem: 98 150<259 293> 657 152<259 293>
Fore
98 283 m 0
 98 381 134 455.333 206 506 c 0
 268.667 550.667 351 573 453 573 c 0
 554.333 573 636.667 550.667 700 506 c 0
 772.667 454.667 809 380.333 809 283 c 0
 809 185 773 109.667 701 57 c 0
 637 11 554.333 -12 453 -12 c 0
 349 -12 266 10.6667 204 56 c 0
 133.333 107.333 98 183 98 283 c 0
453 471 m 0
 316.333 471 248 407.667 248 281 c 0
 248 153.667 315 90 449 90 c 0
 587.667 90 657 153.667 657 281 c 0
 657 407.667 589 471 453 471 c 0
EndSplineSet
MinimumDistance: x4,-1 
EndChar
StartChar: uni0E51
Encoding: 241 3665
OldEncoding: 3665
Width: 932
Flags: W
HStem: -4 86<370 403> 252 72<470 489> 475 90<470 522>
VStem: 135 141<245 296> 362 76<197 209> 522 84<189 213> 705 151<245 296>
Fore
856 272 m 0
 856 202.667 839.667 136.333 807 73 c 0
 771 4.33333 724 -44.6667 666 -74 c 1
 580 -8 l 1
 607.333 6.66667 627.667 22.3333 641 39 c 0
 683.667 94.3333 705 172 705 272 c 0
 705 407.333 634.667 475 494 475 c 0
 430 475 378.333 457.333 339 422 c 0
 297 384.667 276 334.667 276 272 c 0
 276 223.333 285 181.667 303 147 c 0
 325 103.667 358.333 82 403 82 c 0
 421 82 431.333 83.3333 434 86 c 2
 455 102 l 1
 429.667 106.667 407.833 119.667 389.5 141 c 0
 371.167 162.333 362 185.667 362 211 c 0
 362 245 374.667 272.667 400 294 c 0
 423.333 314 452.333 324 487 324 c 0
 566.333 324 606 279.333 606 190 c 1
 604 168 l 2
 599.333 114 572 71 522 39 c 0
 478.667 10.3333 428.333 -4 371 -4 c 0
 293.667 -4 234 24 192 80 c 0
 154 130 135 194.667 135 274 c 0
 135 373.333 171.333 448.333 244 499 c 0
 307.333 543 390.667 565 494 565 c 0
 597.333 565 681 542.667 745 498 c 0
 819 446.667 856 371.333 856 272 c 0
479 252 m 0
 463 252 452 247.333 446 238 c 1
 438 209 l 1
 438 181.667 451.667 168 479 168 c 0
 507.667 168 522 181.667 522 209 c 0
 522 237.667 507.667 252 479 252 c 0
EndSplineSet
MinimumDistance: x0,-1 
EndChar
StartChar: uni0E52
Encoding: 242 3666
OldEncoding: 3666
Width: 932
Flags: W
HStem: 0 102<389 639> 469 94<525 545>
VStem: 166 153<173 539> 383 117<362 385> 569 68<255 273> 731 158<182 418>
DStem: 166 539 322 541 166 195 319 184
Fore
889 193 m 2
 889 64.3333 833 -6.93889e-18 721 0 c 2
 356 0 l 2
 301.333 0 255.667 15.6667 219 47 c 1
 183.667 85 166 134.333 166 195 c 2
 166 539 l 1
 160 606 l 1
 156 628.667 143.833 649 123.5 667 c 0
 103.167 685 81.6667 694 59 694 c 1
 6 700 l 1
 92 817 l 1
 138 817 188.667 795.333 244 752 c 0
 296.667 710.667 322.667 640.333 322 541 c 1
 319 184 l 1
 319 171.333 323.333 157.667 332 143 c 0
 348 115.667 371.667 102 403 102 c 2
 625 102 l 2
 658.333 102 686.333 111.667 709 131 c 0
 723.667 143.667 731 165.667 731 197 c 2
 731 395 l 2
 731 445.667 720 471 698 471 c 0
 674 471 658.333 452.667 651 416 c 1
 596 416 l 1
 596 446 579 463.667 545 469 c 1
 532.333 469 522 464.333 514 455 c 1
 502 424 l 1
 500 385 l 1
 500 362 l 1
 537 365 l 2
 566.333 367.667 590.333 359.167 609 339.5 c 0
 627.667 319.833 637 295.333 637 266 c 0
 637 221.333 618.667 190.667 582 174 c 1
 555 166 l 1
 528 164 l 2
 482 160.667 445 185.333 417 238 c 0
 394.333 280.667 383 327 383 377 c 0
 383 501 430.667 563 526 563 c 0
 563.333 563 592.667 552 614 530 c 1
 627 512 l 1
 635 534 661 549.667 705 559 c 0
 717.667 561.667 732.667 563 750 563 c 0
 793.333 563 828 546.667 854 514 c 0
 877.333 483.333 889 445.667 889 401 c 2
 889 193 l 2
535 299 m 0
 513 299 502 287.333 502 264 c 0
 502 241.333 513 229.667 535 229 c 0
 557.667 228.333 569 240 569 264 c 0
 569 287.333 557.667 299 535 299 c 0
EndSplineSet
MinimumDistance: x0,-1 
EndChar
StartChar: uni0E53
Encoding: 243 3667
OldEncoding: 3667
Width: 932
Flags: W
HStem: -4 67<279 291> 0 21G<436 569 672 827> 451 114<347 368 633 670>
VStem: 127 158<235 301> 328 69<94 117> 436 133<0 349> 713 157<210 285>
Fore
870 270 m 0
 870 174.667 863.333 107.333 850 68 c 2
 827 0 l 1
 672 0 l 1
 686.667 32 696 69 700 111 c 1
 708.667 145.667 713 195.333 713 260 c 0
 713 386 686.333 449 633 449 c 0
 611 449 594.667 438.667 584 418 c 1
 574 393.333 569 368 569 342 c 2
 569 0 l 1
 436 0 l 1
 436 342 l 2
 436 414.667 410.667 451 360 451 c 0
 310 451 285 407 285 319 c 2
 285 258 l 2
 285 240 286.333 227 289 219 c 1
 313.667 219 331.333 215.667 342 209 c 1
 378.667 192.333 397 161 397 115 c 0
 397 35.6667 358.333 -4 281 -4 c 0
 214.333 -4 169.667 29.3333 147 96 c 0
 133.667 136 127 197 127 279 c 0
 127 359 143.333 424.333 176 475 c 0
 214.667 535 272 565 348 565 c 0
 416.667 565 468.667 528.333 504 455 c 1
 540 528.333 595.333 565 670 565 c 0
 741.333 565 794.333 532 829 466 c 0
 856.333 414 870 348.667 870 270 c 0
285 152 m 0
 256.333 152 242 136.667 242 106 c 0
 242 77.3333 256.333 63 285 63 c 0
 313.667 63 328 77.3333 328 106 c 0
 328 136.667 313.667 152 285 152 c 0
EndSplineSet
MinimumDistance: x0,-1 
EndChar
StartChar: uni0E54
Encoding: 244 3668
OldEncoding: 3668
Width: 932
Flags: W
HStem: -8 92<341 369> 324 75<485 499>
VStem: 82 149<246 281> 377 80<267 291> 532 72<279 297>
Fore
907 727 m 1
 907 608.333 864 527 778 483 c 0
 762.667 475 741.667 467.667 715 461 c 1
 643 455 l 1
 578 457 l 1
 455 465 l 2
 386.333 469.667 331.833 453.833 291.5 417.5 c 0
 251.167 381.167 231 328.667 231 260 c 0
 231 212 241.667 172 263 140 c 0
 287.667 102.667 323 84 369 84 c 0
 387.667 84 407.333 87.3333 428 94 c 1
 516 113 l 1
 496.667 119.667 483.667 125 477 129 c 0
 467 133 456.667 139 446 147 c 0
 400 181 377 221.333 377 268 c 0
 377 355.333 415.333 399 492 399 c 0
 566.667 399 604 363 604 291 c 0
 604 259.667 593.667 233.667 573 213 c 1
 543 195 l 1
 553 174 l 1
 563.667 159.333 578 148.333 596 141 c 1
 657 125 l 1
 721 111 l 2
 741.667 106.333 758.667 98.6667 772 88 c 1
 788 72 l 1
 729 -8 l 1
 715 2 l 1
 686.333 18.6667 652 27 612 27 c 0
 585.333 27 552.667 23.3333 514 16 c 0
 430.667 0 373.333 -8 342 -8 c 2
 315 -8 l 2
 287.667 -8 257 0 223 16 c 0
 129 60 82 137.333 82 248 c 0
 82 417.333 145.333 519.667 272 555 c 1
 330 565 l 1
 391 567 l 1
 438 567 l 2
 441.333 566.333 457.667 565 487 563 c 2
 592 555 l 2
 613.333 553.667 637.333 556.333 664 563 c 0
 744 583.667 784 661 784 795 c 1
 907 727 l 1
494 324 m 0
 469.333 324 457 311 457 285 c 0
 457 260.333 469.333 248 494 248 c 0
 519.333 248 532 260.333 532 285 c 0
 532 311 519.333 324 494 324 c 0
EndSplineSet
MinimumDistance: x16,-1 
EndChar
StartChar: uni0E55
Encoding: 245 3669
OldEncoding: 3669
Width: 932
Flags: W
HStem: 326 73<453 461> 477 121<416 471> 729 74<456 483>
VStem: 45 154<245 279> 340 80<267 291> 496 71<277 295> 537 88<653 669>
Fore
915 739 m 1
 909 707 l 2
 900.333 661 881.333 622.667 852 592 c 0
 798.667 536 726.333 508 635 508 c 2
 610 508 l 2
 602.667 508 592 509.333 578 512 c 2
 537 520 l 1
 526 508 l 1
 501.333 487.333 464.667 477 416 477 c 0
 271.333 477 199 405.333 199 262 c 0
 199 144.667 244 86 334 86 c 0
 357.333 86 378.333 89.3333 397 96 c 1
 471 115 l 1
 443 127 421.333 138.667 406 150 c 0
 362 182.667 340 222 340 268 c 0
 340 355.333 378.333 399 455 399 c 0
 529.667 399 567 363 567 291 c 0
 567 259.667 557 233.667 537 213 c 1
 506 195 l 1
 512 182 l 1
 524 163.333 539.667 149.667 559 141 c 1
 621 125 l 1
 684 113 l 2
 708 108.333 725.667 100.667 737 90 c 2
 754 74 l 1
 692 -6 l 1
 657 10 l 2
 632.333 21.3333 605 27 575 27 c 0
 559 27 526.333 23.3333 477 16 c 2
 301 -10 l 1
 205 -10 134 22.6667 88 88 c 0
 59.3333 128.667 45 182.667 45 250 c 0
 45 406.667 99.6667 504.333 209 543 c 0
 243 555 272.333 561.667 297 563 c 2
 365 567 l 1
 342 590 l 1
 326.667 612 319 635 319 659 c 1
 326 702 l 2
 336.667 769.333 388.333 803 481 803 c 0
 559 803 604.667 772.333 618 711 c 2
 623 688 l 1
 625 668 l 1
 625 652 622 638.333 616 627 c 2
 608 612 l 1
 639 610 l 2
 681 607.333 717.333 622.333 748 655 c 1
 764 678.333 776 710 784 750 c 1
 788 803 l 1
 915 739 l 1
471 598 m 0
 515 598 537 620 537 664 c 0
 537 707.333 515 729 471 729 c 0
 429 729 408 707.333 408 664 c 0
 408 620 429 598 471 598 c 0
459 326 m 0
 433 326 420 313 420 287 c 0
 420 262.333 433 250 459 250 c 0
 483.667 250 496 262.333 496 287 c 0
 496 313 483.667 326 459 326 c 0
EndSplineSet
MinimumDistance: x41,-1 
EndChar
StartChar: uni0E56
Encoding: 246 3670
OldEncoding: 3670
Width: 932
Flags: W
HStem: -4 90<542 565> 252 74<393 408> 485 84<528 610>
VStem: 270 80<187 211> 438 84<197 221>
Fore
874 166 m 0
 822.667 52.6667 716.333 -4 555 -4 c 0
 427 -4 340.333 30.6667 295 100 c 0
 278.333 125.333 270 154.667 270 188 c 0
 270 280 315.333 326 406 326 c 0
 483.333 326 522 283.667 522 199 c 0
 522 164.333 511 137 489 117 c 1
 471 104 l 1
 506 92 l 2
 518 88 537.667 86 565 86 c 1
 621 92 l 1
 705.667 110 748 173.667 748 283 c 0
 748 304.333 746.333 319.333 743 328 c 1
 739 350 l 2
 731 395.333 704.667 430 660 454 c 0
 622 474.667 578 485 528 485 c 0
 442 485 374 453.667 324 391 c 1
 246 391 l 1
 236 479 l 2
 223.333 590.333 174.667 672.333 90 725 c 1
 47 743 l 1
 174 827 l 1
 217 797 l 1
 285.667 734.333 325.333 657 336 565 c 2
 342 512 l 1
 380 550 469.333 569 610 569 c 0
 709.333 569 784.667 537.667 836 475 c 0
 876.667 425.667 897 362.333 897 285 c 1
 891 221 l 2
 889.667 206.333 884 188 874 166 c 0
395 252 m 0
 365 252 350 237.667 350 209 c 0
 350 180.333 365 166 395 166 c 0
 423.667 166 438 180.333 438 209 c 0
 438 237.667 423.667 252 395 252 c 0
EndSplineSet
MinimumDistance: x5,-1 
EndChar
StartChar: uni0E57
Encoding: 247 3671
OldEncoding: 3671
Width: 932
Flags: W
HStem: 473 90<189 221 455 465>
VStem: -8 141<280 346> 254 78<105 115>
Fore
987 762 m 1
 969 750 l 1
 939.667 724.667 922.667 678.667 918 612 c 1
 903 403 l 1
 897.667 333 878 265.667 844 201 c 0
 802 121.667 746 66.3333 676 35 c 0
 618 9 540 -4 442 -4 c 1
 463.333 27.3333 479 56 489 82 c 0
 513 142.667 527.333 196 532 242 c 2
 539 309 l 1
 539 418.333 512.333 473 459 473 c 0
 435.667 473 414.333 454.667 395 418 c 1
 379 360 l 1
 307 360 l 1
 295 416 l 1
 278.333 454 253.667 473 221 473 c 0
 195 473 173 458 155 428 c 0
 140.333 402 133 374.667 133 346 c 0
 133 292 135.667 255.333 141 236 c 2
 150 203 l 1
 168 213 l 1
 180 217 197.667 220.333 221 223 c 1
 295 223 332 186.333 332 113 c 0
 332 45.6667 298.333 6.66667 231 -4 c 1
 201 -6 l 2
 154.333 -9.33333 112.333 7.66667 75 45 c 0
 19.6667 100.333 -8 179 -8 281 c 0
 -8 355.667 6 418.333 34 469 c 0
 69.3333 531.667 121.333 563 190 563 c 0
 268 563 319.333 533 344 473 c 1
 352.667 495 360.333 510 367 518 c 0
 392.333 549.333 424.333 565 463 565 c 0
 521.667 565 569.667 548.5 607 515.5 c 0
 644.333 482.5 664.667 437 668 379 c 2
 670 344 l 1
 672 317 l 2
 675.333 269.667 666.333 222.667 645 176 c 0
 639 163.333 630 149.667 618 135 c 1
 668 156 l 1
 718.667 190.667 752.667 277.333 770 416 c 0
 775.333 458.667 778 534.333 778 643 c 0
 778 705 793 756.333 823 797 c 0
 831.667 808.333 846.667 822 868 838 c 1
 987 762 l 1
213 152 m 0
 196.333 152 185.333 147 180 137 c 1
 172 109 l 1
 172 81.6667 185.667 68 213 68 c 0
 225 68 236.667 74 248 86 c 1
 252 92.6667 254 100.333 254 109 c 0
 254 137.667 240.333 152 213 152 c 0
EndSplineSet
MinimumDistance: x22,-1 
EndChar
StartChar: uni0E58
Encoding: 248 3672
OldEncoding: 3672
Width: 932
Flags: W
HStem: 109 127<389 408>
VStem: 100 158<235 287> 604 82<225 241>
Fore
940 748 m 1
 928 678 l 1
 899.333 574 843.333 507 760 477 c 1
 696 463 l 1
 629 459 l 1
 453 467 l 1
 401 465 l 2
 385 464.333 371.333 461 360 455 c 1
 292 430.333 258 366 258 262 c 0
 258 222.667 262.667 190 272 164 c 0
 278 148 289 133.667 305 121 c 1
 305 197.667 333 236 389 236 c 0
 423.667 236 466.667 213.333 518 168 c 0
 548.667 141.333 583.667 116.667 623 94 c 0
 629.667 90 642.667 86.6667 662 84 c 1
 675.333 84 687.333 89.3333 698 100 c 1
 711 117 l 1
 687 124.333 669 131.667 657 139 c 0
 621.667 160.333 604 189.667 604 227 c 0
 604 263 615.5 293.5 638.5 318.5 c 0
 661.5 343.5 691 356 727 356 c 0
 767.667 356 800.667 342.167 826 314.5 c 0
 851.333 286.833 864 252.333 864 211 c 0
 864 169 852.333 130 829 94 c 0
 787 28.6667 729.667 -4 657 -4 c 1
 604 4 l 2
 575.333 8.66667 544.667 24.3333 512 51 c 0
 465.333 89.6667 430.667 109 408 109 c 0
 396.667 109 386.333 98.6667 377 78 c 1
 369 23 l 1
 369 4 l 1
 346 -4 l 1
 322 -6 l 2
 250.667 -12 190.333 24 141 102 c 0
 113.667 145.333 100 200 100 266 c 0
 100 424 167 519.667 301 553 c 0
 308.333 555 323.333 557.667 346 561 c 1
 395 565 l 1
 565 555 l 1
 618 555 l 1
 653 563 l 2
 720.333 578.333 766.333 627 791 709 c 0
 803 749 809 790.667 809 834 c 1
 940 748 l 1
731 285 m 0
 701 286.333 686 270.667 686 238 c 0
 686 208 701 193 731 193 c 0
 747.667 193 759.333 198.333 766 209 c 1
 776 238 l 1
 776 268 761 283.667 731 285 c 0
EndSplineSet
MinimumDistance: x44,-1 
EndChar
StartChar: uni0E59
Encoding: 249 3673
OldEncoding: 3673
Width: 932
Flags: W
VStem: 39 145<274 317>
Fore
961 784 m 1
 961 770 l 1
 963 725 l 1
 965.667 670.333 960 617.667 946 567 c 0
 920.667 474.333 873.667 428 805 428 c 0
 795.667 428 769.667 434 727 446 c 2
 688 457 l 1
 678.667 457 670.667 454.333 664 449 c 0
 644.667 436.333 635 407.333 635 362 c 0
 635 292 665 222 725 152 c 0
 751 122 773 103.333 791 96 c 1
 715 -4 l 1
 684 14 l 1
 640 47.3333 600.333 107.667 565 195 c 0
 523 297.667 491.667 363.667 471 393 c 0
 429 451.667 377.667 481 317 481 c 0
 275 481 241.667 462.667 217 426 c 0
 195 393.333 184 355 184 311 c 0
 184 203.667 203.333 134 242 102 c 1
 255.333 94 269.667 88.6667 285 86 c 1
 309 92 l 1
 313 96 l 1
 274.333 122.667 256.667 157.667 260 201 c 2
 262 227 l 1
 273.333 285.667 310.333 315 373 315 c 0
 408.333 315 435.333 302.167 454 276.5 c 0
 472.667 250.833 481 220 479 184 c 2
 477 147 l 1
 459.667 46.3333 396.333 -4 287 -4 c 0
 205.667 -4 142.667 27.3333 98 90 c 0
 58.6667 144.667 39 214.333 39 299 c 0
 39 365 59.3333 423.667 100 475 c 0
 142.667 530.333 196 560.333 260 565 c 2
 287 567 l 1
 319 569 l 2
 412.333 575 482 543 528 473 c 0
 534 463.667 543 448.667 555 428 c 1
 553 453 l 1
 547.667 515.667 563.333 551 600 559 c 2
 637 567 l 1
 653.667 567 678.333 561 711 549 c 1
 776 532 l 1
 797 537 l 1
 823 546.333 836 600 836 698 c 2
 836 743 l 2
 836 753.667 834.333 771 831 795 c 0
 829 813.667 827 828 825 838 c 1
 961 784 l 1
406 197 m 0
 406 227 393 243.333 367 246 c 1
 343.667 246 332 231 332 201 c 0
 332 168.333 345 152 371 152 c 0
 394.333 152 406 167 406 197 c 0
EndSplineSet
MinimumDistance: x17,-1 
EndChar
StartChar: uni0E5A
Encoding: 250 3674
OldEncoding: 3674
Width: 1065
Flags: W
VStem: 514 162<240 539> 813 156<244.125 651>
Fore
203 762 m 0
 174.333 763.333 155.667 745 147 707 c 1
 147 678.333 165.667 659.667 203 651 c 1
 234.333 651 252.667 669.667 258 707 c 1
 258 741.667 239.667 760 203 762 c 0
967 659 m 1
 967 557 l 1
 969 264 l 1
 969.667 208 967.667 172 963 156 c 1
 958.333 91.3333 924.667 40.6667 862 4 c 0
 837.333 -10.6667 805.333 -19.6667 766 -23 c 2
 743 -25 l 1
 682 86 l 1
 721 88 l 1
 745.667 92 766.667 103.833 784 123.5 c 0
 801.333 143.167 810.333 165.333 811 190 c 1
 813 244 l 1
 815 639 l 1
 815 673 791.667 690 745 690 c 0
 733 690 720.333 685.333 707 676 c 1
 676 647 l 1
 676 248 l 2
 676 191.333 671.667 149.333 663 122 c 0
 649.667 80 623.333 49 584 29 c 0
 536 4.33333 484.667 -8 430 -8 c 1
 358 106 l 1
 425.333 106 472.667 121.333 500 152 c 0
 512.667 166.667 518 187.667 516 215 c 1
 514 240 l 1
 514 539 l 1
 489 512 l 1
 459 492 l 1
 420 473 l 2
 392.667 459.667 355 453 307 453 c 0
 239.667 453 182.667 467.333 136 496 c 0
 82 528.667 50.3333 576.333 41 639 c 1
 41 691 53 733.333 77 766 c 0
 103.667 802.667 142.333 821 193 821 c 0
 231 821 262.667 811 288 791 c 0
 314.667 769 328 739.333 328 702 c 1
 324 670 l 1
 315.333 637.333 297.333 614.667 270 602 c 1
 236 592 l 1
 201 586 l 1
 229 565 l 1
 244.333 557 264.333 553 289 553 c 1
 330 557 l 2
 368 561 399.333 574 424 596 c 2
 446 616 l 1
 477 659 l 1
 494 692 l 1
 506 739 l 1
 518 795 l 1
 522 805.667 530.333 814.333 543 821 c 1
 582 829 l 1
 633.333 829 659 812 659 778 c 1
 695.667 800.667 719.667 813 731 815 c 2
 791 827 l 1
 841.667 827 883.333 816.667 916 796 c 0
 954.667 770.667 972.333 734 969 686 c 1
 967 659 l 1
EndSplineSet
MinimumDistance: x6,-1 
EndChar
StartChar: uni0E5B
Encoding: 251 3675
OldEncoding: 3675
Width: 1483
Flags: W
HStem: 51 99<294 330> 307 86<1226 1468> 313 80<1423.33 1468> 455 65<264 270> 645 98<267 297> 676 20G<608 662>
VStem: 25 96<386 420> 168 76<386 420> 414 96<466 500>
Fore
354 334 m 1
 394 365.333 414 416.333 414 487 c 0
 414 592.333 370.333 645 283 645 c 0
 233.667 645 193 615 161 555 c 0
 134.333 505 121 453 121 399 c 0
 121 337 137 281.667 169 233 c 0
 206.333 177.667 254.333 150 313 150 c 0
 395.667 150 455.333 196.333 492 289 c 0
 512 338.333 533 406 555 492 c 2
 608 696 l 1
 662 696 l 1
 723 428 l 1
 764 666 l 1
 819 666 l 1
 872 418 l 1
 942 639 l 1
 1012 434 l 1
 1061 592 l 1
 1117 462 1159.33 396.333 1188 395 c 2
 1227 393 l 1
 1468 393 l 1
 1468 313 l 1
 1200 307 l 1
 1139 313 l 1
 1123.67 317 1109.33 328 1096 346 c 1
 1098 354 l 1
 1083 362 l 1
 1010 127 l 1
 946 344 l 1
 870 119 l 1
 799 340 l 1
 756 96 l 1
 700 96 l 1
 633 412 l 1
 597 291.333 565 210 537 168 c 0
 485 90 410.333 51 313 51 c 0
 221.667 51 149.333 87.6667 96 161 c 0
 48.6667 226.333 25 306.333 25 401 c 0
 25 487 46 563 88 629 c 0
 136 705 201 743 283 743 c 0
 354.333 743 410.667 717.333 452 666 c 0
 490.667 618.667 510 558.333 510 485 c 0
 510 418.333 495.667 361.667 467 315 c 0
 431.667 257.667 383.333 229 322 229 c 0
 278 229 239.667 249.667 207 291 c 1
 181 331.667 168 368.333 168 401 c 0
 168 433 176.333 460 193 482 c 0
 211 507.333 235.333 520 266 520 c 0
 299.333 520 325.667 508.5 345 485.5 c 0
 364.333 462.5 373 434.333 371 401 c 2
 369 367 l 2
 368.333 356.333 363.333 345.333 354 334 c 1
244 401 m 0
 244 360.333 254.667 340 276 340 c 0
 285.333 340 290.333 344.667 291 354 c 1
 295 401 l 1
 297.667 434.333 289.333 452.333 270 455 c 1
 252.667 455 244 437 244 401 c 0
EndSplineSet
MinimumDistance: x41,-1 
EndChar
StartChar: uniF718
Encoding: 252 63256
OldEncoding: 63256
Width: 0
Flags: W
VStem: -377 66<-528 -518> -258 141<-799 -637>
Fore
-258 -799 m 1
 -258 -637 l 1
 -266 -639.667 -273.667 -641 -281 -641 c 0
 -288.333 -641 -294.333 -639.667 -299 -637 c 2
 -330 -618 l 2
 -361.333 -598.667 -377 -568.667 -377 -528 c 0
 -377 -460.667 -333.333 -422.667 -246 -414 c 1
 -203 -420 l 1
 -145.667 -439.333 -117 -488.333 -117 -567 c 2
 -117 -799 l 1
 -258 -799 l 1
-266 -561 m 1
 -237.333 -561 -223 -546 -223 -516 c 0
 -223 -487.333 -237.333 -473 -266 -473 c 0
 -282.667 -473 -294.333 -478.333 -301 -489 c 1
 -311 -518 l 1
 -311 -541.333 -296 -555.667 -266 -561 c 1
EndSplineSet
MinimumDistance: x8,-1 
EndChar
StartChar: uniF719
Encoding: 253 63257
OldEncoding: 63257
Width: 0
Flags: W
HStem: -715 88<-515 -497> -533 78<-505 -483>
VStem: -624 79<-592 -578> -272 151<-674 -462>
Fore
-323 -723 m 1
 -307 -721 l 1
 -301 -719 l 1
 -282 -703 l 1
 -272 -674 l 1
 -272 -461 l 1
 -116 -461 l 1
 -121 -733 l 1
 -125 -751 -133 -765.333 -145 -776 c 2
 -178 -805 l 1
 -184.667 -809 -196.333 -812.333 -213 -815 c 1
 -487 -815 l 1
 -487 -713 l 1
 -499.667 -714.333 -508.667 -715 -514 -715 c 0
 -587.333 -715 -624 -672.667 -624 -588 c 0
 -624 -548 -610.667 -515.833 -584 -491.5 c 0
 -557.333 -467.167 -523.667 -455 -483 -455 c 0
 -395.667 -455 -352 -509.667 -352 -619 c 2
 -352 -721 l 1
 -323 -723 l 1
-499 -627 m 0
 -477.667 -627 -464.333 -612.667 -459 -584 c 1
 -459 -550 -474 -533 -504 -533 c 0
 -525.333 -533 -539 -548 -545 -578 c 1
 -545 -610.667 -529.667 -627 -499 -627 c 0
EndSplineSet
MinimumDistance: x7,-1 
EndChar
StartChar: uniF71A
Encoding: 254 63258
OldEncoding: 63258
Width: 0
Flags: W
Fore
-217 -684 m 0
 -250.333 -684 -277.833 -673.333 -299.5 -652 c 0
 -321.167 -630.667 -332 -603.333 -332 -570 c 0
 -332 -536.667 -321.167 -509.167 -299.5 -487.5 c 0
 -277.833 -465.833 -250.333 -455 -217 -455 c 0
 -141.667 -455 -104 -493.333 -104 -570 c 0
 -104 -646 -141.667 -684 -217 -684 c 0
EndSplineSet
EndChar
StartChar: DEL
Encoding: 255 63259
OldEncoding: 63259
Width: 0
Flags: W
HStem: 0 21G<-615 0>
VStem: -615 615<0 1024>
Fore
-615 1024 m 1
 0 1024 l 1
 0 0 l 1
 -615 0 l 1
 -615 1024 l 1
EndSplineSet
EndChar
StartChar: exclamdown
Encoding: 256 161
OldEncoding: 161
Width: 445
Flags: W
HStem: -266 21G<127 326> 510 183<135 319>
VStem: 127 199<-266 -41>
Fore
319 693 m 1
 319 510 l 1
 135 510 l 1
 135 693 l 1
 319 693 l 1
278 443 m 1
 326 -41 l 1
 326 -266 l 1
 127 -266 l 1
 127 -41 l 1
 175 443 l 1
 278 443 l 1
EndSplineSet
MinimumDistance: x5,-1 
EndChar
